<?xml version="1.0" encoding="utf-8" ?><svg xmlns="http://www.w3.org/2000/svg" xmlns:xlink="http://www.w3.org/1999/xlink" width="1620" height="636" viewBox="0 0 1620 636"><path fill="#12CFF4" fill-opacity="0.96470588" d="M67.5234 295.278C56.5264 275.983 42.5488 252.081 73.9838 243.509C92.0948 238.569 108.921 241.323 127.206 240.211C142.736 239.266 158.774 235.826 174.231 233.937C188.354 232.022 202.779 229.974 216.783 227.295C236.878 222.578 260.541 212.383 280.259 204.961C309.314 194.211 338.452 183.69 367.673 173.4C390.903 165.199 417.207 155.776 441.006 150.021C461.829 144.986 487.434 141.365 508.841 138.492C561.793 131.462 615.092 127.346 668.496 126.163C736.603 124.634 817.078 128.328 881.991 147.689C923.042 159.933 967.567 180.911 1006.46 198.543C1022.4 205.767 1038.15 214.669 1053.63 222.631C1063.92 227.928 1082.11 239.163 1092.74 241.409C1100.41 243.03 1117.21 243.746 1125.75 244.336C1145.88 245.683 1166 247.203 1186.11 248.896C1299.06 258.329 1434.82 269.441 1537.2 325.519C1546.43 330.575 1556.47 339.623 1564.15 346.966L1562.78 348.308C1540.24 324.157 1507.41 312.301 1477.14 301.208C1366.08 260.507 1248.16 257.598 1131.21 246.497C1136.41 248.505 1153.51 251.552 1150.48 259.03C1144.71 263.864 1130.97 264.857 1123.4 265.625C1140.33 278.727 1139.09 290.076 1165.99 294.064L1164.13 296.738C1142.48 292.297 1136.15 281.808 1120.57 265.877C1112.98 265.962 1103.07 265.611 1096 262.898C1072.22 253.772 1047.03 241.883 1024.34 230.39C981.843 208.866 939.822 187.207 896.154 168.053C866.823 155.188 821.143 147.454 788.642 144.414C639.42 130.458 485.568 150.817 340.736 187.152C313.592 193.962 286.908 205.251 260.674 214.934C245.33 220.598 232.31 226.622 216.193 230.147C207.028 250.42 197.812 265.386 182.256 281.083L182.539 282.234L179.354 281.856C196.225 262.938 202.49 253.7 213.569 230.703C186.34 232.851 158.889 239.211 131.723 242.071C105.72 244.808 79.4045 236.983 57.0787 255.033C56.3597 268.725 57.5566 272.427 64.0795 285.102C65.118 287.12 67.9983 292.194 68.6494 294.043L68.4266 296.785C65.2487 318.562 52.6448 328.514 83.5892 329.211C82.3251 330.32 82.0873 330.334 80.4016 330.503L80.7586 331.269C72.4568 331.106 67.8459 330.221 60.7252 325.986C56.8022 335.383 55.0932 342.628 51.9179 352.049C50.473 356.336 44.4868 364.885 41.7503 368.884C55.999 373.697 62.323 379.323 68.5867 394.097C76.1543 411.948 90.8829 436.254 88.2286 456.009C87.2651 463.18 68.9891 464.259 63.4307 464.421C86.7593 456.905 92.2373 460.993 81.8751 431.392C80.514 427.504 78.6758 422.814 76.8647 419.205C68.6377 402.811 63.3635 380.271 45.4589 372.251C44.2723 371.721 43.0802 371.203 41.8829 370.697C38.5687 381.628 36.528 395.147 36.0459 406.576C49.0851 421 47.6375 441.749 53.4192 459.21C55.7602 466.279 59.0926 473.612 65.1888 478.213C88.6339 495.91 181.955 511.679 215.157 518.114C215.168 470.971 226.349 422.905 260.552 388.604C261.321 387.832 262.105 387.074 262.902 386.331L262.488 385.234L262.66 384.296C266.278 384.026 270.793 380.331 273.991 378.137C327.158 341.656 412.379 354.337 450.114 407.483C461.33 423.279 466.005 424.65 483.607 431.936C461.887 404.979 462.93 390.778 428.487 368.608L431.157 367.357C436.459 369.751 446.591 379.585 453.397 383.721C435.811 363.512 402.804 310.558 393.551 283.832C391.941 279.183 392.306 257.192 392.311 250.657C386.609 249.526 376.44 248.235 372.744 244.196C365.507 236.288 363.487 214.606 372.446 207.599C386.662 196.481 411.855 190.869 428.914 186.862C535.895 161.731 646.588 154.521 756.215 156.494C774.433 156.826 791.629 157.562 809.668 159.819C894.384 170.355 969.191 214.685 1040.92 258.166C1058.66 268.922 1086.43 286.806 1102.9 298.648C1114.42 306.942 1121.44 350.303 1120.89 365.943L1119.78 361.421C1119.4 360.496 1118.21 350.529 1117.94 348.752C1114.89 328.372 1112.41 311.169 1097.38 295.756C1076.95 291.079 1022.1 293.863 998.601 294.219L990.989 288.741C973.503 286.797 943.26 286.405 924.854 285.589L802.186 280.749C779.637 279.893 755.823 279.361 733.413 277.822C738.207 298.626 740.601 315.067 743.692 336.241L742.31 336.581C740.635 332.47 739.778 322.904 738.972 318.188C736.788 305.405 735.4 290.428 732.282 277.943L594.529 273.076C562.77 272.078 525.811 271.484 494.342 269.591C468.615 268.044 418.708 258.368 393.997 251.406C394.004 260.789 393.329 279.807 396.996 288.365C410.589 320.095 431.874 348.983 450.537 378.016C461.537 395.127 472.966 414.867 485.597 430.883C489.758 436.159 506.826 439.689 513.317 442.216C566.4 458.598 622.017 465.796 676.955 472.598C697.419 475.132 726.594 475.86 745.438 479.28C745.342 470.315 744.625 452.692 745.316 444.401L746.625 443.863C746.072 455.055 747.126 467.813 746.994 479.004C757.439 480.489 770.936 480.997 781.716 481.661C803.74 482.988 825.774 484.137 847.816 485.109C933.734 489.232 1019.76 490.726 1105.77 489.59C1109.12 469.624 1112.27 450.075 1114.81 429.973C1117.36 409.724 1118.25 390.542 1119.63 370.347L1120.89 370.129C1124 383.868 1111.96 472.26 1107.38 489.596C1140.25 489.308 1173.12 488.732 1205.98 487.869C1223.58 383.931 1304.91 317.212 1406.4 377.719C1410.39 373.75 1413.79 370.351 1418.14 366.725L1419.27 367.64C1415.63 371.306 1411.58 375.229 1408.17 379.053C1452.99 414.158 1462.4 456.476 1459.53 510.605C1459.18 517.366 1460.3 523.3 1459.12 530.4C1485.5 527.571 1552.01 520.559 1573.2 508.316C1576.37 499.644 1575.17 489.565 1580.71 487.007C1581.72 486.55 1582.75 486.116 1583.78 485.703C1583.25 473.832 1580.9 448.703 1582.74 438.214L1583.48 443.932C1583.6 458.204 1584.96 472.842 1585.87 487.133C1584.3 487.66 1580.34 488.862 1579.84 490.191C1576.93 497.92 1578.3 501.327 1574.94 509.628C1550.3 523.077 1488.76 528.055 1459.6 532.721C1449.61 525.75 1446.34 523.259 1434.17 521.904C1428.84 529.884 1424.86 538.624 1419.56 546.23C1404.06 568.48 1377.78 584.034 1351.36 589.273C1322.71 594.958 1292.97 589.038 1268.68 572.813C1251.53 561.267 1240.19 547.472 1230.78 529.386C1226.14 530.581 1221.05 531.806 1216.51 533.333C1204.39 537.403 1191.94 536.528 1179.25 536.486L1139.23 536.365L1000.59 536.061L727.677 536.416C664.815 536.453 598.281 535.825 535.56 537.24C530.709 537.062 521.334 536.643 516.898 537.715C485.277 538.151 479.473 538.155 448.908 532.973C436.709 554.336 420.003 570.929 397.402 581.119C370.05 593.46 338.909 594.398 310.863 583.726C278.778 571.389 261.032 549.788 247.512 519.5C240.827 520.283 222.628 521.945 217.595 524.429C217.369 526.023 217.159 527.619 216.964 529.217L215.417 530.298C205.085 530.333 173.445 523.644 159.866 520.979C126.17 514.367 84.3594 509.604 51.9781 498.907C44.8091 496.539 35.6344 460.799 32.9378 451.988C39.7385 434.501 34.2942 432.515 33.9546 414.574C33.744 403.451 35.747 388.765 37.19 377.649C38.6895 366.099 44.8597 362.504 49.4553 353.151C51.2075 349.032 52.0194 343.151 53.7152 339.19C59.8865 324.776 63.0363 310.174 67.5234 295.278ZM482.562 536.174C513.855 536.511 544.344 535.438 575.534 535.42C590.413 536.507 613.958 535.226 629.488 535.658C637.839 535.89 668.125 536.023 675.16 534.956C680.244 535.318 691.689 534.917 697.133 534.893L742.606 534.724L892.164 534.052L1095.52 534.152C1129.78 534.25 1168.92 535.649 1202.77 534.371C1204.55 523.09 1204.5 519.171 1203.96 508.009C1173.56 507.004 1140.46 507.356 1109.66 506.936L952.971 504.503C950.847 503.016 938.12 503.888 934.708 504.024L906.133 503.738C900.951 502.764 884.178 502.953 878.66 503.209C805.025 502.484 731.396 501.212 657.78 499.394L595.135 498.043C576.179 497.538 555.787 496.984 537.147 493.198C530.089 491.764 523.962 486.754 519.011 481.724C517.758 480.448 516.516 479.161 515.286 477.864C503.424 477.806 490.833 477.955 479.032 477.537C482.113 501.13 481.959 512.523 482.562 536.174ZM1320.66 372.265C1260.87 377.579 1216.69 430.306 1221.91 490.099C1227.13 549.893 1279.79 594.163 1339.59 589.034C1399.52 583.894 1443.9 531.095 1438.67 471.17C1433.44 411.245 1380.57 366.939 1320.66 372.265ZM741.606 182.07C749.238 218.243 761.354 237.9 772.771 271.142L912.05 276.132C934.279 276.906 958.349 278.196 980.464 278.402L989.507 278.64C990.109 267.945 989.673 262.911 993.595 252.968C924.908 222.106 834.686 168.696 756.281 174.991C749.323 176.513 747.323 177.761 741.606 182.07ZM517.425 262.136L629.563 266.004C650.995 266.81 677.876 268.493 698.971 268.123L700.863 268.028C706.391 269.366 746.349 270.232 755.107 270.51C753.889 267.159 752.721 263.74 751.638 260.343C741.738 229.278 729.698 198.205 721.4 166.68L693.758 166.804C694.509 194.511 700.156 224.736 700.739 253.452C699.502 257.889 699.556 260.412 699.405 265.014C699.583 234.676 693.919 197.585 692.018 166.716C660.013 166.7 622.189 169.325 590.106 171.982C568.453 173.775 535.849 177.061 514.487 181.14C516.297 194.344 515.271 202.832 516.015 215.24C517.022 232.039 517.36 245.258 517.425 262.136ZM744.421 499.054C744.804 492.909 745.124 487.313 745.16 481.131C722.519 478.768 699.85 477.373 677.066 474.922C629.753 470.005 582.815 461.987 536.553 450.918C517.839 446.251 505.968 441.049 489.002 436.125C495.578 446.519 502.437 457.01 509.608 466.971C518.25 478.976 525.768 488.97 540.965 491.749C561.989 495.594 583.734 495.742 605.069 496.281L684.424 498.111C696.6 498.358 734.533 500.104 744.421 499.054ZM481.406 535.905C480.3 483.467 475.481 431.635 435.325 393.23C411.552 370.494 375.159 358.58 342.562 359.372C341.686 359.392 340.81 359.431 339.936 359.488C262.706 365.639 229.32 412.77 219.93 484.904C218.37 496.881 216.29 507.212 217.307 519.536C217.365 520.241 217.428 520.945 217.496 521.649C226.071 520.442 238.31 518.379 246.665 517.95C237.398 489.038 238.517 457.125 252.568 429.906C266.073 403.584 289.544 383.755 317.752 374.838C335.934 369.058 358.662 368.211 377.23 372.912C409.922 382.821 432.528 397.997 449.058 428.749C462.806 454.494 465.725 484.657 457.168 512.559C455.144 519.203 452.568 524.98 449.738 531.271C460.239 532.702 471.042 534.572 481.406 535.905ZM395.065 244.146L412.538 248.788C443.843 255.712 472.683 261.091 504.892 261.797C504.692 234.891 501.991 210.877 501.287 183.994L500.355 183.809C481.872 187.03 401.961 200.201 393.766 211.84C389.066 218.514 392.844 234.04 394.366 241.485C394.55 242.382 394.801 243.269 395.065 244.146ZM1204.54 534.536C1212.61 532.194 1222.26 529.102 1230.41 528.023C1217.25 495.478 1214.34 470.499 1228.61 436.835C1239.87 409.806 1261.58 388.48 1288.81 377.71C1304.38 371.404 1315.86 369.892 1332.3 370.065C1392.9 371.229 1441.92 420.639 1441.25 481.839C1441.11 494.834 1438.16 507.732 1434.32 520.117C1445.21 521.315 1448.39 522.411 1457.51 528.521C1458.36 519.86 1458.19 511.115 1458.27 502.39C1458.61 465.609 1453.23 430.158 1429.05 400.818C1405.66 372.442 1357.77 352.737 1321.01 357.857C1244.61 367.304 1210.15 442.004 1205.74 510.277C1205.24 518.139 1205.75 526.872 1204.54 534.536ZM350.338 182.098C402.15 170.211 454.375 158.973 507.048 151.68C517.91 150.176 547.196 145.6 556.996 145.483C655.975 135.357 773.905 131.75 871.016 156.469C873.69 153.993 876.407 151.563 879.165 149.18C823.953 134.32 771.961 128.797 715.061 128.346C697.159 128.204 676.562 127.562 658.715 128.506C569.044 133.045 477.276 137.681 392.023 167.157C379.85 171.366 361.612 176.489 350.338 182.098ZM746.615 499.159L830.136 500.878C835.62 501.925 852.43 501.884 858.429 501.386L1072.99 504.804C1078.48 505.622 1097.69 506.189 1102.99 505.1C1104.17 501.115 1105.05 495.768 1105.85 491.583C1021.69 492.805 937.511 491.493 853.431 487.65C820.591 486.126 779.767 484.507 747.021 480.962L746.615 499.159ZM1205.76 489.849C1175.61 491.717 1138.5 491.347 1108.02 491.493C1106.99 495.813 1106.15 500.537 1105.3 504.924C1116.17 505.778 1134.69 505.357 1146.17 505.572C1152.34 506.073 1162.45 506.985 1168.38 506.149C1180.18 506.025 1191.99 506.045 1203.79 506.209C1204.54 500.768 1205.2 495.314 1205.76 489.849ZM389.278 218.921C390.102 214.045 391.39 209.255 395.932 206.743C409.069 199.477 429.887 196.264 444.394 192.933C543.406 170.746 644.854 161.352 746.257 164.98C772.336 165.737 808.858 167.175 833.751 171.815C888.161 181.957 956.715 217.67 1004.05 247.011C1007.64 246.338 1011.37 245.579 1014.95 244.983C950.294 206.627 882.253 170.565 806.425 161.482C771.916 157.348 718.678 157.373 682.402 158.575C593.37 161.492 502.492 169.097 416.189 192.235C403.326 195.683 382.746 199.594 373.592 209.536C369.284 214.216 368.352 220.551 368.682 226.677C368.967 231.963 370.586 239.191 374.55 242.924C382.509 250.415 470.39 265.34 485.707 266.736C527.761 270.569 570.784 270.351 613.022 271.713L680.263 273.906C695.476 274.458 712.701 275.453 727.707 275.176L728.558 274.475C726.267 270.823 709.996 271.149 705.022 270.903C688.063 270.142 671.1 269.47 654.134 268.887C621.093 267.604 588.046 266.492 554.995 265.55C508.313 264.005 464.24 263.505 418.48 252.255C389.515 245.134 391.947 249.427 389.278 218.921ZM509.598 182.215C507.602 182.506 504.563 182.634 503.333 184.079C502.724 192.017 506.31 259.359 508.473 261.928C508.776 262.288 509.041 262.516 509.445 262.754C512.07 262.327 513.527 262.567 515.191 260.955C515.22 252.602 514.299 185.589 512.543 182.045C511.37 181.979 510.735 181.856 509.598 182.215ZM478.417 475.452C490.322 475.577 502.226 475.801 514.127 476.126C494.867 449.404 493.732 436.645 461.409 423.652C470.138 441.184 474.896 456.209 478.417 475.452ZM873.792 157.355C877.762 158.652 898.605 166.566 900.555 165.879L909.017 159.291C904.037 157.453 885.617 150.44 881.565 150.088C878.887 152.455 876.212 154.722 873.792 157.355ZM1089.52 292.66C1086.34 288.582 1052.64 267.303 1047.46 264.857C1047.6 271.36 1047.35 274.597 1046.56 281.082C1055.38 281.754 1058.17 282.059 1061.68 290.99C1071.24 291.103 1079.98 291.865 1089.52 292.66ZM1001.2 247.727C954.039 219.684 888.231 184.448 835.061 174.15C804.282 168.188 754.901 166.923 722.974 166.681C729.01 186.26 735.304 205.758 741.854 225.172C746.728 239.674 752.675 255.998 756.893 270.515C761.372 270.749 766.479 271.142 770.906 271.222C765.89 256.943 736.372 192.19 741.599 181.427C743.457 177.601 747.054 175.459 750.978 174.197C760.035 171.283 770.955 172.659 780.299 173.502C827.169 177.735 868.57 192.968 911.567 211.202C939.78 224.164 967.538 238.939 995.231 251.415C997.171 250.237 999.336 248.985 1001.2 247.727ZM1124.11 263.557C1131.2 262.783 1138.87 261.98 1145.65 259.738L1148.01 257.695C1147.14 248.922 1104.91 245.123 1096.6 244.463C1109.35 250.543 1115.25 252.487 1124.11 263.557ZM901.756 167.836C922.979 177.327 944.003 187.254 964.817 197.61C1006.88 218.814 1048.24 241.308 1091.78 259.376C1099.94 262.76 1105.01 263.447 1113.56 263.968C1116.92 263.982 1117.03 264.514 1119.47 263.02C1119.2 255.373 1087.01 242.751 1079.49 238.784C1040.12 218.011 1000.57 197.27 959.509 179.986C944.829 173.808 926.121 164.912 910.98 160.319L901.756 167.836ZM728.775 272.065C730.157 273.512 731.909 275.494 733.914 275.645C743.458 276.365 753.386 276.823 762.913 277.248L823.935 279.71C877.976 281.908 934.626 285.195 988.485 286.432L990.406 286.472C990.259 283.685 990.746 282.46 989.178 280.932C980.204 279.82 962.463 279.754 952.488 279.429L881.779 277.054L782.169 273.518C766.189 272.974 744.396 271.63 728.775 272.065ZM356.075 371.881C353.388 370.803 349.229 371.515 346.347 371.892C287.287 374.603 241.209 423.996 242.598 483.105C243.988 542.213 292.336 589.386 351.459 589.319C410.581 589.252 458.822 541.968 460.077 482.857C461.332 423.746 415.141 374.458 356.075 371.881ZM1045.59 264.955C1039.68 259.68 1023.74 249.02 1016.2 247.096C991.828 248.769 987.764 265.306 993.498 286.136C995.4 288.086 997.336 290.207 999.513 291.823C1011.19 292.116 1022.88 291.902 1034.54 291.183C1038.22 291.189 1042.05 291.322 1045.72 291.219C1049.8 291.104 1057.43 292.928 1057.34 287.381C1053.65 282.2 1049.43 283.339 1043.45 283.385C1045.22 275.966 1046.05 272.53 1045.59 264.955ZM36.4533 414.921C35.6465 430.637 41.8254 435.042 34.9567 452.372C37.6782 461.021 46.426 494.466 52.9196 496.717C77.7116 505.313 114.905 510.509 140.714 515.201C165.699 519.743 190.106 524.506 214.304 528.671C216.244 526.139 215.479 524.019 215.024 520.391C168.589 509.013 109.52 502.435 66.1905 481.363C61.7582 479.207 59.1657 474.373 56.669 471.286C46.6074 458.841 48.7558 421.002 36.4533 414.921Z"/><path fill="#12CFF4" fill-opacity="0.95686275" d="M1326.97 395.903C1373.63 394.052 1412.97 430.322 1414.92 476.974C1416.87 523.626 1380.68 563.048 1334.03 565.091C1287.25 567.139 1247.69 530.822 1245.74 484.034C1243.79 437.247 1280.18 397.76 1326.97 395.903ZM1291.22 533.594C1303.86 542.155 1311.7 544.89 1327.02 546.246L1327.21 538.193L1328.92 539.455C1329.15 541.339 1329.11 542.51 1330.32 544.007C1334.22 541.847 1334.82 518.171 1332.68 513.981C1330.46 513.436 1331.3 513.321 1329.46 514.212C1328.87 516.78 1328.9 522.858 1328.84 525.785C1327.15 521.489 1328.24 518.985 1327.87 513.997C1321.66 512.687 1316.96 511.386 1311.19 508.624C1304.69 517.074 1298.03 525.399 1291.22 533.594ZM1295.28 424.742C1301.26 432.182 1303.86 436.184 1309.05 444.172L1313.68 451.601C1319.94 448.522 1323.51 447.23 1330.51 446.301C1330.58 438.605 1331.29 422.209 1330.58 415.234C1328.89 414.36 1327.87 414.63 1326.01 414.817C1314.89 416.104 1304.96 418.899 1295.28 424.742ZM1351.23 507.291C1357.3 515.998 1363.6 524.629 1368.89 533.838C1371.44 531.797 1374.12 529.824 1376.39 527.472C1382.76 520.866 1387.99 513.248 1391.87 504.93C1381.11 501.707 1370.67 497.39 1360.21 493.313C1358.17 499.376 1355.98 502.984 1351.23 507.291ZM1353.2 455.648C1357.05 459.709 1359.77 464.76 1362.57 469.621L1371.03 467.009L1393.43 460.624C1389.29 451.277 1382.29 435.283 1372.45 430.855C1366.45 439.037 1360.01 448.276 1353.2 455.648ZM1266.47 496.53C1273.82 494.426 1281.53 492.349 1288.76 489.959C1292.67 488.86 1293.59 489.252 1296.17 486.582C1297.51 482.677 1296.93 476.138 1297.6 470.829C1286.83 467.43 1277.93 463.254 1267.77 459.709C1264.59 475.207 1264.05 480.745 1266.47 496.53ZM1319.76 562.526C1322.23 562.711 1323.37 563.289 1325.36 561.716C1327.29 558.017 1326.88 552.738 1327 548.602C1313 546.744 1301.83 543.37 1289.96 535.432C1287.01 539.336 1284.03 543.19 1280.88 546.935C1293.34 555.343 1304.87 560.223 1319.76 562.526ZM1260.39 498.44L1263.63 496.896C1264.19 494.487 1263.21 486.794 1263.04 483.757C1262.64 475.334 1263.63 466.903 1265.98 458.805C1261.45 456.99 1257.51 455.404 1253.13 453.245C1247.3 467.005 1246.38 487.493 1250.4 501.81C1253.07 500.895 1257.84 499.102 1260.39 498.44ZM1285.78 410.855C1286.9 412.256 1294.25 422.102 1294.83 422.421C1308.49 415.399 1315.59 412.833 1331.28 412.582L1331.46 397.882C1330.03 397.915 1324.22 397.957 1323.17 398.204C1308.58 399.985 1298.37 403.011 1285.78 410.855ZM1322.98 483.346L1320.96 483.882C1320.58 483.319 1319.62 481.609 1319.21 481.661C1312.24 482.554 1307.33 487.013 1299.41 489.024C1301.51 493.398 1305.78 503.483 1311.1 504.273C1312.6 502.682 1326.2 489.674 1325.92 490.348L1325.82 490.144L1326.65 488.269C1331.55 489.301 1333.6 488.094 1337.98 486.008L1339.65 476.049C1337.15 474.523 1331.85 472.229 1329.02 470.918C1323.93 475.467 1321.4 476.354 1322.98 483.346ZM1267.83 456.933C1267.78 455.898 1267.91 453.818 1267.33 453.321C1264.01 450.455 1258.24 449.889 1254.06 448.309C1254.02 450.149 1253.61 450.958 1254.64 452.042C1257 454.552 1264.45 456.537 1267.83 456.933ZM1364.84 536.805C1366.14 533.887 1365.82 532.772 1364.64 529.724C1363.24 526.079 1352.1 509.569 1348.68 508.249C1348.51 508.182 1348.33 508.131 1348.15 508.072L1346.17 510.334C1347.02 516.322 1356.78 530.933 1361.52 534.54C1362.58 535.355 1363.69 536.112 1364.84 536.805ZM1333.49 546.337C1340.35 545.563 1346.83 544.3 1353.34 541.976C1356.75 540.535 1360.23 539.167 1363.6 537.628C1356.41 533.376 1351.55 523.476 1347.01 516.539C1346.29 515.44 1345.1 512.983 1344.19 512.231C1343.5 511.659 1342.56 511.646 1341.75 511.775C1339.79 512.501 1337.56 512.919 1336.23 514.561C1335.2 525.165 1335.57 535.858 1333.49 546.337ZM1372.58 427.439C1375.42 424.426 1379.64 420.62 1380.09 416.495C1378.99 415.052 1379.54 415.365 1377.98 414.802C1375.29 417.853 1371.98 421.066 1370.66 424.823L1370.84 426.209L1372.58 427.439ZM1290.15 531.853C1296.79 524.162 1303.98 516.117 1309.35 507.492C1308.28 505.956 1307.63 505.827 1305.94 505.154C1299.23 512.498 1291.07 520.448 1287.35 529.771L1287.52 531.223L1289.28 532.243L1290.15 531.853ZM1279.96 415.032C1269.23 425.078 1261.02 432.782 1255.21 446.803L1266.22 450.394L1268.25 450.659C1274.07 445.282 1277.5 436.054 1288.26 427.392C1285.26 423.226 1282.52 419.519 1279.96 415.032ZM1365.56 476.031C1370.42 474.663 1392.08 469.162 1394.27 465.443C1393.73 463.799 1394.01 463.672 1392.9 462.935C1386.19 464.668 1369.1 468.495 1364.44 472.132C1364.27 473.614 1364.01 475.028 1365.56 476.031ZM1331.07 563.184L1332.31 563.305C1346.76 563.058 1360.03 557.975 1372.79 551.771C1368.8 547.253 1367.03 544.668 1363.93 539.541C1351.91 545.866 1345.5 545.389 1333.8 548.611L1332.39 549.032L1330.7 548.706C1327.64 551.386 1328.14 558.629 1328.83 562.347C1329.83 562.988 1329.85 563.108 1331.07 563.184ZM1269.74 502.217C1276.34 500.598 1294.09 497.505 1298.11 492.903C1297.68 491.561 1297.6 490.762 1296.49 489.807C1289.35 491.829 1272.54 495.119 1267.47 499.444C1267.54 500.389 1268.02 501.016 1268.49 501.824L1269.74 502.217ZM1271.22 454.164L1269.19 457.28C1270.62 459.133 1295.16 468.116 1298.63 468.591L1299.94 464.793C1291.68 460.678 1280.17 457.186 1271.22 454.164ZM1335.78 447.969C1337.55 442.194 1337.33 421.526 1336.68 415.091C1335.44 414.665 1334.37 414.279 1333.08 413.971C1332.25 419.816 1331.52 441.086 1333.01 446.362C1334.18 447.2 1334.45 447.433 1335.78 447.969ZM1368.42 427.562C1362.87 433.18 1352.33 444.173 1349.85 451.354C1350.23 453.341 1349.8 452.612 1351.71 454.013C1355.93 449.392 1368.98 434.423 1370.3 428.934C1369.67 428.33 1369.24 427.767 1368.42 427.562ZM1310.88 453.778C1310.98 448.782 1296.79 427.345 1291.88 426.04C1291.91 431.618 1303.2 447.937 1307.43 452.664C1308.62 453.986 1309.03 453.661 1310.88 453.778ZM1365.83 537.866C1366.65 541.503 1370.57 548.295 1373.86 550.227C1374.78 550.774 1375.67 550.409 1376.67 550.244C1376.8 547.077 1373.56 543.735 1371.42 541.4C1369.7 539.536 1368.52 538.115 1365.83 537.866ZM1317.31 502.292C1315.82 504.094 1314.3 505.181 1314.36 507.596C1316.27 510.302 1322.35 511.086 1325.52 511.932L1327.25 511.299C1327.6 508.173 1327.64 506.433 1325.67 503.911C1323.04 502.768 1320.12 502.614 1317.31 502.292ZM1279.73 545.363C1282.46 542.285 1285.9 539.077 1287.21 535.127L1287.05 533.603L1285.04 532.026C1282.98 534.656 1277.72 540.13 1277.98 543.639C1278 543.923 1278.03 544.016 1278.09 544.27C1278.58 544.62 1279.17 545.164 1279.73 545.363ZM1326.77 448.598C1322.06 449.962 1319.37 450.858 1314.87 452.781L1320.22 457.838C1324.2 456.049 1327.07 455.063 1330.08 451.874L1330.84 449.763C1329.2 448.163 1329.69 448.644 1326.77 448.598ZM1306.5 456.105C1304.12 452.454 1290.63 430.144 1289.06 429.199C1281.46 436.182 1275.76 442.549 1271.16 451.966C1276.42 453.827 1286.35 457.028 1291.13 459.147L1301.63 462.967L1306.5 456.105ZM1292.35 424.978C1292.18 420.377 1287.29 413.601 1282.61 412.585C1283.3 416.818 1286.91 426.248 1292.35 424.978ZM1333.36 397.14C1333.36 400.815 1333 409.327 1334.14 412.433C1335.48 412.947 1335.58 413.056 1336.95 412.805C1337.05 408.416 1337.82 402.476 1336.94 398.668C1335.41 397.68 1335.12 397.599 1333.36 397.14ZM1351.82 491.398C1349.89 495.569 1347.03 499.832 1348.59 504.426C1350.15 505.126 1350.15 505.2 1351.75 504.651C1353.95 501.996 1357.2 498.509 1356.9 494.875C1356.84 494.135 1356.22 493.385 1355.84 492.748L1351.82 491.398ZM1393.92 497.438C1394.88 492.153 1397.85 472.933 1394.99 468.971C1394.88 468.814 1394.75 468.667 1394.63 468.514C1387.71 470.715 1368.24 474.629 1364.99 480.825C1364.41 481.932 1364.68 482.846 1364.79 484.045C1366.86 487.426 1370.42 488.445 1373.96 489.741L1393.92 497.438ZM1253.17 506.497C1256.92 505.504 1261.95 504.709 1265.08 502.423C1265.28 500.808 1264.94 500.664 1264 499.297C1260.04 500.452 1255.27 501.375 1251.78 503.57L1251.4 505.018C1251.96 505.55 1252.47 506.156 1253.17 506.497ZM1340.15 398.537C1339.64 403.089 1337.21 409.969 1338.92 413.078C1342.7 414.014 1346.61 414.818 1350.37 415.77C1355.27 417.011 1365.13 424.494 1369.5 422.733L1371.13 420.358C1373.11 417.764 1375.01 415.146 1377.32 412.826C1365.35 404.252 1354.64 400.933 1340.15 398.537ZM1351.83 457.806L1347.42 464.803C1349.54 466.487 1355.24 471.34 1357.41 472.004L1359.45 470.308C1359.2 466.611 1355.06 459.66 1351.83 457.806ZM1306.47 484.159L1307.73 483.05C1307.64 482.976 1307.54 482.907 1307.45 482.827C1303.1 478.939 1308.61 474.164 1300.06 471.575C1299.35 475.388 1297.91 480.238 1298.58 484.054C1299.21 484.895 1299.64 485.88 1300.73 486.062C1302.46 486.352 1304.9 484.894 1306.47 484.159ZM1339.35 473.82L1342.34 468.253L1350.62 455.923C1344.31 452.349 1340.22 449.677 1332.99 449.132C1332.03 454.485 1330.78 462.893 1329.31 467.889C1332.64 469.923 1335.91 471.975 1339.35 473.82ZM1359.99 472.656L1342.88 474.852C1342 478.253 1340.5 482.172 1341.35 485.664C1342.78 487.439 1343.47 487.688 1345.74 488.026C1346.12 488.082 1346.18 488.075 1346.51 488.082C1350.65 488.976 1354.54 490.207 1358.53 491.629C1360.87 486.657 1363.4 479.942 1361.4 474.446C1361.05 473.485 1360.96 473.086 1359.99 472.656ZM1339.18 487.477C1335.25 488.855 1331.33 490.285 1327.43 491.767C1328.33 496.748 1328.27 508.189 1331.96 511.617C1333.36 511.687 1334.82 511.857 1336.21 511.758C1340.46 510.633 1344.15 508.983 1348.07 507.021C1345.44 502.525 1343.05 497.965 1341.15 493.104C1340.63 491.769 1340.04 488.295 1339.18 487.477ZM1282.19 525.553L1284.46 527.837L1285.65 527.733C1291.65 519.483 1297.79 510.267 1305.23 503.246C1303.57 501.001 1301.46 497.158 1298.89 496.008L1297.72 495.961C1288.28 499.226 1278.65 502.204 1268.87 504.288C1272.56 512.07 1276.81 518.838 1282.19 525.553ZM1363.17 486.83L1361.46 491.594C1370.1 496.811 1382.83 500.977 1392.61 503.459C1392.78 502.845 1393.53 500.925 1393.25 500.451C1390.4 495.65 1369.37 490.053 1363.17 486.83ZM1397.6 467.997C1398.96 479.544 1397.89 487.072 1396.2 498.464L1401.15 500.562L1409.69 504.187C1411.33 496.441 1415.94 469 1410.31 463.662L1397.6 467.997ZM1409.49 456.217C1403.23 440.474 1396.59 427.844 1382.9 416.972C1379.72 421.526 1377.2 424.635 1373.58 428.876C1385.82 437.95 1389.02 446.741 1395.92 459.904C1396.8 459.781 1397.69 459.658 1398.57 459.535C1398.83 459.489 1399.1 459.442 1399.36 459.396L1409.49 456.217ZM1311.8 453.673C1307.2 457.897 1303.23 464.052 1300.42 469.606C1307.24 472.17 1311.3 473.957 1317.49 477.886C1320.75 477.304 1324.51 471.915 1326.73 469.115C1322.98 465.544 1314.68 454.956 1311.8 453.673ZM1283.33 531.002C1280.21 526.825 1267.4 506.11 1266.17 504.94C1261.7 506.078 1257.21 507.399 1252.69 508.33C1257.46 520.84 1264.59 530.613 1273.47 540.471L1275.52 541.39C1278.69 539.109 1281.1 534.282 1283.33 531.002ZM1393.91 505.929C1387.25 517.446 1380.53 528.306 1369.27 535.942C1372.04 539.707 1374.72 543.899 1378.33 546.896C1379.64 546.862 1379.77 546.836 1380.82 546.049C1391.39 535.985 1402.76 524.208 1407.27 509.955C1402.68 508.855 1398.28 507.712 1393.91 505.929ZM1339.2 415C1339.38 426.848 1339.62 435.453 1338.14 447.24C1341.12 448.481 1344.24 449.833 1347.24 451.008L1355.35 439.025C1359.2 433.904 1362.75 430.41 1367.21 425.888C1357.55 420.44 1350.25 417.025 1339.2 415Z"/><path fill="#0A1B33" fill-opacity="0.011764706" d="M1331.07 563.184C1329.85 563.108 1329.83 562.988 1328.83 562.347C1328.14 558.629 1327.64 551.386 1330.7 548.706L1332.39 549.032C1332.13 554.318 1331.93 557.984 1331.07 563.184Z"/><path fill="#B7F7FF" fill-opacity="0.89019608" d="M1327.87 513.997C1328.24 518.985 1327.15 521.489 1328.84 525.785C1328.94 530.3 1329.1 534.956 1328.92 539.455L1327.21 538.193C1327.21 532.096 1326.93 519.487 1327.87 513.997Z"/><path fill="#B7F7FF" fill-opacity="0.85882354" d="M1332.39 549.032L1333.8 548.611C1333.76 552.348 1334.13 560.463 1332.31 563.305L1331.07 563.184C1331.93 557.984 1332.13 554.318 1332.39 549.032Z"/><path fill="#167C9B" fill-opacity="0.89411765" d="M1322.98 483.346C1324.42 485.068 1325.38 486.417 1326.65 488.269L1325.82 490.144C1324.27 488.592 1322.31 485.736 1320.96 483.882L1322.98 483.346Z"/><path fill="#12CFF4" fill-opacity="0.95686275" d="M303.783 550.701C265.428 524.768 255.037 472.822 280.465 434.129C305.894 395.436 357.698 384.367 396.718 409.289C435.739 434.211 447.484 485.867 423.075 525.212C398.666 564.556 347.17 576.975 307.511 553.082L307.135 550.862C321.821 559.234 330.178 561.374 346.513 563.41C346.866 558.25 347.105 553.082 347.229 547.911C332.556 546.69 323.712 543.215 311.282 535.202C308.9 538.006 303.268 544.015 302.444 547.27L304.039 548.897L303.783 550.701ZM312.915 533.816C319.132 538.18 325.326 541.283 332.471 543.83C337.31 544.766 342.196 545.882 347.125 546.162C347.478 535.295 348.129 524.401 348.037 513.529C342.486 512.345 337.148 511.249 332.027 508.682L312.915 533.816ZM373.926 455.707C378.69 460.3 380.611 463.598 383.259 469.663L392.559 467.055C399.891 465.073 407.192 462.978 414.46 460.772C408.855 448.379 404.314 438.656 393.116 430.142C388.486 437.836 379.954 448.843 373.926 455.707ZM316.698 424.424L330.562 445.172L334.918 451.31C341.028 448.448 343.595 446.856 350.427 446.857C350.591 436.965 351.229 424.302 352.31 414.47C350.566 414.546 346.623 414.596 345.075 414.806C332.734 416.301 327.685 418.43 316.698 424.424ZM287.024 496.67C294.422 494.607 301.774 492.386 309.076 490.009L317.924 487.742C317.742 481.066 317.778 477.46 318.839 470.85C308.97 467.17 298.279 463.394 288.631 459.328C285.602 475.322 285.31 480.43 287.024 496.67ZM371.785 507.301C374.198 510.503 388.424 532.829 390.223 533.487C392.805 532.594 394.372 530.749 396.199 528.822C402.641 521.557 408.507 514.289 412.126 505.158C402.118 501.545 392.17 497.768 382.286 493.828C379.393 499.218 376.448 503.317 371.785 507.301ZM284.602 499.258C281.367 500.233 274.833 501.294 272.695 503.787C273.009 504.761 273.212 505.725 273.961 506.464C277.699 505.628 282.777 505.036 285.906 502.825C286.117 501.107 285.846 500.669 284.73 499.356C284.695 499.315 284.645 499.291 284.602 499.258ZM368.811 507.15C365.568 501.335 362.137 494.743 360.073 488.409L358.766 487.99C355.279 489.376 351.789 490.874 348.244 492.102C349.068 496.994 348.626 508.632 352.741 511.564C354.791 511.853 356.472 511.805 358.519 511.503C361.94 510.069 365.457 508.729 368.811 507.15ZM349.201 468.775C352.673 470.214 358.07 473.059 361.423 471.824L362.578 470.096C365.219 464.787 367.414 460.491 370.49 455.366C364.104 451.83 360.621 449.506 353.334 449.111C352.567 456.87 351.915 461.426 349.201 468.775ZM396.101 490.006C402.373 492.577 408.709 495.51 415.122 497.674C416.58 490.473 419.409 476.042 416.898 469.186L416.024 468.379C412.519 469.506 386.509 477.368 385.408 478.79L384.669 485.142C388.294 486.702 392.468 488.62 396.101 490.006ZM363.675 475.203C362.801 478.441 361.094 482.547 362.142 485.839C363.769 487.569 364.948 487.525 367.227 488.052C371.767 489.218 376.363 490.292 380.846 491.66C381.939 484.962 383.124 479.566 380.9 472.996L380.388 472.59C374.852 473.435 369.144 474.037 363.675 475.203ZM388.499 423.9C391.607 419.723 394.428 414.865 399.277 413.292C396.864 417.095 392.063 420.639 391.264 425.002L393.014 427.153C396.993 423.016 403.199 418.772 399.277 413.292C381.252 404.498 382.621 401.853 360.14 398.263C360.515 401.475 360.465 406.941 360.521 410.354L360.391 411.567C361.328 413.792 370.038 415.407 372.844 416.408C378.679 418.489 383.17 420.895 388.499 423.9ZM384.939 487.11C384.33 488.8 383.112 490.857 383.8 492.514C392.612 496.814 402.875 500.978 412.412 503.211L414.054 499.485C404.852 494.562 394.604 491.065 384.939 487.11ZM291.333 502.192C297.779 500.577 315.764 497.218 319.677 492.628C319.653 490.989 319.57 490.977 318.461 489.752L316.844 489.719C310.077 491.692 292.857 495.309 288.391 499.686L288.526 501.373C289.659 501.954 290.038 502.266 291.333 502.192ZM360.029 475.996C356.598 474.132 353.288 472.216 349.495 471.184C346.188 473.79 344.447 475.467 343.885 479.819C343.579 482.19 343.67 484.961 345.214 486.932C346.145 488.121 347.697 489.286 349.208 489.434C350.508 489.562 352.315 488.663 353.527 488.197C355.799 487.136 358.389 486.428 359.299 483.815C360.092 481.538 359.942 478.421 360.029 475.996ZM311.022 532.564C316.742 525.595 326.633 515.961 329.211 507.468C328.569 505.965 328.196 505.708 326.882 504.699C321.207 511.532 311.477 520.871 308.93 529.26C309.283 531.095 309.704 531.339 311.022 532.564ZM325.388 502.874C324.286 501.001 322.052 496.2 320.263 495.271C310.046 498.635 299.861 501.739 289.419 504.325C292.675 510.654 296.336 516.225 300.343 522.092C302.378 524.278 304.368 526.544 306.485 528.648C312.382 519.75 318.893 511.336 325.388 502.874ZM385.653 475.999C391.139 474.539 412.742 468.717 415.714 465.385L415.671 463.922C415.37 463.726 414.277 462.969 414.023 462.911C407.642 464.593 388.525 468.995 384.397 472.503C384.352 474.204 384.234 474.47 385.019 475.905L385.653 475.999ZM331.237 454.913L332.738 453.052C331.832 448.938 318.343 429.513 315.035 426.491L312.508 426.216C311.937 429.805 326.716 453.991 331.237 454.913ZM354.432 397.127C354.3 401.967 353.644 407.922 354.991 412.369C356.377 413.152 356.661 413.275 358.202 413.669C358.394 408.043 360.222 399.384 354.432 397.127ZM346.724 491.704C344.93 489.752 341.238 481.939 339.39 481.658C338.959 481.593 338.758 481.651 338.36 481.715C332.513 484.433 326.83 486.867 320.656 488.788C323.319 495.184 325.915 501.1 331.497 505.51C336.272 500.789 341.315 495.688 346.724 491.704ZM359.584 447.813L367.126 450.783C373.821 442.434 380.434 434.02 386.966 425.542C382.143 422.741 367.125 413.407 360.314 416.307C359.862 416.499 359.259 419.317 359.044 420.099L357.68 413.56C357.15 413.722 355.247 414.16 355.089 414.567C352.499 421.221 350.037 440.348 354.042 446.694L355.694 447.351C357.899 446.048 357.238 446.476 358.271 443.55C359.53 445.14 359.219 445.513 359.584 447.813ZM345.846 448.565L335.326 453.347C338.769 457.001 343.228 461.152 347.3 464.092L348.072 464.035L349.685 458.511L348.99 457.266C346.81 457.258 344.631 457.212 342.452 457.126C344.401 454.087 349.467 458.065 350.826 451.364L349.441 449.021C347.829 448.641 347.481 448.501 345.846 448.565ZM300.592 545.358C303.663 541.985 307.602 538.396 309.131 534.05C308.601 532.55 307.967 532.19 306.767 531.206C303.858 534.892 298.396 539.262 298.518 544.171C299.223 544.717 299.684 545.297 300.592 545.358ZM383.561 538.628C379.263 533.395 375.306 527.248 371.495 521.605L372.691 519.904C376.941 526.483 380.201 532.187 386.443 537.085L387.719 536.586C387.377 530.889 375.864 514.929 371.403 510.46C369.936 508.991 369.094 509.213 367.486 509.937C367.35 512.032 369.155 514.486 370.29 516.399L368.567 517.36L364.607 511.262L356.004 514.196C356.48 524.914 356.191 535.651 355.138 546.327C366.547 544.652 372.614 543.259 383.561 538.628ZM321.294 471.742C320.539 476.271 318.694 481.532 321.293 485.575C324.092 486.211 326.047 485.194 328.682 484.148C328.013 481.655 325.116 480.747 325.175 478.138C325.23 475.739 327.453 475.943 325.54 473.475L321.294 471.742ZM429.567 458.129C426 459.126 419.115 460.454 417.205 463.316C417.435 463.849 418.064 465.453 418.384 465.789C421.793 464.852 427.915 463.473 430.565 461.577C430.836 459.376 431.013 460.284 429.567 458.129ZM320.587 468.469L320.886 464.696C317.445 461.807 294.863 454.473 289.867 454.767C290.393 455.95 291.341 457.712 292.486 458.265C297.534 460.702 315.949 468.979 320.587 468.469ZM322.17 462.498L328.138 456.186C324.898 452.241 311.238 430.041 309.577 429.336C301.911 436.206 296.719 443.312 291.655 452.286C299.407 454.746 307.008 457.106 314.632 459.951L322.17 462.498ZM303.373 412.823C302.865 415.703 308.527 426.058 313.085 424.954C314.089 420.806 307.073 413.576 303.373 412.823ZM346.781 511.766L348.045 511.354C348.069 509.056 348.191 507.175 346.991 505.142C344.413 502.929 340.617 503.588 337.62 502.068C336.164 503.942 334.787 504.854 335.086 507.308C337.13 509.966 343.486 510.827 346.781 511.766ZM333.602 454.762C328.034 459.322 323.559 462.34 322.09 469.632C329.082 472.736 332.725 474.066 338.8 478.974C341.8 478.144 343.948 472.92 348.127 469.428C343.683 465.045 337.59 459.365 333.602 454.762ZM352.828 397.573C350.059 397.672 344.839 397.707 342.288 398.152C328.328 400.352 318.524 403.547 306.424 411.203C310.198 415.142 312.406 417.771 315.734 422.101L317.573 421.702C330.184 414.775 338.253 412.945 352.718 412.729L352.828 397.573ZM354.272 563.325C357.685 563.004 361.11 562.741 364.489 562.15C374.263 560.089 384.73 557.225 393.317 551.955C390.405 548.233 387.494 543.634 384.121 540.382C374.576 544.243 365.776 546.886 355.573 548.392L354.272 563.325ZM352.666 564.212C352.784 559.26 353.592 553.742 352.476 548.923C351.418 547.958 350.634 547.79 349.244 547.532C348.723 552.086 347.272 557.447 348.424 561.881C349.773 563.545 350.658 563.578 352.666 564.212ZM430.571 503.831C433.682 490.554 435.212 477.629 431.785 464.261L431.178 463.687L418.662 467.594C420.087 478.029 419.046 488.168 417.115 498.441L422.81 500.718L430.571 503.831ZM388.6 427.005C385.017 431.343 370.85 447.864 369.535 451.894C370.619 453.099 370.933 453.555 372.333 454.419C376.885 448.753 388.74 435.138 390.455 429.105C389.814 427.385 390.289 427.956 388.6 427.005ZM349.831 513.594C349.738 518.906 347.815 542.888 350.078 546.074L352.773 546.406C353.203 541.015 356.024 518.02 353.615 514.326L349.831 513.594ZM420.521 459.295L430.24 455.89C424.487 441.315 416.939 425.87 403.665 416.812C400.788 421.642 398.78 424.122 394.88 428.249C409.749 442.301 407.378 444.945 416.594 459.997C417.869 459.788 419.276 459.592 420.521 459.295ZM300.264 415.847C290.412 424.179 281.083 434.665 275.614 446.464L286.888 450.647L289.934 451.156C294.687 442.703 301.27 432.863 308.874 426.699C307.405 424.689 301.958 416.776 300.264 415.847ZM284.534 505.651L273.688 508.274C278.443 520.74 285.916 534.077 296.71 542.338C298.337 537.832 302.319 534.066 305.454 530.513C300.242 525.349 296.326 519.897 292.346 513.781C291.185 511.998 288.665 506.811 287.154 505.807C286.927 505.656 285.843 505.485 285.56 505.486C285.113 505.487 284.935 505.551 284.534 505.651ZM402.632 545.296C413.52 535.399 422.225 523.782 428.344 510.369C423.489 508.88 418.666 507.373 413.903 505.608C409.348 518.016 401.101 527.556 391.11 535.995C391.196 536.097 391.283 536.197 391.367 536.301C394.195 539.767 395.653 545.043 399.741 547C400.72 546.477 401.764 545.991 402.632 545.296ZM272.801 453.667C268.523 469.101 267.086 486.127 271.472 501.725L282.238 498.278L284.595 497.057C284.968 493.161 284.319 486.66 284.206 482.477C283.959 473.26 284.828 467.364 286.911 458.535C282.239 456.984 277.373 455.448 272.801 453.667Z"/><path fill="#B7F7FF" fill-opacity="0.69411767" d="M357.68 413.56L359.044 420.099C358.582 428.358 360.327 442.18 359.584 447.813C359.219 445.513 359.53 445.14 358.271 443.55C356.569 438.274 357.471 419.52 357.68 413.56Z"/><path fill="#167C9B" fill-opacity="0.84313726" d="M370.29 516.399L372.691 519.904L371.495 521.605L368.567 517.36L370.29 516.399Z"/><path fill="#167C9B" fill-opacity="0.74901962" d="M304.039 548.897C304.804 549.339 306.638 550.293 307.135 550.862L307.511 553.082C306.248 552.321 305.005 551.527 303.783 550.701L304.039 548.897Z"/><path fill="#0F3B52" fill-opacity="0.52156866" d="M575.534 535.42C581.583 534.551 605.507 534.756 612.134 534.833C632.684 535.072 654.878 534.137 675.16 534.956C668.125 536.023 637.839 535.89 629.488 535.658C613.958 535.226 590.413 536.507 575.534 535.42Z"/><path fill="#167C9B" fill-opacity="0.627451" d="M1072.99 504.804C1080.26 504.675 1096.28 504.343 1102.99 505.1C1097.69 506.189 1078.48 505.622 1072.99 504.804Z"/><path fill="#167C9B" fill-opacity="0.60000002" d="M830.136 500.878C836.65 500.753 852.273 500.5 858.429 501.386C852.43 501.884 835.62 501.925 830.136 500.878Z"/><path fill="#B7F7FF" fill-opacity="0.63529414" d="M878.66 503.209C884.178 502.953 900.951 502.764 906.133 503.738C898.226 503.998 886.39 504.237 878.66 503.209Z"/><path fill="#B7F7FF" fill-opacity="0.48235294" d="M699.405 265.014C699.556 260.412 699.502 257.889 700.739 253.452L700.863 268.028L698.971 268.123L699.405 265.014Z"/><path fill="#0F3B52" fill-opacity="0.65882355" d="M934.708 504.024C938.12 503.888 950.847 503.016 952.971 504.503C949.299 505.092 938.41 504.47 934.708 504.024Z"/><path fill="#B7F7FF" fill-opacity="0.81960785" d="M1146.17 505.572C1152.15 505.469 1162.6 505.27 1168.38 506.149C1162.45 506.985 1152.34 506.073 1146.17 505.572Z"/><path fill="#12CFF4" fill-opacity="0.61176473" d="M346.347 371.892C349.229 371.515 353.388 370.803 356.075 371.881C352.834 371.74 349.588 371.743 346.347 371.892Z"/><path fill="#12CFF4" fill-opacity="0.98431373" d="M431.676 310.574C430.382 308.027 430.173 307.661 430.452 304.844C438.604 286.646 512.574 294.34 508.027 314.706C498.042 327.77 460.434 324.393 446.539 318.571C447.875 317.424 448.262 317.491 450.051 317.426C456.404 320.881 485.126 323.468 491.096 319.401L491.222 318.417C483.892 312.365 470.48 313.752 461.305 314.27L460.145 312.853C466.012 311.374 479.088 311.907 485.18 313.049C490.244 313.998 498.558 318.579 502.216 313.504L501.534 311.823C491.499 303.059 445.511 297.467 435.483 308.563L433.899 308.672C432.997 307.682 433.019 307.61 432.84 306.237L432.965 308.527C431.746 309.344 432.131 308.9 431.676 310.574ZM505.76 309.194C504.625 308.263 503.454 307.377 502.25 306.536C488.998 297.314 467.146 294.758 451.58 297.591C444.926 297.72 439.97 300.093 433.906 302.643C440.736 302.478 447.673 300.652 454.676 300.15C472.065 299.448 489.41 304.141 505.76 309.194Z"/><path fill="#0A1B33" fill-opacity="0.019607844" d="M433.906 302.643C439.97 300.093 444.926 297.72 451.58 297.591C452.648 298.915 453.059 299.749 454.676 300.15C447.673 300.652 440.736 302.478 433.906 302.643Z"/><path fill="#B7F7FF" d="M431.676 310.574C432.131 308.9 431.746 309.344 432.965 308.527L432.84 306.237C433.019 307.61 432.997 307.682 433.899 308.672L435.483 308.563C442.636 314.168 450.978 313.976 459.862 312.89L460.145 312.853L461.305 314.27C457.603 315.585 453.951 317.112 450.051 317.426C448.262 317.491 447.875 317.424 446.539 318.571C441.439 317.37 435.905 313.494 431.676 310.574Z"/><path fill="#12CFF4" d="M762.631 312.791C756.998 301.303 774.822 298.748 782.306 297.884C797.225 296.16 811.964 297.905 826.083 302.925L824.738 304.064C810.19 300.019 779.209 295.384 766.144 305.409L765.997 306.682C781.629 300.416 805.942 303.272 822.405 307.31C825.198 307.995 833.183 312.169 835.024 310.751L834.633 309.928L835.354 308.024C846.378 319.013 830.83 323.019 822.114 324.896L822.241 322.702C819.491 317.186 812.573 316.785 807.123 316.168L807.398 315.258L814.204 314.771C822.152 314.712 824.979 321.717 832.969 316.993L833.21 315.781C827.338 305.75 776.993 301.517 767.152 309.689C763.913 310.806 767.891 310.989 762.631 312.791Z"/><path fill="#B7F7FF" d="M762.631 312.791C767.891 310.989 763.913 310.806 767.152 309.689C772.301 317.063 777.77 316.582 786.153 316.36L786.293 318.366C784.51 318.88 781.978 319.529 780.342 320.251L779.882 322.525C773.511 320.943 767.354 317.328 762.631 312.791Z"/><path fill="#12CFF4" fill-opacity="0.98823529" d="M780.342 320.251C790.635 324.214 811.803 325.993 822.241 322.702L822.114 324.896C809.77 327.67 791.984 326.025 779.882 322.525L780.342 320.251Z"/><path fill="#12CFF4" fill-opacity="0.95294118" d="M786.153 316.36C793.758 314.231 806.439 313.401 814.204 314.771L807.398 315.258L807.123 316.168C799.795 316.278 793.42 316.23 786.293 318.366L786.153 316.36Z"/><path fill="#167C9B" fill-opacity="0.91764706" d="M826.083 302.925C829.755 304.594 832.12 305.528 835.354 308.024L834.633 309.928C830.836 306.782 829.25 306.131 824.738 304.064L826.083 302.925Z"/><path fill="#06111F" fill-opacity="0.0078431377" d="M1131.21 246.497C1248.16 257.598 1366.08 260.507 1477.14 301.208C1507.41 312.301 1540.24 324.157 1562.78 348.308C1564.99 351.309 1565.83 352.405 1565.87 356.226C1565.56 356.205 1565.25 356.184 1564.95 356.162C1556.47 355.205 1548.19 351.291 1539.86 349.476C1525 346.24 1509.93 344.914 1495.1 341.63C1477.8 336.283 1466.63 331.439 1448.47 326.989C1374.56 311.378 1299.36 304.397 1224.14 298.601C1204.66 297.1 1185.45 296.132 1165.99 294.064C1139.09 290.076 1140.33 278.727 1123.4 265.625C1130.97 264.857 1144.71 263.864 1150.48 259.03C1153.51 251.552 1136.41 248.505 1131.21 246.497Z"/><path fill="#12CFF4" fill-opacity="0.97647059" d="M1448.47 326.989C1466.63 331.439 1477.8 336.283 1495.1 341.63C1509.93 344.914 1525 346.24 1539.86 349.476C1548.19 351.291 1556.47 355.205 1564.95 356.162C1565.25 356.184 1565.56 356.205 1565.87 356.226C1564.98 356.672 1563.82 357.082 1563.41 357.917C1561.63 357.804 1560.82 357.881 1559.2 357.089L1557.95 357.762C1556.81 364.479 1561.3 376.36 1555.3 380.712C1546.61 387.01 1528.11 383.606 1518 381.891C1489.03 376.978 1461.22 364.102 1434.13 352.943C1430.57 356.789 1425.75 361.968 1421.47 365.035L1420.16 364.071C1427.32 357.551 1432.47 350.407 1437.01 345.569C1444.44 337.642 1477.2 340.068 1488.51 340.801C1473.04 335.728 1460.27 332.547 1444.51 328.88C1445.36 328.303 1447.43 327.452 1448.47 326.989ZM1534.38 381.824C1557.62 382.95 1559.36 378.4 1555 355.818C1530.78 348.79 1484.56 340.11 1459.9 342.074C1452.55 342.4 1442.1 343.189 1436.06 347.976L1435.21 349.647C1436.33 352.931 1456 359.328 1460.77 361.434C1485.42 372.335 1507.45 379.617 1534.38 381.824Z"/><path fill="#12CFF4" fill-opacity="0.95294118" d="M1121.77 367.446C1136.9 369.377 1152.05 371.096 1167.22 372.602C1175.54 373.487 1189.09 374.53 1196.56 376.701C1191.97 395.575 1136.11 473.012 1122.6 475.558C1114.52 471.396 1123.11 434.684 1127.7 427.67C1141.18 407.075 1160.68 386.365 1183.45 376.465C1170.72 375.611 1158 374.405 1145.33 372.848C1139.57 372.168 1126.03 370.239 1120.89 370.129L1121.77 367.446ZM1125.55 472.146C1138.31 458.743 1193.24 395.348 1192.92 379.709C1192.89 378.452 1192.63 378.299 1191.82 377.398C1190.73 377.367 1189.11 377.264 1188.08 377.354C1162.72 386.117 1140.27 410.29 1126.91 433.299C1123.64 438.921 1119.65 467.402 1122.61 472.996C1124.44 473.123 1123.7 473.238 1125.55 472.146Z"/><path fill="#12CFF4" fill-opacity="0.97254902" d="M1574.85 397.47C1576.59 399.897 1582.16 408.037 1584.04 409.529C1586.97 409.065 1586.74 408.608 1588.89 409.729C1591.99 415.069 1590.05 436.588 1587.26 442.321L1586.45 439.004C1586.95 434.856 1589.16 418.462 1587.22 415.841L1586.09 416.748C1585.8 413.897 1584.8 411.585 1581.74 411.516C1579.56 406.841 1578.44 406.255 1573.51 405.195C1540.29 398.057 1531.9 406.1 1524.25 436.541C1552.31 437.666 1549.78 439.892 1555.29 467.384C1561.13 496.547 1549.01 496.622 1524.9 496.837C1521.22 494.153 1513.48 487.145 1513.19 483.158C1512.18 469.686 1521.84 433.61 1526.22 421.547C1528.75 414.451 1531.91 407.594 1535.65 401.057C1544.95 399.348 1553.61 399.636 1562.91 400.752C1565.69 401.087 1574.41 403.024 1576.12 402.342L1573.89 398.948L1574.85 397.47ZM1514.31 482.629C1517.76 487.91 1520.48 491.212 1525.58 495.068C1532.73 495.159 1538.53 494.653 1545.63 494.063C1549.77 491.793 1552.28 490.652 1554.08 485.779C1557.26 477.178 1550.72 450.36 1546.64 442.973C1546.31 442.385 1545.97 441.801 1545.62 441.223C1545.45 440.942 1545.27 440.662 1545.09 440.381C1537.1 439.266 1531.73 439.008 1523.67 438.74C1520.06 452.117 1515.33 468.874 1514.31 482.629Z"/><path fill="#B7F7FF" d="M437.185 329.351C470.255 327.686 502.849 328.222 535.917 328.77C572.814 329.157 609.702 330.169 646.565 331.807L706.325 334.444C717.364 334.955 731.631 335.245 742.31 336.581L743.692 336.241C831.441 341.01 919.078 347.667 1006.54 356.209C1029.82 358.255 1053.09 360.496 1076.33 362.93C1087.98 364.126 1107.19 366.614 1118.41 366.695C1119.52 365.157 1119.56 363.313 1119.78 361.421L1120.89 365.943L1121.77 367.446L1120.89 370.129L1119.63 370.347C1115.68 368.699 1076.28 365.702 1069.35 365.036C996.085 357.93 922.706 352.023 849.244 347.318C816.102 345.049 776.612 341.191 744.173 340.501L742.526 340.122C740.393 340.38 730.669 339.505 727.936 339.359L691.648 337.462C661.348 335.752 631.031 334.361 600.702 333.288C569.898 332.166 539.08 331.488 508.341 330.775C492.083 330.399 451.025 332.027 437.185 329.351Z"/><path fill="#B7F7FF" d="M68.6494 294.043C75.5793 294.478 100.8 294.186 106.048 291.786C129.767 280.936 153.035 282.339 179.354 281.856L182.539 282.234C213.037 284.434 192.709 300.343 179.244 308.724C162.983 318.845 147.265 328.112 127.622 329.588L124.938 329.401C114.179 331.665 92.0066 332.012 80.7586 331.269L80.4016 330.503C82.0873 330.334 82.3251 330.32 83.5892 329.211C130.43 327.59 157.223 324.399 192.335 290.08C174.95 285.778 140.236 288.516 121.545 290.681C117.908 291.102 109.495 296.008 104.256 296.436C92.4725 297.398 80.1974 296.983 68.4266 296.785L68.6494 294.043Z"/><defs><linearGradient id="gradient_0" gradientUnits="userSpaceOnUse" x1="1325.3165" y1="434.88727" x2="1315.2937" y2="341.57916"><stop offset="0" stop-color="#167C9B" stop-opacity="0.96078432"/><stop offset="1" stop-color="#12CFF4"/></linearGradient></defs><path fill="url(#gradient_0)" d="M1193.61 459.16C1203.31 430.45 1211.93 407.509 1231.61 383.874C1278.83 327.171 1360.77 329.873 1420.16 364.071L1421.47 365.035C1434.85 375.528 1447.35 384.58 1453.81 400.798C1444.14 389.203 1433.58 374.045 1419.27 367.64L1418.14 366.725C1417.94 366.551 1417.74 366.377 1417.55 366.202C1389.79 348.494 1347.1 341.349 1315.14 344.808C1265.2 350.215 1231.14 378.497 1210 422.519C1204.74 433.47 1200.53 450.415 1193.61 459.16Z"/><defs><linearGradient id="gradient_1" gradientUnits="userSpaceOnUse" x1="1305.4475" y1="312.01929" x2="1306.0363" y2="306.60553"><stop offset="0" stop-color="#B7F7FF"/><stop offset="1" stop-color="#12CFF4"/></linearGradient></defs><path fill="url(#gradient_1)" d="M1165.99 294.064C1185.45 296.132 1204.66 297.1 1224.14 298.601C1299.36 304.397 1374.56 311.378 1448.47 326.989C1447.43 327.452 1445.36 328.303 1444.51 328.88C1380.96 316.309 1310.14 311.09 1245.53 304.314C1218.55 301.484 1191.12 300.8 1164.13 296.738L1165.99 294.064Z"/><path fill="#B7F7FF" fill-opacity="0.98823529" d="M124.938 329.401L127.622 329.588C137.35 353.204 160.117 356.965 182.387 363.275C203.381 369.108 224.479 374.558 245.671 379.624C259.896 366.297 270.157 357.86 288.9 350.58C290.628 351.517 292.416 352.547 294.214 353.318C277.597 360.273 262.86 367.701 250.25 381.228C253.329 381.946 259.964 383.319 262.66 384.296L262.488 385.234C260.346 385.21 251.727 383.212 249.135 382.66C222.185 408.247 219.218 431.525 203.668 462.033C209.575 433.315 225.596 403.706 244.568 381.425C214.179 374.495 183.889 366.98 154.478 356.335C139.623 350.958 131.23 343.671 124.938 329.401Z"/><defs><linearGradient id="gradient_2" gradientUnits="userSpaceOnUse" x1="361.74185" y1="372.16617" x2="359.28632" y2="340.42438"><stop offset="0" stop-color="#EAFBFF"/><stop offset="1" stop-color="#00A6C8"/></linearGradient></defs><path fill="url(#gradient_2)" d="M288.9 350.58C325.208 337.189 374.954 339.168 410.034 355.331C417.399 358.742 424.465 362.765 431.157 367.357L428.487 368.608C422.64 365.434 416.686 362.463 410.635 359.699C378.871 345.504 326.37 341.052 294.214 353.318C292.416 352.547 290.628 351.517 288.9 350.58Z"/><path fill="#B7F7FF" d="M1564.15 346.966C1566.17 348.666 1569.5 351.301 1571.21 353.146C1571.3 364.068 1568.51 381.289 1568.81 387.888L1567.71 389.953C1564.8 381.927 1566.1 360.963 1563.41 357.917C1563.82 357.082 1564.98 356.672 1565.87 356.226C1565.83 352.405 1564.99 351.309 1562.78 348.308L1564.15 346.966Z"/><path fill="#B7F7FF" d="M1581.74 411.516C1584.8 411.585 1585.8 413.897 1586.09 416.748C1585.2 423.137 1584.8 432.339 1585.43 438.79L1586.07 439.21L1586.45 439.004L1587.26 442.321C1586.03 442.859 1584.73 443.459 1583.48 443.932L1582.74 438.214C1582.56 429.244 1583.13 420.362 1581.74 411.516Z"/><path fill="#12CFF4" fill-opacity="0.96862745" d="M742.526 340.122L744.173 340.501C744.658 345.793 746.036 357.282 746.053 362.148C745.532 371.024 746.339 379.699 745.836 388.169C744.245 385.684 746.559 376.374 744.534 373.581C744.295 363.459 742.169 349.125 742.526 340.122Z"/><path fill="#167C9B" fill-opacity="0.86666667" d="M744.534 373.581C746.559 376.374 744.245 385.684 745.836 388.169C745.912 391.254 745.938 399.472 746.52 402.078L746.632 417.531L745.184 417.687C744.536 402.995 744.319 388.286 744.534 373.581Z"/><path fill="#0A1B33" fill-opacity="0.031372551" d="M1586.09 416.748L1587.22 415.841C1589.16 418.462 1586.95 434.856 1586.45 439.004L1586.07 439.21L1585.43 438.79C1584.8 432.339 1585.2 423.137 1586.09 416.748Z"/><path fill="#B7F7FF" fill-opacity="0.70980394" d="M746.053 362.148C747.09 375.394 746.78 388.795 746.52 402.078C745.938 399.472 745.912 391.254 745.836 388.169C746.339 379.699 745.532 371.024 746.053 362.148Z"/><path fill="#12CFF4" fill-opacity="0.88627452" d="M1568.81 387.888C1570.78 391.063 1572.77 394.384 1574.85 397.47L1573.89 398.948C1571.78 396.299 1569.61 392.815 1567.71 389.953L1568.81 387.888Z"/><path fill="#06111F" fill-opacity="0.94509804" d="M745.628 428.013L746.73 423.649C746.719 429.352 746.962 438.377 746.625 443.863L745.316 444.401C745.713 438.539 745.702 433.847 745.628 428.013Z"/><path fill="#0F3B52" fill-opacity="0.48627451" d="M516.898 537.715C521.334 536.643 530.709 537.062 535.56 537.24C530.108 537.763 522.374 538.161 516.898 537.715Z"/><path fill="#0A1B33" fill-opacity="0.72549021" d="M745.184 417.687L746.632 417.531L746.73 423.649L745.628 428.013C745.279 424.81 745.274 420.955 745.184 417.687Z"/></svg>