<svg xmlns="http://www.w3.org/2000/svg" viewBox="0 0 1506.63 569.04"><defs><style>.fa7c5020-d0fb-4f5c-88ce-5eb49ddebfb7{fill:none;stroke:#12cff4;stroke-miterlimit:10;stroke-width:0.75px;}</style></defs><title>carinspect</title><g id="bc07a540-f08d-40b6-881a-d5d9d011bc09" data-name="Livello 2"><g id="adaccab1-1508-4f93-9f8e-137ffe688cc7" data-name="Livello 1"><path class="fa7c5020-d0fb-4f5c-88ce-5eb49ddebfb7" d="M632.67,182.24c1.7,6.78,3.42,12.53,4.53,18.4,1.67,8.82,2.9,17.71,4.3,26.57.13.82.14,1.66.28,2.48a2.8,2.8,0,0,0,3.08,2.6c2.5,0,5,0,7.5.06a3.6,3.6,0,0,0,3.71-1.91,6,6,0,0,1,5.35-3.1c5-.27,10-.77,14.92-.94,2.61-.1,4.71-.53,6.65-2.63a19.1,19.1,0,0,1,16.13-6.37c5,.37,10,.31,14.9,1.06,5.76.87,10.79,3.44,13.91,8.74,1.26,2.15,3.44,2.51,5.53,3,2.43.54,4.91.85,7.37,1.3,3,.55,5.87,1.14,7.82,3.88a4,4,0,0,0,2.56,1.16c2.46.36,4.95.62,7.43.74,9,.42,18,.72,26.93,1.16,11.63.58,23.25,1.23,34.87,1.86l1,0c12.48.42,25,.74,37.43,1.3,8.47.38,16.92,1.1,25.38,1.67l.49,0c7.48.36,15,.78,22.43,1.06,12.14.45,24.29.7,36.43,1.24,11,.48,21.91,1.3,32.87,1.84,9.64.47,19.29.74,28.93,1.13q11.22.45,22.43,1c4.65.23,9.3.51,13.93.93.82.07,2.17.83,2.23,1.39.16,1.62-1.32,1.6-2.47,1.6-2.83,0-5.67,0-8.49-.15-3.32-.17-6.63-.57-9.95-.69-12.14-.44-24.29-.77-36.43-1.21-7.15-.26-14.29-.65-21.43-1q-21.44-1-42.87-2c-13-.63-25.9-1.33-38.86-1.95-15-.71-29.91-1.35-44.86-2.06-13-.62-25.92-1.32-38.87-1.92-8.81-.41-17.63-.59-26.43-1.09-6.47-.36-12.91-1.06-19.36-1.63-2.67-.23-4.92-.51-6.6,2.75-1,1.85-3.87,3.06-6.15,3.76a36.81,36.81,0,0,1-8.85,1.21c-2.26.11-4.12.5-5.83,2.21a20.48,20.48,0,0,1-15,5.82c-6.3,0-12.73,1.05-18.86-1a31.82,31.82,0,0,1-9.21-4.7,14.8,14.8,0,0,0-7.63-3.22c-2.8-.33-5.62-.71-8.38-1.3-5-1.07-9-3.48-10.71-8.66a6,6,0,0,0-.74-1.29c-.09-.14-.25-.22-.17-.15h-13c.19,2.28.41,4.67.58,7.06s.26,4.65.44,7c.08,1,.4,2,.45,3,.4,8.14.71,16.29,1.14,24.43.55,10.29,1.24,20.58,1.74,30.88.23,4.82.12,9.66.26,14.49.12,4,.43,4.13,4.28,4.47,10.76.93,21.58,1,32.29,2.69,5.73.9,11.61.82,17.41,1.3,5.46.45,10.91,1.08,16.37,1.57,5.63.51,11.27.9,16.9,1.4,9.92.89,19.85,1.84,29.78,2.73,5,.45,9.94.83,14.91,1.25,7.11.6,14.23,1.24,21.34,1.83,5.3.44,10.61.77,15.91,1.26,9.26.86,18.52,1.81,27.78,2.7,4.14.4,8.27.79,12.41,1.14,12.76,1.08,25.51,2.11,38.27,3.22,11.08,1,22.18,1.9,33.25,3,11.74,1.19,23.5,2.23,35.16,4a132.61,132.61,0,0,1,30.65,8.87,46.66,46.66,0,0,1,7.77,4.47,10.6,10.6,0,0,1,3.08,3.21c2.13,3.55,1.16,5.39-2.94,5.31-5.82-.11-11.63-.54-17.44-.84l-36.37-1.86-1-.05c-12.15-.4-24.3-.7-36.44-1.22-10.46-.45-20.91-1.16-31.36-1.75l-1-.05q-17.22-.59-34.43-1.18c-9.31-.33-18.63-.63-27.94-1.06-13.12-.6-26.24-1.31-39.36-1.95q-21.43-1.05-42.87-2.05c-5.64-.28-11.28-.66-16.93-.9-9.48-.39-19-.7-28.44-1.08q-10.72-.43-21.44-1c-4.15-.21-8.29-.66-12.44-.78-2.9-.09-3.1.21-3.16,3.12-.06,3.17-.06,6.34,0,9.5.08,2.84.26,2.95,3.26,3.13h.5q19.23.54,38.44,1.08,16.72.51,33.44,1.07c10.14.33,20.29.6,30.43,1,13.46.55,26.92,1.3,40.38,1.78,14,.51,28,.78,41.93,1.2,9,.27,18,.65,26.94.94,11.31.37,22.63.67,33.94,1.05,9,.3,18,.69,26.93,1A141.49,141.49,0,0,1,982.61,399c8.15,3.77,16.5,7.13,24.85,10.44,4.94,1.95,10.21.86,15.33.76.56,0,1.4-1.3,1.59-2.12,1-4.37,1.83-8.8,2.82-13.18,1.91-8.43,3.79-16.88,5.89-25.26a150.87,150.87,0,0,1,12.27-32.12,17.25,17.25,0,0,0,2-7.13c.5-10,1.5-19.9,1.76-29.87.32-12,.08-24,.08-36.47-4.5,2.31-8.12,5.36-11.82,8.2-3.16,2.42-6,5.27-9,7.94a13.65,13.65,0,0,1-1.89,1.61,1.44,1.44,0,0,1-1.31-.23c-.31-.27-.6-1-.44-1.28a13.54,13.54,0,0,1,2.47-3.08c5.52-4.54,11-9.23,16.76-13.37,3.39-2.41,4.6-5.07,4.56-9.16a113.27,113.27,0,0,0-4.72-31c-2.29-7.88-6.49-14.95-11.46-21.51a6.56,6.56,0,0,0-5.53-2.74c-9.31-.19-18.62-.64-27.94-.94-12.31-.39-24.63-.54-36.92-1.16-12.79-.64-25.55-1.71-38.32-2.59l-1-.06-30.93-1.18c-9.82-.37-19.63-.67-29.44-1.1-13.63-.61-27.25-1.35-40.88-2-15.95-.72-31.91-1.36-47.87-2q-23.68-1-47.38-2c-9.14-.37-18.3-.46-27.43-1.06-16.27-1.09-32.55-1.85-48.87-2C644.39,183.33,639,182.68,632.67,182.24Z"/><path class="fa7c5020-d0fb-4f5c-88ce-5eb49ddebfb7" d="M644.56,326c-.45-12.36-.78-24-1.32-35.62-.45-9.63-1.15-19.25-1.74-28.87l-1.17-18.92c-.48-7.87-.48-7.79-8.34-8-12.81-.31-25.62-.71-38.43-1.13-7.81-.26-15.61-.64-23.42-1q-13-.51-25.93-1c-7.48-.31-15-.6-22.42-1-8.63-.49-17.25-1.1-25.87-1.65l-1.5-.09c-13.64-.4-27.28-.77-40.92-1.21-9.14-.3-18.28-.68-27.42-1.06-7-.29-14-.55-20.93-1-7.62-.45-15.24-1.14-22.87-1.59-3.29-.19-6.6,0-11.06,0,7.67,3,13.47,7.17,19.3,11.25a86.4,86.4,0,0,1,23.24,24.43c1.35,2.1,3.23,4.26,2.43,7.4-2.21-.45-2.79-2.17-3.54-3.52-8.19-14.55-20.63-24.62-34.68-33a128.93,128.93,0,0,0-42.2-16.19c-9.63-1.82-19.35-3.15-29-4.56a50.15,50.15,0,0,0-6.88,0c1,3.06,1.92,5.67,2.71,8.32,4.47,15.17,9,30.32,13.32,45.52,1,3.6,2.92,5.28,6.61,6.39a134,134,0,0,1,48.37,26.25c16.26,13.75,27.81,30.81,36.28,50.09a207.63,207.63,0,0,1,14.29,47.7c.32,1.83,1,2.53,2.85,2.67,7.53.56,14.44-.71,20.85-5.14,7.66-5.3,15.65-10.12,23.51-15.12,6.54-4.15,13.94-5.49,21.44-5.68,7-.18,13.94.59,20.92.8,15,.44,30,.77,44.92,1.19,9.31.26,18.63.4,27.93,1,18.1,1.09,36.21,1.83,54.35,2,2.48,0,5,.51,7.44.72,1.85.16,2.81-.68,2.77-2.6-.07-3.5-.16-7-.17-10.49,0-1.91-1-2.61-2.77-2.69q-11-.46-21.93-1.06c-10-.54-19.92-1.14-29.87-1.72l-1.5-.07q-17.46-.6-34.93-1.22-14-.49-27.93-1c-7.14-.29-14.29-.58-21.42-1-9.13-.51-18.25-1.13-27.38-1.69-.33,0-.66,0-1,0-11.48-.4-22.95-.76-34.43-1.21-6.64-.26-13.27-.66-19.91-1a6.11,6.11,0,0,1-1.47-.25c-1.13-.34-1.56-1.93-.6-2.24,3-1,3.35-3.88,5-5.87a53.47,53.47,0,0,1,7.74-8.42,84.63,84.63,0,0,1,39.27-17.41,121.58,121.58,0,0,1,27.33-1.81c6.13.33,12.24,1,18.36,1.54l4.48.37q18.39,1.44,36.77,2.87c5.31.41,10.62.72,15.92,1.13,12.09.94,24.18,1.94,36.27,2.88,5.64.44,11.28.75,16.91,1.23C635.55,324.9,640,325.47,644.56,326Z"/><path class="fa7c5020-d0fb-4f5c-88ce-5eb49ddebfb7" d="M927.58,135.69c-7.6-5-14.3-9.68-21.2-14-11.7-7.34-23.37-14.76-35.36-21.61-11.25-6.43-22.81-12.35-34.39-18.18A265.11,265.11,0,0,0,800,67.29c-13.46-4.43-27.27-7.33-41.21-9.8a404.78,404.78,0,0,0-44.57-5q-17.41-1.14-34.85-2c-10-.48-20-.7-29.93-1.1-5.15-.21-10.29-.56-15.43-.81a31.93,31.93,0,0,0-3.25.18c2,6.7,3.83,13.06,5.72,19.42q12.07,40.66,24.16,81.35c1.9,6.38,3.72,12.78,5.69,19.14,1.12,3.62,1.23,3.6,4.84,3.74,9.81.39,19.61.75,29.42,1.15q23.43,1,46.86,2c7.48.31,15,.59,22.43.93q21.93,1,43.85,2.06c6.64.31,13.29.6,19.93.95,10.95.57,21.91,1.26,32.87,1.74,11.63.51,23.28.83,34.92,1.19a20.4,20.4,0,0,0,3.13-.34c-.45-6.23-.69-12.19-1.35-18.11-.82-7.32,2.5-12.89,7.11-17.94A34.81,34.81,0,0,1,927.58,135.69Z"/><path class="fa7c5020-d0fb-4f5c-88ce-5eb49ddebfb7" d="M1388.16,237.87c-3.35-3.53-7.27-5.75-11.14-8-10.81-6.21-22.63-9.68-34.72-12.24q-14.15-3-28.43-5.38c-6.88-1.15-13.82-2-20.76-2.68-11.08-1.14-22.17-2.14-33.27-3.1q-13.15-1.14-26.34-2c-11-.73-21.91-1.35-32.86-2-11.79-.7-23.59-1.24-35.37-2.1-8.94-.66-17.89-1.5-26.78-2.63a68,68,0,0,1-24-8.26,24,24,0,0,0-13.39-2.82c-8.14.46-16.29.75-24.44.94-16.81.4-33.63.68-50.44,1-.65,0-1.3.12-2.52.24,1.15,1.26,1.94,2.22,2.83,3.08a82.94,82.94,0,0,1,17,22.68c3.19,6.35,4.72,13.18,5.83,20.07,1,6.38,1.45,12.86,2.14,19.3.11,1,.24,1.94.42,3.45a39.07,39.07,0,0,0,3.7-1.81c12.44-7.8,25.25-14.86,39.09-19.92a151.73,151.73,0,0,1,31.5-7.39c15.41-2.13,30.88-2,46.35-1.71,11.3.23,22.58,1.09,33.87,1.67.83,0,1.66.06,2.5.06a398.63,398.63,0,0,1,43.27,2.91c9.9,1.19,19.87,1.87,29.71,3.38a199.37,199.37,0,0,1,23.39,5.09,194.72,194.72,0,0,1,52.7,23.49,16.65,16.65,0,0,1,2.87,2,9.64,9.64,0,0,1,1.28,2.4c-.88,0-1.92.32-2.62,0a65.07,65.07,0,0,1-6-3.6c-10.25-6.67-21.42-11.4-32.77-15.85a189.21,189.21,0,0,0-38-10.1c-10.15-1.68-20.44-2.58-30.7-3.47-10.6-.92-21.23-1.44-31.85-2.09q-9.45-.57-18.92-1c-9.48-.39-19-.72-28.43-1.06-7.31-.27-14.65-1-21.94-.67-18.81.76-37.5,2.51-55.43,8.95a186.43,186.43,0,0,0-27.15,12.63c-4.07,2.25-7.91,4.93-12,7.23-2.9,1.64-4,3.77-4,7.23.2,10.16.2,20.33-.11,30.49-.25,8.3-1.09,16.58-1.6,24.88-.14,2.11,0,4.24,0,6.94a134.48,134.48,0,0,1,23.15-29.33,123.14,123.14,0,0,1,43.61-27.5,138.84,138.84,0,0,1,27.93-7.49c7.22-1.06,14.54-1.5,21.79-2.49a213.86,213.86,0,0,1,38.34-1.71c12.12.54,24.27.8,36.29,2.67,9.2,1.42,18.51,2.29,27.59,4.21,19.79,4.19,38,12,54.15,24.48a149.49,149.49,0,0,1,16.1,14.16c2.74,2.82,2.82,2.82,6.44,1,12.23-6.07,24.43-12.2,36.67-18.25,3.43-1.7,7-3.18,10.42-4.84s3.4-1.92,1.73-5.23c-3.38-6.68-6.75-13.37-9.82-20.19a27.7,27.7,0,0,1-1.74-7.72A12.87,12.87,0,0,1,1388.16,237.87Z"/><path class="fa7c5020-d0fb-4f5c-88ce-5eb49ddebfb7" d="M589.7,169.39c-.5-7.7-.86-14.67-1.43-21.62-.83-9.93-1.82-19.85-2.72-29.77-.4-4.31-.8-8.61-1.08-12.92-.45-6.81-.7-13.62-1.19-20.42-.47-6.47-1.19-12.91-1.69-19.37-.29-3.82,0-7.72-.61-11.47-1.09-6.54.67-6.27-6.72-6.16q-31.46.47-62.93,1.05c-13.64.27-27.29.58-40.93,1-17.29.57-34.58,1.29-51.87,2-5.65.23-11.29.57-16.94.91-2.86.17-3.16.6-2.95,3.29.65,8.29,1.21,16.58,1.92,24.85.8,9.27,1.75,18.53,2.6,27.79.44,4.8.84,9.61,1.16,14.42.44,6.8.75,13.61,1.18,20.42.31,5,.74,10,1.06,14.93.12,1.94,1,3.12,3,3.38s4,.56,5.93.64c10.31.44,20.62.78,30.93,1.2,7,.29,13.95.67,20.93,1,9.31.37,18.62.69,27.94,1,9,.33,18,.58,26.93,1s17.92,1.08,26.88,1.63c.33,0,.66.05,1,.06l34.93,1.1C586.48,169.43,588,169.39,589.7,169.39Z"/><path class="fa7c5020-d0fb-4f5c-88ce-5eb49ddebfb7" d="M650.6,457c1.81.11,3.25.28,4.7.28,34.13.11,68.26.11,102.38.32,33.13.21,66.27.11,99.37,1.08,41.64,1.22,83.28.37,124.92.88,14.47.17,28.95.63,43.42.92,5.79.11,5.51.51,6.06-5.54.81-8.76,2.2-17.47,3.34-26.2.51-3.95,1.16-7.9,1.5-11.86.25-2.84-.18-3.22-3-3.26-5.83-.07-11.67-.18-17.49,0-5.33.18-10.13-1.35-14.94-3.38-13-5.49-26-11.14-39.28-16a81.65,81.65,0,0,0-27.4-4.8c-9.64-.13-19.29-.62-28.93-1-8.48-.31-17-.68-25.43-1-10.47-.38-20.95-.68-31.43-1.06-6.65-.23-13.29-.6-19.94-.82-12.81-.41-25.62-.75-38.43-1.14q-14.22-.43-28.43-1-13.73-.5-27.43-1c-7.81-.3-15.61-.65-23.43-.92-11.8-.4-23.61-.71-35.42-1.12-6.65-.23-13.29-.66-19.94-.84-3.71-.1-3.78,0-3.83,3.48q-.12,7.5,0,15c0,3.22.14,3.33,3.47,3.42,13.47.38,26.95.61,40.43,1.08,13.13.46,26.24,1.22,39.37,1.7,7,.25,14,.11,21,.28q18.72.45,37.43,1.06c9.31.29,18.62.66,27.93,1l29.93,1c9.48.32,19,.66,28.44,1,11.81.36,23.63.54,35.44,1.05,9.46.41,18.94.87,28.34,1.91,7.42.82,14.77,2.39,22.08,3.93,10.25,2.16,20.46,4.53,30.65,7a94,94,0,0,1,10.44,3.36c.76.28,1.22,1.36,1.82,2.07-.73.53-1.47,1.5-2.2,1.5-6.65,0-13.3-.21-20-.39-1.66,0-3.31-.31-5-.32-8.83-.09-17.67-.06-26.5-.2q-27.46-.45-54.92-1c-13.48-.27-27-.64-40.44-.89-21.31-.39-42.64-.2-63.92-1.23-15.49-.76-31,0-46.43-1-15.65-1-31.29-.57-46.93-.91q-19.71-.44-39.43-.91c-1,0-2,.05-3,0-2-.14-2.93.63-3.26,2.75-.88,5.75-2,11.46-3.08,17.18C652.38,447.16,651.53,451.88,650.6,457Z"/><path class="fa7c5020-d0fb-4f5c-88ce-5eb49ddebfb7" d="M1057.31,464.81c-8.89-.41-17.18-.94-25.48-1.11-11-.24-22-.19-33-.27-45.32-.33-90.64-.14-135.94-1.18-30.32-.69-60.65.07-90.94-.91-36-1.18-72-.43-107.94-.93-1.5,0-3-.3-4.48-.32-3.48,0-7,0-10.44,0-1.16,0-2.33.35-3.47.27-22.8-1.58-45.63-.46-68.44-.89-7.83-.14-15.68.23-23.5-.13-32-1.45-64-.54-95.94-1-19.62-.26-39.24-.59-58.86-.89-1.17,0-2.34-.08-3.5,0-2.62.14-2.92.34-2.94,2.93q-.06,11.25.09,22.5c0,3.23.27,3.44,3.46,3.47,9.33.08,18.67.07,28,.09,9.17,0,18.34-.2,27.5.09,49.8,1.52,99.63,0,149.43,1.13,42.32.93,84.64-.07,126.94,1,47.81,1.17,95.64-.13,143.43,1,41,1,82,.28,122.94.87,12.15.17,24.29.66,36.44,1,7.65.23,15.29.59,23,.74,3.49.07,3.64-.16,3.66-3.7C1057.34,480.67,1057.31,472.68,1057.31,464.81Z"/><path class="fa7c5020-d0fb-4f5c-88ce-5eb49ddebfb7" d="M1082.56,448c-.26-68.54,52.61-123.54,122.45-123.38,68.63.15,120.86,55.44,121.36,121.55.52,69.47-57.94,123.75-122,122.36C1140,569.43,1082.82,516.29,1082.56,448Zm26.14-5.79a91.83,91.83,0,0,0,13,52.61c8.36,13.92,19.29,25.48,33.25,33.88a97,97,0,0,0,49.82,14c51.18.65,95.93-43.36,95.61-96.4-.32-52.44-44.68-96.24-95.85-95C1150.29,350.51,1111.08,395.28,1108.7,442.25Z"/><path class="fa7c5020-d0fb-4f5c-88ce-5eb49ddebfb7" d="M247,568.66c-65.91.58-123.65-52.56-123.25-121.79.39-67.91,52.84-121.65,121.78-122.18,67.53-.53,122.45,54.47,121.89,121.68C368.53,513.11,313.59,568.08,247,568.66ZM150.09,449.27c.81,48.12,43,93.26,95.59,93.6,52.32.33,97-46,96.06-97.13-.86-48.16-40.55-95.14-95.85-94.44C193.85,350.23,149.17,395.1,150.09,449.27Z"/><path class="fa7c5020-d0fb-4f5c-88ce-5eb49ddebfb7" d="M87.39,172.31c8.15-6.3,16.9-11.86,23.65-19.85a7.33,7.33,0,0,1,3.9-1.87,76.77,76.77,0,0,0,33.61-16.8c10.65-9,20.75-18.73,31.2-28,6.6-5.85,13.24-11.67,20.17-17.11,7.91-6.22,16.62-11,26.68-13,14.54-2.87,29.23-4.5,43.94-6.06q13.88-1.45,27.77-2.76c1.44-.14,2.9,0,4.69,0-2.53,5.85-4.87,11.34-7.28,16.81-5.65,12.79-11.41,25.53-16.94,38.38a73.22,73.22,0,0,0-4.06,12.3c-1.88,8.19.95,15,7.46,19.1a11.54,11.54,0,0,0,1.76.95c1.94.76,2.42,2,1.58,3.93a14.38,14.38,0,0,0-.36,9.77c2.74,9.77,5.35,19.58,8,29.37.68,2.49,1.79,4.9,1.71,7.71a15.22,15.22,0,0,1-2.22.29c-7.48-.32-15-.59-22.44-1.07a5,5,0,0,1-3.27-1.78c-3.93-5.14-9.35-7.47-15.48-8.14-7.76-.85-15.56-1.6-23.35-1.81-10.14-.26-20.32-.66-30.42.79-6.11.87-12.42,1.41-16.6,6.84-1.95,2.54-4.37,3.1-7.41,3.07-10.83-.11-21.66,0-32.49.06-3.7,0-7.4.38-9.34-3.81-.19-.4-.75-.65-1.16-.93-4.23-3-8.36-6.07-12.75-8.76a22.57,22.57,0,0,0-8.23-3.36,148.94,148.94,0,0,0-16.91-1.1c-6.8-.17-13.61,0-21.55,0C77.17,180.6,82.18,176.33,87.39,172.31Zm193.05-11.18a3.79,3.79,0,0,0,1.44.3,1,1,0,0,0,.81-.46c.14-.41.27-1.13.06-1.31a11.23,11.23,0,0,0-2.84-1.93c-9.36-3.92-12.53-14.49-10.79-22.33a105.19,105.19,0,0,1,7.71-21.53c5.81-12.5,11.9-24.88,17.87-37.31.15-.3.44-.62.4-.9-.07-.6-.14-1.45-.54-1.71a1.75,1.75,0,0,0-1.72.26,17.3,17.3,0,0,0-2,3.39c-7.25,15.51-14.66,30.94-21.6,46.59-2.11,4.78-2.9,10.15-3.91,13.83C266.37,149.91,270.13,156.8,280.44,161.13Zm-23.89-87.5C248,74.71,239.42,76,230.92,77.5a127.49,127.49,0,0,0-13,3.61,6.63,6.63,0,0,0-2.65,1.29c-.47.43-.41,1.43-.59,2.17.59.08,1.29.41,1.76.21,8-3.59,16.56-4.92,25.11-6.08,13.5-1.83,27-3.75,40.65-4.25a15.8,15.8,0,0,0,3.85-.84,1.37,1.37,0,0,0,.69-1.13,1.33,1.33,0,0,0-.91-.94c-1.82-.1-3.65-.05-5.48-.05v-.21C272.43,72.05,264.47,72.64,256.55,73.63Z"/><path class="fa7c5020-d0fb-4f5c-88ce-5eb49ddebfb7" d="M371.48,220.76c12.6.29,23.25.42,33.88.82,14.62.55,29.23,1.33,43.85,2,8.64.38,17.29.46,25.92,1.07q22.39,1.57,44.85,1.92c8.81.13,17.61.63,26.42,1,8.64.34,17.27.72,25.91,1.07s17.29.62,25.92,1c11.62.56,23.24,1.23,34.85,1.85.83,0,1.67,0,2.5,0,3.67-.09,3.95-.38,3.27-4.16-1.79-10-3.5-20-5.52-29.89-.86-4.22-2.46-8.28-3.67-12.43a3.28,3.28,0,0,0-3.09-2.73c-1.48-.14-3-.6-4.43-.66-12-.42-23.95-.77-35.92-1.15q-16-.52-31.92-1.09c-7.81-.28-15.62-.55-23.43-.93-10.45-.52-20.9-1.14-31.36-1.72L498,176.7c-12.81-.38-25.62-.72-38.42-1.14-9.81-.33-19.61-.64-29.41-1.16-9.29-.49-18.59-1-27.84-1.93-10.41-1-20.79-2.38-31.18-3.66-11.37-1.39-22.77-2.65-34.1-4.32-15-2.2-29.87-4.72-44.79-7.14-3.07-.5-3.19-.41-4.21,2.54-1.34,3.9-.26,7.73.68,11.32,2.67,10.3,5.76,20.49,8.91,30.66,1.38,4.45,1.65,4.15,6.3,4.58,14.74,1.34,29.46,2.85,43.61,7.6,4.72,1.59,9.33,3.55,14.12,4.9A88,88,0,0,0,371.48,220.76Z"/><path class="fa7c5020-d0fb-4f5c-88ce-5eb49ddebfb7" d="M236.69,54.51c4.66-.47,8.75-.86,12.84-1.3,5.12-.55,10.23-1.18,15.35-1.7q14.63-1.5,29.25-2.89c4.47-.43,8.95-.73,13.42-1.07l29.34-2.21c8.95-.67,17.89-1.4,26.85-2C376,42.62,388.3,42,400.59,41.33q20.93-1.06,41.85-2,12.22-.57,24.43-1c11.31-.38,22.66-.21,33.92-1.11,14.65-1.17,29.32,0,43.93-1,17.15-1.15,34.29-.63,51.43-.62s34.28.53,51.42.94c8.48.2,16.95.61,25.42,1.05q16.93.88,33.85,2c8.79.57,17.58,1.15,26.34,2,23.21,2.25,46.2,5.6,68.52,12.76a301.11,301.11,0,0,1,55.81,24.11c14.8,8.31,29.72,16.45,44.25,25.22,17.24,10.4,34.17,21.32,50.6,33,9.77,6.94,19.73,13.62,29.57,20.46,4.38,3,8.61,6.28,13,9.24a10.12,10.12,0,0,0,5,2c8.8.19,17.62.09,27.62.09-6-4.4-11.14-8.21-16.34-11.91-10.85-7.72-21.63-15.54-32.63-23C965.5,124.59,952.25,116,939,107.31c-8.64-5.64-17.25-11.34-26.1-16.64C897.79,81.61,882.51,72.79,867.23,64c-7.35-4.24-14.88-8.16-22.23-12.41-2.86-1.66-5.36-3.94-8.14-5.74a35.93,35.93,0,0,0-6.13-3.24c-12.89-5.17-26.37-8.08-40.08-10-11.51-1.63-23-3.26-34.56-4.76-4.44-.58-8.94-.8-13.41-1.2-6.45-.58-12.9-1.22-19.35-1.76-5.47-.46-10.94-.9-16.41-1.2-8.3-.44-16.62-.69-24.92-1.13-10-.53-19.9-1.33-29.87-1.72-8.32-.32-16.67,0-25-.35-36-1.6-71.94-.83-107.92-.69-13.81.05-27.62.58-41.43,1-8.48.24-16.95.59-25.43,1q-22.42,1-44.86,2-20.43,1-40.85,2.05-17.93.95-35.85,2c-9.95.6-19.91,1.2-29.85,1.94-11.1.83-22.19,1.84-33.29,2.72-6,.47-12,.69-17.91,1.3-11.93,1.2-9.3-.39-11.33,10.63C237.85,47.41,237.36,50.53,236.69,54.51Z"/><path class="fa7c5020-d0fb-4f5c-88ce-5eb49ddebfb7" d="M498.82,455.57c13.16,0,26.32-.09,39.49,0q52,.44,103.92,1c1.78,0,4.17.59,5.17-.31s.73-3.38,1.05-5.15q2.19-12.27,4.39-24.54a9.42,9.42,0,0,0,.35-2.95c-.08-.59-.88-1.54-1.37-1.55-14.3-.27-28.59-.4-42.89-.64q-27-.45-53.92-1-21-.44-41.94-1c-13.64-.32-27.29-.64-40.93-1-8.48-.24-17-.6-25.44-.91a11.16,11.16,0,0,1-2.46-.25c-1.53-.43-2.07-2.07-.91-3.09a21.16,21.16,0,0,1,4.13-2.74c8.72-4.63,18.16-7.44,27.41-10.73a71.29,71.29,0,0,1,27.4-4.41c15.63.69,31.28.87,46.92,1.29q16.71.45,33.43,1,15.46.48,30.93,1c8.31.29,16.62.58,24.93.93,2.32.1,4.62.43,6.94.64s2.84-.15,2.88-2.29c.1-5.5,0-11,.11-16.5,0-2.11-1-3-2.91-3.27-1.32-.17-2.64-.34-4-.39-2.5-.08-5-.05-7.49-.11-16.31-.38-32.62-.74-48.93-1.17-10.31-.28-20.63-.36-30.92-1.05-16.77-1.11-33.56-1.73-50.37-2-3.65-.06-7.29-.71-10.94-.68-9.28.08-18.16,1.69-26.11,7-7.18,4.82-14.62,9.26-21.79,14.1-6.83,4.62-14.21,6.05-22.3,5.1a97.58,97.58,0,0,0-11.48-.36c-2.43,0-3,.66-2.64,3,.65,4.61,1.39,9.2,2.16,13.8a194,194,0,0,1,2.8,29.26c0,.67,0,1.33.05,2,.46,6.76.5,6.8,7.33,6.8,7.33,0,14.66-.08,22,.06,18.64.36,37.28.82,55.92,1.24Z"/><path class="fa7c5020-d0fb-4f5c-88ce-5eb49ddebfb7" d="M1060.74,488l24-3.55c-1.25-6.1-2.41-11.78-3.57-17.46a100.85,100.85,0,0,1-1.1-32.25,140.58,140.58,0,0,1,6.12-28.23,123,123,0,0,1,22-39.48,130.93,130.93,0,0,1,40.14-32.4c10.37-5.53,21.59-8.78,33.07-11a119.32,119.32,0,0,1,23.81-2.24c16.55.16,32.31,3.75,47.62,9.83,17.89,7.11,32.71,18.59,45.3,32.81a124.81,124.81,0,0,1,27.3,51.12,122.1,122.1,0,0,1,3.83,40.55c-.58,7.91-2.72,15.69-4.21,23.52-.31,1.63-.86,3.22-1.28,4.83-.36,1.39.07,2.34,1.6,2.43,6.15.34,12.29.63,18.44.94a2.07,2.07,0,0,0,2.47-2.37c0-1,0-2,0-3,0-8.34,0-16.67,0-25a315.09,315.09,0,0,0-6.23-60.94,213.47,213.47,0,0,0-7.82-29.39c-4.55-12.85-11-24.71-20.24-34.72a86.52,86.52,0,0,0-34.36-22.51c-11.63-4.23-23.67-6.76-35.84-8.69-3.61-.57-7.27-.78-10.92-1.07a428.37,428.37,0,0,0-51.92-.92c-12.27.49-24.57,1.49-36.53,4.76-17.56,4.79-33.1,13.14-45.69,26.41-7.39,7.79-12.8,17-17.28,26.71-8.09,17.59-12,36.3-14.74,55.26-1.25,8.54-1.62,17.2-2.35,25.82-.58,6.95-1.39,13.9-1.58,20.86C1060.53,468.23,1060.74,477.87,1060.74,488Z"/><path class="fa7c5020-d0fb-4f5c-88ce-5eb49ddebfb7" d="M1482,481.48c-7,3.4-14.58,4.39-22.24,5-8.28.65-16.56,1.41-24.83,2.18-9.43.89-18.84,1.89-28.27,2.73-5.79.52-11.59,1-17.4,1.24-12.14.42-24.28.69-36.42.91-3.1.05-3.28-.32-3.4-3.55,0-.83,0-1.67,0-2.5-.26-15.47.48-30.94-.68-46.42-.71-9.45-1.24-18.9-2.66-28.28-.37-2.5-.11-2.81,2.54-3a31.26,31.26,0,0,1,3.49,0c7,.24,14,.54,20.94.73,5.19.14,5.2.07,6,5,.13.82.18,1.65.25,2.48.72,7.44,1.58,14.88,2.11,22.33.73,10.44,1.35,20.9,1.74,31.36.2,5.64-.21,11.31-.24,17,0,.6.73,1.2,1.12,1.81.5-.58,1.33-1.11,1.42-1.75a47.05,47.05,0,0,0,.8-7.92c-.11-7.31-.54-14.62-.67-21.94a297.15,297.15,0,0,0-3.94-44.66c-.51-3,0-3.55,3-3.61,5-.08,10,.09,15-.1,6.32-.23,12.37-1.5,16.34-7.05a37.62,37.62,0,0,0,4.18-7.91c1.93-4.78,3.44-9.73,5.29-14.55,2.63-6.83,5.46-13.58,8.11-20.41,2.44-6.3,7.15-9.33,13.7-9.85a21.31,21.31,0,0,1,3,0c4.81.27,9.64.38,14.43.91,6.59.75,13.14,1.83,19.72,2.75a8,8,0,0,1,7,6.27c1.17,4.48,2,9.05,2.83,13.61.49,2.77.52,5.62,1,8.41.58,3.78,1.46,4.53,5.08,4.83,1.44.12,2.88.21,4.36.32-.12,1.88-.28,3.37-.28,4.86,0,2.11-.67,3.65-3,3.73-3.25.11-4.66,2.16-5.48,4.91-1.44,4.78-2.85,9.57-4.34,14.34-1.84,5.87-3.76,11.71-5.65,17.57-.88,2.74-2.3,4.62-5.62,4.61-3.81,0-7.62.47-11.44.64-7.95.35-15.12,2.28-20.09,9.19-3.5,4.85-7.12,9.63-10.71,14.42a15,15,0,0,0-2.7,10.88c.62,6.5,3.89,9.5,10.39,9.58.84,0,1.67,0,2.5,0l36.29-2.39C1483.08,480.88,1482.53,481.2,1482,481.48Zm-5.5-100.23c.5-.05.93-.81,1.39-1.24-.45-.44-.85-1.19-1.35-1.26a41.16,41.16,0,0,0-5-.27c-2,0-4,0-6,0,1.66-4.86,3.3-9.44,4.78-14.08a2.28,2.28,0,0,1,2.59-1.78c2.32.13,4.64.42,7,.45.66,0,1.33-.69,2-1.06-.49-.73-.84-1.89-1.5-2.11a15.59,15.59,0,0,0-4-.36c-5.81-.31-11.62-.64-17.43-.92-1.83-.09-3.67-.13-5.5,0-5.66.29-10,2.84-12,8.2-2.14,5.58-4,11.28-5.69,17-2.45,8.46-4.82,17-6.82,25.53-1.67,7.16,2,12.6,9.06,14.08a57,57,0,0,0,9.39,1.06c5.16.19,10.33.12,15.5.14a22.41,22.41,0,0,0,3.48-.13c.55-.09,1-.66,1.52-1-.49-.57-.9-1.5-1.5-1.65a16.31,16.31,0,0,0-4-.33c-5.33-.07-10.67,0-16-.19a45.65,45.65,0,0,1-8.85-1.29c-4.1-1-6.26-4.41-5.87-8.6.78-8.53,4-16.46,6.2-24.63a2.75,2.75,0,0,1,3-2.17c1,0,2,0,3,0q15,.25,29.95.49a5.64,5.64,0,0,0,2.36-.59c.31-.14.49-.77.55-1.21,0-.19-.4-.62-.64-.64-2.14-.22-4.29-.36-6.43-.53l-.15-.43C1471.85,381.56,1474.16,381.51,1476.45,381.25Z"/><path class="fa7c5020-d0fb-4f5c-88ce-5eb49ddebfb7" d="M122.53,470.52c-.76-8.23-2-15.67-2-23.11a127.56,127.56,0,0,1,11.41-52.25c8.69-19.44,22-35.21,38.56-48.25a116.94,116.94,0,0,1,39.39-20c13.55-4,27.25-6.16,41.34-5.45a130.38,130.38,0,0,1,42.16,9.39,125.08,125.08,0,0,1,62.25,55.92c5.48,10.35,10,21.1,12.21,32.63,1.23,6.35,1.93,12.81,2.66,19.24,1.48,13.05-.43,25.82-3.47,38.49-.63,2.6-.46,3.05,1.5,3.19,5.8.42,11.61.83,17.42,1,3.24.11,3.53-.17,3.42-3.39-.29-8.64.48-17.3-.81-25.93-.76-5.08-.8-10.27-1.13-15.41A239.86,239.86,0,0,0,381,395.84q-2.28-9.45-5-18.79a112.69,112.69,0,0,0-18.62-36.79c-9.14-12-21.17-20.5-34.82-26.86-11.3-5.26-23.31-7.76-35.48-9.8a311.77,311.77,0,0,0-59.64-4c-14.48.37-28.95,1.51-43,5.1C157.53,311.6,137,327,124.7,352.21c-8.55,17.47-13.67,36-16.39,55.28-1.21,8.55-2.92,17.05-3.71,25.64-.82,8.93-.84,17.94-1.15,26.91-.1,2.66-.06,5.34,0,8,.1,3.19.2,3.39,3.54,3.3C112.14,471.2,117.25,470.81,122.53,470.52Z"/><path class="fa7c5020-d0fb-4f5c-88ce-5eb49ddebfb7" d="M410.27,445a288.3,288.3,0,0,0-6.63-51.34A218.76,218.76,0,0,0,393,357.86c-5.8-14.32-13.41-27.43-24.26-38.65-9.95-10.29-20.92-19-34-25a153.22,153.22,0,0,0-41.92-12.54c-9.2-1.35-18.48-2-27.71-3.17-15.44-1.91-31-1.37-46.4-.69a184.43,184.43,0,0,0-52.8,9.7,101.48,101.48,0,0,0-33.46,19.43c-13.06,11.32-22.5,25.14-29.38,41-5.4,12.44-8.93,25.42-12.63,38.37-.68,2.37-.43,2.89,1.74,3,4.66.19,9.33.17,14,.25,1.76,0,2.68-.8,3.14-2.53,1.14-4.34,2.41-8.65,3.65-13a121.88,121.88,0,0,1,16.81-36.05A85.58,85.58,0,0,1,158.36,312c14.13-8,29.4-12,45.5-13.82a308.49,308.49,0,0,1,42.86-1.61,289.12,289.12,0,0,1,30.78,2.52,226,226,0,0,1,27.93,5.12c13.34,3.54,25.95,8.81,36.84,17.31a98,98,0,0,1,24.47,27.4,142,142,0,0,1,15.88,41.29c1.83,8.1,3.78,16.18,5.24,24.36,1.22,6.85,1.92,13.81,2.63,20.74.54,5.29.72,10.61,1.08,15.92.2,2.94.35,3.17,3.18,3.22,4.66.09,9.33,0,14,0,1.7,0,2.33-.67,2.05-2.49C410.43,449.71,410.43,447.36,410.27,445Z"/><path class="fa7c5020-d0fb-4f5c-88ce-5eb49ddebfb7" d="M1498.34,328.37c-.84.58-1.91,1.68-1.89,2.53.15,5.64.34,11.3,1,16.9.32,2.75,2.46,4.63,5.21,5.52,3.59,1.16,3.7,1.18,3.56,5-.27,7.48-.67,15-1,22.43a5.51,5.51,0,0,1-.29,2,2.8,2.8,0,0,1-1.29,1.36c-3.11,1.3-5.64-.23-6-3.6-.13-1.32,0-2.67-.14-4-.68-5.93-.93-11.93-3.3-17.56a12.08,12.08,0,0,0-9.16-7.61,162.36,162.36,0,0,0-36.62-3.81c-7.71.09-14,3-17,10.73-4,10.22-8.06,20.43-12.05,30.66-1.09,2.79-1.89,5.7-3.06,8.45-2.74,6.47-7.69,9.89-14.74,10-5.82.12-11.66.12-17.49.07-3.17,0-3.15-.12-3.67-3.3-2.92-17.58-6.79-34.91-12.81-51.74a142,142,0,0,0-20.92-39c-.66-.85-1.25-1.77-2-2.82,1.08-.62,1.77-1.07,2.51-1.44q23.44-11.75,46.93-23.47c3.47-1.73,3.71-1.62,5.79,1.94,3.36,5.75,6.45,11.66,10.1,17.22a41.4,41.4,0,0,0,25.81,18.2,443.69,443.69,0,0,0,48.11,8.42,37.77,37.77,0,0,0,7-.06,1.8,1.8,0,0,0,1.2-1.28c0-.45-.6-1.12-1.1-1.38a5.92,5.92,0,0,0-2-.28c-6.27-.68-12.59-1.07-18.81-2.08-11.15-1.82-22.27-3.88-33.35-6.08a36.28,36.28,0,0,1-19.83-10.9c-6.9-7.39-11.16-16.5-15.82-25.32-.23-.43.09-1.16.16-1.75.54.2,1.36.24,1.59.63,1.54,2.57,3,5.19,4.41,7.83,3.34,6.19,7,12.16,12.42,16.75a31.08,31.08,0,0,0,8,4.94,45.67,45.67,0,0,0,10.08,2.85c12.78,2.15,25.59,4.12,38.4,6.07,2.83.44,5.92.61,8.09-1.52,2.62-2.55,5.67-2.36,8.82-2.42a4,4,0,0,1,3.75,2c1.6,2.48,3.26,4.92,5,7.6A15.79,15.79,0,0,0,1498.34,328.37Zm-59.29,10.23c-5.39,1.16-9.16,4.74-11.82,9.31a146,146,0,0,0-6.94,13.81c-3.08,6.82-5.91,13.76-8.83,20.65a3.16,3.16,0,0,0-.43,1.4,1.63,1.63,0,0,0,.68,1.17c.36.2,1.19.21,1.36,0a20.88,20.88,0,0,0,2.3-3.74c4.16-9.44,8.22-18.93,12.4-28.35a29.07,29.07,0,0,1,3.08-5.13c3.91-5.4,9.77-6.81,15.87-6.92,4.79-.09,9.6.67,14.38,1.2,6.94.76,13.85,1.65,20.78,2.48a1.84,1.84,0,0,0,1,0c.8-.42,1.54-.94,2.31-1.43a8.12,8.12,0,0,0-1.63-1.63,6.11,6.11,0,0,0-2.39-.68c-10.73-1.13-21.48-2.22-33.26-3.42C1445.6,337.62,1442.28,337.9,1439.05,338.6Z"/><path class="fa7c5020-d0fb-4f5c-88ce-5eb49ddebfb7" d="M24.93,294.67c.48.29.74.58,1,.59q9.7.6,19.41,1.14,18.17,1,36.34,1.9c2.32.11,4.66.07,7,.33.54.06,1,1.05,1.46,1.61-.48.4-1,1.13-1.43,1.14-2.82.05-5.65,0-8.47-.16-1.15-.05-2.29-.43-3.45-.48-9.47-.42-18.94-.77-28.4-1.19-6.65-.29-13.28-.67-19.92-1-.83,0-1.67-.07-2.5,0-3.22.09-3.42.24-3.56,3.38-.29,6.48-.68,12.95-.72,19.43,0,4.48.51,8.95.7,13.43A2.89,2.89,0,0,0,25,337.86a34.89,34.89,0,0,0,3.94.55c9.1.59,15.35,5,18.25,13.74,2.24,6.79,4.27,13.66,6.5,20.45a77,77,0,0,0,3.11,7.87A8.63,8.63,0,0,0,64,385.86c2.47.28,4.94.69,7.38,1.15,1.35.25,1.79-.47,2.06-1.52q1.43-5.57,2.83-11.12c5-20,12.07-39.09,23.41-56.44A120.24,120.24,0,0,1,134,283.56a13.71,13.71,0,0,0,1.6-1.81,11.15,11.15,0,0,1-2.22-1.19c-6.66-5.77-13.27-11.59-19.91-17.38-4.64-4-9.36-8-13.93-12.1-1.4-1.27-2.2-.8-3.32.23A29.9,29.9,0,0,1,81.27,259a94.59,94.59,0,0,1-14.85,1.48c-8.82.26-17.65.15-26.47.2-1.17,0-2.33.05-3.5,0a2.51,2.51,0,0,0-2.8,2.76c-.09,2.66-.25,5.33-.2,8,.15,8-1.9,15.13-7.28,21.18A11.86,11.86,0,0,0,24.93,294.67Z"/><path class="fa7c5020-d0fb-4f5c-88ce-5eb49ddebfb7" d="M1325.14,315.87a105.79,105.79,0,0,0-32.47-23c-13.08-6.13-26.93-9.63-41.09-11.86-8-1.26-16.18-1.82-24.29-2.44-9.61-.74-19.23-1.29-28.86-1.72-3.13-.13-6.29.44-9.43.61-7.81.41-15.65.43-23.41,1.23A177.89,177.89,0,0,0,1129,286a111.77,111.77,0,0,0-37.5,20.29A107.9,107.9,0,0,0,1065.16,338c-9.33,17.15-15,35.5-18.7,54.56a329,329,0,0,0-5.11,37.5c-.59,7.62-1.22,15.24-1.76,22.86-.15,2-.06,4-.06,6,0,1.32.44,2.34,2,2.34,4.66,0,9.33.07,14-.09a2.76,2.76,0,0,0,1.83-1.84,57.27,57.27,0,0,0,.93-7.41c.43-6.47.63-12.95,1.17-19.41.46-5.63,1.19-11.23,1.92-16.83,1.44-11,3-22.08,6-32.83,3-10.57,5.82-21.2,10.94-31,9.82-18.79,23.45-33.72,42.71-43.31a118,118,0,0,1,37.58-11.2c18.88-2.52,37.88-2.45,56.82-1.61,14.07.62,28.18,1.61,42.06,4.65,16,3.49,30.89,9.25,44.42,18.47a10.34,10.34,0,0,1,2.29,1.91c2.1,2.6,4.28,3,7.37,1.4C1315.73,319.85,1320.24,318.08,1325.14,315.87Z"/><path class="fa7c5020-d0fb-4f5c-88ce-5eb49ddebfb7" d="M1003.06,373.08c-3.17-4.23-7.41-5.93-11.5-7.52a141,141,0,0,0-36.69-9c-11.41-1.16-22.85-2-34.26-3.07-12.23-1.16-24.45-2.5-36.68-3.69-5.29-.51-10.61-.8-15.91-1.23-4-.32-7.94-.71-11.91-1q-17.13-1.5-34.27-3-16.38-1.49-32.75-3c-12.9-1.22-25.79-2.57-38.7-3.69-10.1-.88-20.23-1.41-30.33-2.29-8.27-.73-16.51-1.8-24.77-2.61-5.46-.52-10.94-.88-16.41-1.25-6.3-.42-12.61-.73-18.91-1.16-2.82-.2-5.61-.75-8.42-.86s-3.22.49-3,3.25c.63,7.28,1.37,14.55,2,21.83a2.72,2.72,0,0,0,2.87,2.78c3.65.23,7.28.67,10.93.82,11.48.46,23,.8,34.42,1.22,9.31.34,18.62.68,27.93,1.08,6.14.27,12.28.69,18.42,1,16.12.72,32.24,1.35,48.35,2.08,13,.59,25.9,1.33,38.85,1.93,15.61.72,31.23,1.36,46.85,2l22.43,1q23.67,1,47.35,2,21.93,1,43.85,2c2.16.1,4.29.54,6.45.7A30.84,30.84,0,0,0,1003.06,373.08Z"/><path class="fa7c5020-d0fb-4f5c-88ce-5eb49ddebfb7" d="M314.05,266.93c-4.76-15.58-9.44-30.85-14.07-46.14-1-3.18-1.77-6.41-2.57-9.63a3,3,0,0,0-3.14-2.62c-7.47-.27-14.95-.59-22.43-.85a10.94,10.94,0,0,0-2.24.43c1,3.71,2.08,7.18,2.76,10.74,1.16,6,2.65,12.07,2.91,18.16.35,8.47-3.5,13.65-11.43,16a53.11,53.11,0,0,1-15.19,2.57c-12-.05-24,.17-36-.18a106.18,106.18,0,0,1-17.27-2.16c-6.74-1.31-11.08-5.77-13.58-12.07a74,74,0,0,1-4.48-19.39c-.52-4.76-.68-9.55-1-15-1,0-2.58-.17-4.16-.17-10.67,0-21.35.34-32-.21-4.05-.2-5.53,1.08-7.46,4.27a111.2,111.2,0,0,1-11.31,15.18c-5.9,6.77-12.25,13.16-18.43,19.68-2.51,2.64-2.6,2.66,0,5,5.86,5.17,11.78,10.27,17.68,15.4,4.64,4,9.3,8.06,13.9,12.14,3.16,2.81,3.19,3,6.89.92a123.07,123.07,0,0,1,32.94-12.86c9.07-2,18.31-3.25,27.49-4.73,18-2.91,36.21-2.21,54.32-1.69a238.23,238.23,0,0,1,37.18,3.52C300.05,264.46,306.74,265.61,314.05,266.93Z"/><path class="fa7c5020-d0fb-4f5c-88ce-5eb49ddebfb7" d="M648,357.37c-.93-9.1-1.84-17.64-2.65-26.2-.18-1.93-1.13-2.49-2.9-2.6-3.48-.21-6.94-.65-10.42-.89-6.3-.43-12.61-.73-18.92-1.17-3.48-.24-6.94-.69-10.41-1-10.43-.94-20.85-1.91-31.28-2.77-5.79-.47-11.61-.71-17.41-1.15-7.29-.55-14.57-1.2-21.86-1.8-4.3-.35-8.6-.82-12.91-1-9.47-.45-19-1.48-28.41-1-18.15,1-35.59,5-50.56,16.22a84.27,84.27,0,0,0-8.13,7.35,11.72,11.72,0,0,0-2.16,3.33c-.81,1.67-.32,2.55,1.51,2.71,4.47.39,8.95.77,13.43,1,10.8.45,21.61.79,32.42,1.19,8,.3,15.95.57,23.92,1,10.29.52,20.57,1.16,30.85,1.74,1.17.07,2.34.05,3.5.1l30.42,1.2,23.43.94c9,.35,17.95.67,26.93,1.05,7.14.3,14.27.65,21.41,1,1.32.07,2.63.37,4,.47C643.71,357.19,645.65,357.25,648,357.37Z"/><path class="fa7c5020-d0fb-4f5c-88ce-5eb49ddebfb7" d="M1372.54,223.45a136.34,136.34,0,0,1,17.38,11.92c1.62,1.34,3.42,1,5.22,1.14q18.67,1,37.35,2.1c10.45.62,20.91,1.29,31.36,1.92.81.05,1.62,0,3.07,0a10.79,10.79,0,0,0-1.14-1.85,70.74,70.74,0,0,0-24.35-16.07c-14.16-5.42-28.34-10.79-43-14.39q-28.08-6.89-56.51-12.33c-13.86-2.64-27.93-4.24-41.93-6.07-7.74-1-15.54-1.56-23.31-2.29-10.09-.95-20.18-1.95-30.28-2.78-6.62-.54-13.27-.77-19.91-1.22-8.29-.55-16.57-1.18-24.85-1.78l-1.5-.09c-10-.39-19.95-.76-29.92-1.19-6.15-.26-12.29-.73-18.43-.85a21.82,21.82,0,0,0-6.85,1,131.09,131.09,0,0,1-27.91,5.06c-.59,0-1.18.2-2.5.42,7.57,4,14.77,6.82,22.47,8.22a135.3,135.3,0,0,0,20.8,2.25c8.46.22,16.91,1.11,25.36,1.69,5.31.37,10.62.77,15.93,1.06,8,.43,16,.67,23.92,1.17,6.46.42,12.9,1.12,19.36,1.66,1.82.15,3.66.11,5.48.27,6.46.55,12.91,1.15,19.36,1.71,5.14.45,10.29.69,15.4,1.34q21.26,2.7,42.47,5.71a226.66,226.66,0,0,1,33,7.65,11.31,11.31,0,0,0,2.43.51c9.61.74,19.23,1.36,28.83,2.18s19.17,1.87,28.77,2.7c3.48.31,7,.11,10.48.46,1.51.15,3,1.09,4.42,1.68-.9,2.22-2.86,1.3-4.3,1.22-8.46-.48-16.91-1.14-25.36-1.73-1.67-.12-3.34-.12-5-.27-6.29-.55-12.57-1.15-18.85-1.7C1377.16,223.68,1374.85,223.59,1372.54,223.45Z"/><path class="fa7c5020-d0fb-4f5c-88ce-5eb49ddebfb7" d="M839.75,45.1c5.6,3.25,11.17,6.54,16.8,9.74,14.45,8.22,29,16.33,43.39,24.63,20.49,11.79,40.35,24.62,59.87,37.94,20.06,13.68,39.91,27.68,59.74,41.69,11.27,8,22.34,16.21,33.47,24.38a8.75,8.75,0,0,0,6,1.94c4.31-.3,8.62-.56,12.93-.71s8.66-.09,13-.24a156.42,156.42,0,0,0,19.69-1.59c-2.58-1.87-5.08-3.86-7.75-5.61-20.9-13.65-41.71-27.45-62.8-40.81q-26.35-16.7-53.29-32.47c-14.21-8.32-28.71-16.17-43.27-23.88C918.85,70.22,900,60.59,881.17,51c-6.82-3.45-13.88-6.44-20.92-9.44a11.16,11.16,0,0,0-5.79-.87c-4.89.8-9.7,2.08-14.55,3.17Z"/><path class="fa7c5020-d0fb-4f5c-88ce-5eb49ddebfb7" d="M391.41,160.38c1.38,0,1.87-.54,1.7-2.66-.95-12.09-1.87-24.18-2.87-36.27-.87-10.42-1.89-20.84-2.73-31.27-.53-6.62-.83-13.27-1.26-19.9q-.47-7-1-13.92c-.2-2.48-.42-2.78-3.13-2.66-6,.26-11.95.68-17.92,1-4.32.27-8.63.49-12.93.84-15.54,1.25-11.93-1.17-13.82,13-1.08,8.06-1.81,16.17-2.7,24.26-.07.66-.1,1.32-.12,2-.43,15.47-.83,30.94-1.28,46.41-.08,2.65-.32,5.3-.55,7.95-.25,2.82.23,3.67,3,4.09,5.42.82,10.86,1.48,16.3,2.21,9.05,1.22,18.09,2.48,27.15,3.65C383,159.6,386.82,159.91,391.41,160.38Z"/><path class="fa7c5020-d0fb-4f5c-88ce-5eb49ddebfb7" d="M51.23,464.78c-1.38-1.21-2.8-2.36-4.17-3.57-8.6-7.65-16.61-15.84-22.67-25.72-2.7-4.4-5.2-8.92-7.84-13.34C15,419.51,12.93,417,9.8,416.71c-3.38-.27-4.61-2.08-5.41-4.83-.64-2.24-1.48-4.42-2-6.68C-.51,392.56.61,379.72.48,366.94a2.14,2.14,0,0,1,2-2.42c2.75-.44,3.78-2.27,4.12-4.87.55-4.28,1.28-8.54,2-12.8.47-3,.82-3.39,3.86-3.3,3.31.1,6.61.84,9.91.82,8.56,0,12.9,4.49,15.07,12.39s5.13,15.47,7.53,23.25c1.71,5.56,5.43,8.63,11,9.65,5.17,1,10.39,1.71,15.84,2.59-4.62,25.9-7.15,52.08-3.67,78.91C61.07,470.86,55.82,468.8,51.23,464.78ZM36.11,416.59c4.84-.27,6.91-2.27,7.36-7a43.45,43.45,0,0,0-1.65-15.29c-2.82-10.59-5.56-21.21-8.38-31.81a31.51,31.51,0,0,0-1.82-5.15,8.06,8.06,0,0,0-6.9-5c-4.12-.43-8.21-1.13-12.33-1.66a4.12,4.12,0,0,0-1.94.21A1.54,1.54,0,0,0,9.64,352c0,.41.36,1.2.6,1.21,4.21.3,3.94,3.74,4.63,6.5.17.64.25,1.3.37,2,1.25,6.71,2.26,7.61,9.2,7.87,9.11.34,7.59-1.17,9.92,8.07,2,7.73,3.8,15.49,5.87,23.19a20.53,20.53,0,0,1,0,8.86c-.45,2.69-1.57,3.67-4.41,3.79-3.49.16-7,0-10.48.1a17.41,17.41,0,0,0-4,.29c-.64.15-1.1,1-1.65,1.56.63.41,1.24,1.13,1.88,1.16,2.49.14,5,.06,7.48.06v0C31.45,416.61,33.79,416.72,36.11,416.59Z"/><path class="fa7c5020-d0fb-4f5c-88ce-5eb49ddebfb7" d="M998.32,426.19c-14.63-4.1-28.43-7.05-42.32-9.65a190.45,190.45,0,0,0-33.71-3.12c-11.62-.09-23.23-1.16-34.85-1.61-7.16-.27-14.33-.12-21.49-.29-12.47-.3-25-.69-37.42-1.06-10.8-.32-21.61-.56-32.42-1-10.12-.42-20.23-1.15-30.36-1.63-4.82-.22-9.66-.13-14.49-.24-14.63-.34-29.3-.24-43.9-1.22-10.15-.68-20.27-.6-30.41-.92-6.48-.21-13-.58-19.43-.84a12.17,12.17,0,0,0-3.47.13c-.56.13-1.4,1.2-1.28,1.6q1.79,6,3.94,11.82c.2.55,1.24,1,1.95,1.12a21.34,21.34,0,0,0,3.49.08c8.49.05,17-.34,25.48.25,20.13,1.42,40.28.5,60.41,1,14.64.35,29.27.65,43.91,1,13.81.33,27.61.73,41.42,1,19.3.38,38.6.65,57.91,1q25.2.46,50.41,1c14.47.3,28.94.58,43.41.94,2.82.07,5.62.47,8.43.65C994.78,426.26,996,426.19,998.32,426.19Z"/><path class="fa7c5020-d0fb-4f5c-88ce-5eb49ddebfb7" d="M301.46,147.4q13.25,2.37,26.48,4.74c1.53.28,2.18-.42,2.21-1.86,0-1.17,0-2.33,0-3.5.08-10.83,0-21.67.32-32.49.24-7.46,1-14.91,1.66-22.36q1-12.42,2.21-24.83c.23-2.48.79-4.94,1-7.42s-.45-3.14-2.76-2.94c-6.62.57-13.22,1.33-19.85,1.8-2.55.18-3.3,1.87-4.14,3.7C305.06,70,301.52,77.68,298,85.42c-4,9-8.11,17.89-12,26.91-2.62,6.12-5.08,12.32-7.24,18.61a37.34,37.34,0,0,0-1.4,8.8c-.46,5.33,2.37,8.76,6.8,11.22,5.8,3.21,12.22,4.28,18.61,5.4,7.69,1.35,15.4,2.62,23.13,3.71,6.75,1,13.54,1.55,20.3,2.4,5.93.75,11.84,1.69,17.78,2.42q15.09,1.86,30.2,3.54c6.1.67,12.23,1.19,18.35,1.78.49,0,1,.1,1.49.12,9.47.39,18.95.79,28.42,1.14,10.31.39,20.63.71,30.94,1.1,7.31.28,14.61.67,21.93,1q25.92,1,51.86,2.05l23.43.95c8.65.35,17.29.66,25.93,1q14,.58,27.92,1.25c1.11.05,2.42.8,2.78-1s-.48-3.71-2-4.08a12.13,12.13,0,0,0-2.49-.18c-13.31-.36-26.62-.6-39.93-1.1-10.46-.4-20.91-1.12-31.37-1.7l-1.5,0c-14.47-.42-28.95-.81-43.42-1.26q-14.22-.45-28.44-1c-7-.27-14-.55-20.93-.95-8.79-.5-17.58-1.13-26.37-1.69-1.66-.1-3.33-.15-5-.14a233.66,233.66,0,0,1-28.35-1.9c-10.4-1.22-20.86-2-31.26-3.23-9.23-1.11-18.43-2.59-27.63-3.94-8.72-1.29-17.45-2.45-26.12-4-7.19-1.28-14.34-2.88-21.42-4.65a10.75,10.75,0,0,1-8.07-8.09,10.07,10.07,0,0,1-.13-5.33c2.07-6.31,4.33-12.57,6.82-18.73a83,83,0,0,1,5.19-10.21,9.84,9.84,0,0,1,8-5.29c4.29-.41,8.53-1.45,12.83-1.68,4.6-.25,6.81,2,6.66,6.67-.17,5.65-.71,11.28-1.21,16.92-.53,6.12-1.19,12.24-1.8,18.35A22,22,0,0,1,319,144c-1,3.63-2.9,4.88-6.66,4.3-3.58-.55-7.15-1.21-10.72-1.83C301.55,146.77,301.51,147.08,301.46,147.4Z"/><path class="fa7c5020-d0fb-4f5c-88ce-5eb49ddebfb7" d="M230.66,252.45c6.67,0,13.34.26,20-.1a54,54,0,0,0,12.71-2.18c6.74-2.06,9.11-5.66,9-12.63-.19-9.23-2.51-18.08-5.06-26.88-.65-2.26-2-3.36-4.37-3.08a4.17,4.17,0,0,1-.5,0l-76.9-1c-.83,0-1.66,0-2.49,0a3,3,0,0,0-3.29,3,24.21,24.21,0,0,0-.1,6.47c1.22,7.2,2.33,14.46,4.18,21.52,2.3,8.77,8,13.1,17.47,13.78,9.78.7,19.59,1.08,29.38,1.59C230.65,252.8,230.66,252.62,230.66,252.45Z"/><path class="fa7c5020-d0fb-4f5c-88ce-5eb49ddebfb7" d="M1339.29,309.5c-1.08-1.3-1.75-2.21-2.52-3a127.8,127.8,0,0,0-57.15-34.33c-12-3.46-24.3-5.32-36.7-6.73-18.38-2.09-36.8-3.45-55.28-2.71-22.48.91-44.81,3.17-66.31,10.41a121.68,121.68,0,0,0-35.86,19.39,129.46,129.46,0,0,0-33.65,39.1,20.67,20.67,0,0,0-2.41,9c-.64,8.77-1.66,17.53-2.56,26.29a114.9,114.9,0,0,0-.88,13.44c1-3.67,2.12-7.34,3.16-11,4.45-15.66,10.82-30.44,20.4-43.68a115,115,0,0,1,49.4-39.28c13.62-5.72,27.89-9,42.46-10.72a239.08,239.08,0,0,1,25.4-1.27c11.5-.16,23-.19,34.49.2,7.46.26,14.89,1.32,22.33,2.12,3.29.36,6.56,1,9.85,1.47a147.26,147.26,0,0,1,43.73,13.39,113.14,113.14,0,0,1,26.47,18.59,28.58,28.58,0,0,0,3.25,3.09,4,4,0,0,0,3.1.62C1333.06,312.68,1336,311.11,1339.29,309.5Z"/><path class="fa7c5020-d0fb-4f5c-88ce-5eb49ddebfb7" d="M115.86,147.22a75.64,75.64,0,0,0,20.61-8.37c7.23-4.28,13.37-9.83,19.52-15.45,14.36-13.13,28.65-26.34,44.07-38.26a67,67,0,0,1,32.78-13.65C245,69.88,257.19,68,269.4,66.65c9.24-1,18.54-1.51,27.82-2.23.67,0,1.33,0,2-.1,3.65-.31,6.71-1.11,7.67-5.53.55-2.51,2.2-4.78,3.45-7.34-2.08-1.4-4.06-.74-5.93-.57-5.62.5-11.24,1.07-16.85,1.63q-14.13,1.38-28.26,2.79c-7.61.76-15.22,1.43-22.81,2.36-11,1.35-22.08,2.84-33.1,4.39-4.93.69-9.82,1.66-14.73,2.53a15.49,15.49,0,0,0-10,5.79c-11,13.57-22.46,26.74-33.6,40.19-7.31,8.84-14.38,17.88-21.54,26.84C121.17,140.36,118.87,143.36,115.86,147.22Z"/><path class="fa7c5020-d0fb-4f5c-88ce-5eb49ddebfb7" d="M659.56,172c3.8.31,4.39-.37,3.31-4.21q-3.52-12.49-7.26-24.94Q644.87,107,634.08,71.14c-1.91-6.38-3.75-12.78-5.65-19.16-1-3.34-1-3.32-4.39-3.5-4.31-.24-8.62-.6-12.94-.71-3.59-.09-3.78.26-3.2,3.65,1.57,9.18,3.09,18.36,4.71,27.52,2.93,16.54,5.92,33.06,8.87,49.59q3.49,19.64,7,39.28c.57,3.27.61,3.44,4.17,3.55,4.67.14,9.34.09,14,.2C650.94,171.66,655.25,171.87,659.56,172Z"/><path class="fa7c5020-d0fb-4f5c-88ce-5eb49ddebfb7" d="M626,169.74c-1.81-9.85-3.67-19.62-5.42-29.42-3.09-17.32-6.07-34.66-9.17-52-2.29-12.75-4.7-25.47-7-38.21-.28-1.54-.82-2.43-2.51-2.43q-8,0-16-.08c-2.08,0-2.52,1.17-2.4,2.9.39,5.47.71,10.94,1.18,16.4s1.22,10.89,1.62,16.34c.83,11.43,1.39,22.88,2.29,34.3,1.13,14.39,2.49,28.77,3.72,43.15.19,2.15.18,4.32.27,6.48.06,1.35.66,2.2,2.11,2.24l30.36.9C625.19,170.33,625.32,170.16,626,169.74Z"/><path class="fa7c5020-d0fb-4f5c-88ce-5eb49ddebfb7" d="M448.7,414.05a13.1,13.1,0,0,0,2,.49c14.64.34,29.28.71,43.93,1,21,.39,42,.67,62.94,1.08,13,.25,26,.67,38.95,1,18.78.47,37.56.91,56.71,1.37a13.57,13.57,0,0,0-.25-2.73c-1.08-3.15-2.43-6.21-3.34-9.41-.67-2.38-2-3.18-4.31-3.16q-8,.07-16-.1-21.47-.51-42.93-1.13c-10-.29-20-.65-29.94-1-10.48-.34-21-.66-31.43-1-7-.25-14-.52-20.94-.89A72,72,0,0,0,479,402.6,240.93,240.93,0,0,0,448.7,414.05Z"/><path class="fa7c5020-d0fb-4f5c-88ce-5eb49ddebfb7" d="M853.78,37.6a40.09,40.09,0,0,0-14.36-5.74c-9.24-2.08-18.58-3.69-27.92-5.25-7.86-1.32-15.77-2.4-23.67-3.41s-15.52-1.81-23.29-2.61c-9.25-.95-18.52-1.8-27.78-2.68-1.49-.14-3-.22-4.48-.33l-26.86-1.84c-.33,0-.66-.05-1-.06-9.65-.37-19.28-.85-28.93-1.08-19.14-.46-38.3-.43-57.42-1.24-33.8-1.44-67.61-.49-101.42-.58-14,0-27.95.57-41.93.94-9.31.26-18.62.6-27.93.95q-12.72.47-25.43,1c-7.15.31-14.29.57-21.43,1-13.27.84-26.53,1.81-39.79,2.69-6.14.41-12.29.67-18.43,1.09-8.78.6-17.56,1.3-26.34,2q-7.45.54-14.92,1c-6.47.41-13,.66-19.42,1.21-9.43.8-18.85,1.79-28.27,2.73-3.14.32-6.29.6-9.4,1.14-.92.17-1.69,1.16-3.34,2.35a22,22,0,0,0,3.34.45c5-.36,9.95-.73,14.91-1.2s9.89-1.2,14.86-1.58c6.79-.52,13.61-.8,20.41-1.21q17.18-1,34.34-2.07c10.62-.64,21.24-1.35,31.86-1.94q19.17-1.07,38.36-2c8.14-.39,16.28-.65,24.42-1.07,9.46-.5,18.91-1.13,28.37-1.69.5,0,1,0,1.5-.05,18-.4,36-.5,53.92-1.26,32.63-1.37,65.27-.84,97.91-.69,13.65.06,27.29.58,40.94,1q12.21.34,24.43.93c13.29.63,26.58,1.2,39.85,2.1,9.61.65,19.19,1.78,28.78,2.71,10.75,1.05,21.53,1.83,32.22,3.24,18.79,2.47,37.6,5,55.69,11.05.15.06.32.08.48.14,3.26,1.23,6.52,2.48,9.8,3.67a2.75,2.75,0,0,0,1.48,0C842.88,40.24,847.84,39,853.78,37.6Z"/><path class="fa7c5020-d0fb-4f5c-88ce-5eb49ddebfb7" d="M159.4,66.28c-37,29.51-70,62.63-101.42,97.66,4.5-1,9.07-1.74,13.49-3,8.47-2.43,16.86-5.15,25.28-7.74,3.5-1.08,7-2.24,10.51-3.17a11.24,11.24,0,0,0,6.06-4.12c9.65-12.08,19.23-24.21,29-36.21q9.27-11.43,19-22.5c1.91-2.19,3-4.19,2.12-7.15C162.11,75.64,161.69,71,159.4,66.28Z"/><path class="fa7c5020-d0fb-4f5c-88ce-5eb49ddebfb7" d="M100.09,476.14c.1-1.75.26-3.2.26-4.64,0-6.66-.17-13.33,0-20a273.9,273.9,0,0,1,4.37-41.59c.83-4.58,1.69-9.14,2.47-13.73.45-2.69,0-3.34-2.71-3.48-2.83-.15-5.66,0-8.49-.17-5.14-.25-10.28-.61-15.42-.9-1.16-.07-2.33,0-3.5-.06-1.61,0-2.34.69-2.58,2.32-.92,6.25-2.18,12.45-2.89,18.71-1.54,13.72-2.59,27.48-2.08,41.3.19,5.15.76,10.28,1.09,15.41.13,2,1,3,3,3.2,5.12.55,10.22,1.21,15.32,1.9C92.55,474.91,96.12,475.52,100.09,476.14Z"/><path class="fa7c5020-d0fb-4f5c-88ce-5eb49ddebfb7" d="M947.65,136.76c-4.83-3.22-9.62-6.52-14.51-9.66-11.48-7.36-22.9-14.82-34.54-21.92-10.37-6.33-20.93-12.33-31.52-18.28-7-3.91-14.11-7.5-21.22-11.16a272.74,272.74,0,0,0-70.32-25.08c-8.77-1.8-17.69-2.95-26.58-4-9.73-1.18-19.5-2-29.26-2.86-4.79-.43-9.61-.72-14.42-1-7.64-.43-15.28-.78-22.92-1.18C670.91,41,659.47,40.2,648,39.77c-8.82-.32-17.66-.15-26.49-.33-4.31-.09-8.62-.51-12.94-.69-1.08,0-2.53-.35-2.87,1.24-.38,1.77,1.31,4.36,2.93,4.48,4.48.33,9,.67,13.44.8,6.49.18,13,0,19.49.31,10.95.45,21.9,1.12,32.85,1.69l1.5,0c9.81.41,19.65.41,29.41,1.33,15,1.41,30.2,1.73,45.1,4.54,11.6,2.18,23.31,3.86,34.76,6.63a245.85,245.85,0,0,1,41,14.07c26.28,11.56,51.1,25.78,75.21,41.27,9.24,5.94,18.41,12,27.56,18.07a13.86,13.86,0,0,0,7.42,2.39,100,100,0,0,1,10.8,1.57Z"/><path class="fa7c5020-d0fb-4f5c-88ce-5eb49ddebfb7" d="M319.26,283.76c-.64-2-1.19-3.72-1.76-5.44-2.57-7.72-2.53-8-10.64-9.36-10.15-1.74-20.37-3-30.57-4.44-17.7-2.46-35.53-2.52-53.31-1.81-22,.87-43.75,3.74-64.51,11.7a144.37,144.37,0,0,0-18.18,8.45c3.16,2.61,5.8,5,8.72,7.06.82.57,2.58.2,3.72-.22,3.27-1.23,6.43-2.73,9.65-4.09,11.92-5,24.54-7.2,37.21-9.15,19.69-3,39.53-2.52,59.3-1.78a218.48,218.48,0,0,1,53.57,8.3c1.76.51,3.55.89,5.34,1.27C318.07,284.31,318.4,284.06,319.26,283.76Z"/><path class="fa7c5020-d0fb-4f5c-88ce-5eb49ddebfb7" d="M133,40.79c2.32.91,3.47,1.46,4.68,1.84,18.24,5.67,36.5,11.25,54.7,17,3,1,5.6-.12,8.32-.42,9.89-1.12,19.73-2.64,29.61-3.79,2.28-.27,3.25-1.28,3.64-3.28,1.4-7,2.81-14,4.14-21,.35-1.84-.33-2.58-2.12-2.38-10.22,1.14-20.43,2.29-30.63,3.51-8.56,1-17.12,2.14-25.67,3.25-6.91.9-13.79,2-20.71,2.77-7.41.85-14.86,1.46-22.29,2.18C135.87,40.58,135.06,40.63,133,40.79Z"/><path class="fa7c5020-d0fb-4f5c-88ce-5eb49ddebfb7" d="M318.64,271.67c1.43,4.59,2.69,8.52,3.88,12.47.62,2.1,2.43,2.55,4.13,3.21a118.71,118.71,0,0,1,23.83,12.43,126.5,126.5,0,0,1,25.61,23.56c12.54,14.77,19.84,32.16,25.38,50.42,1.93,6.35,3.39,12.85,5.09,19.28.8,3,1.05,3.21,4,3.36,1.49.07,3,.08,4.49,0,3-.12,3.63-.68,3-3.64-1.58-7.31-3.1-14.64-5.17-21.82A172.59,172.59,0,0,0,401,339.77c-7-13.7-15.51-26.36-26.87-36.92a125.21,125.21,0,0,0-24.85-18.27C339.8,279.38,330.06,274.68,318.64,271.67Z"/><path class="fa7c5020-d0fb-4f5c-88ce-5eb49ddebfb7" d="M1399,268.86c3.35,6.46,6.19,12.08,9.16,17.61,1.73,3.22,3.69,6.31,5.53,9.46a5,5,0,0,0,4,2.53c11.32,1.67,22.62,3.42,33.9,5.32a6.69,6.69,0,0,0,5.17-1c3.16-2.14,6.27-4.36,9.36-6.6a5,5,0,0,0,2.17-4.26c0-4.65.08-9.31,0-14-.07-2.58-.66-3-3.38-3.28-8.42-.74-16.86-1.38-25.28-2.18-8.91-.83-17.81-1.85-26.72-2.69C1408.61,269.37,1404.33,269.2,1399,268.86Z"/><path class="fa7c5020-d0fb-4f5c-88ce-5eb49ddebfb7" d="M312.06,55.23c1.74,0,3.35.09,4.95,0,7.79-.55,15.57-1.17,23.35-1.75l24.85-1.84q.75-.06,1.5-.09c9.47-.38,19-.67,28.41-1.16,9.13-.48,18.24-1.16,27.36-1.74.33,0,.67,0,1-.05,11.14-.37,22.27-.8,33.41-1.1,16-.44,31.94-.78,47.91-1.16,13.13-.32,26.3-.19,39.4-1.06,18.14-1.21,36.28-.4,54.41-.75l2,0c1.48,0,2.61-.37,2.64-2.2,0-2.23-.65-3.3-2.56-3.52a25,25,0,0,0-3-.06c-12.65,0-25.31-.11-38,0-16.47.21-32.94.6-49.41,1-12,.28-23.95.56-35.92,1.05-10.12.4-20.24,1.1-30.36,1.67-.49,0-1,0-1.49.05-11.14.39-22.28.69-33.42,1.19-12.62.57-25.23,1.27-37.84,2q-15.18.9-30.33,2c-7.79.57-15.56,1.29-23.35,1.91C314.14,49.9,314.13,49.88,312.06,55.23Z"/><path class="fa7c5020-d0fb-4f5c-88ce-5eb49ddebfb7" d="M1310.69,325.84c3,3.69,5.91,6.92,8.52,10.34,10.67,14,17,30,21.15,47,1.66,6.77,2.82,13.66,4.13,20.52.66,3.42.63,3.55,4.06,3.64s7,.1,10.49,0c3.21-.06,3.71-.65,3.18-4-.66-4.1-1.45-8.18-2.26-12.25-2.94-14.71-6.89-29.14-12.91-42.91a122,122,0,0,0-17.41-27.84c-2-2.51-2.15-2.39-5.31-.89C1319.86,321.58,1315.36,323.66,1310.69,325.84Z"/><path class="fa7c5020-d0fb-4f5c-88ce-5eb49ddebfb7" d="M7,292.93c3.91,1.67,7.92,1.61,11.87,1.47a6,6,0,0,0,3.78-1.92c4.75-5.19,7.65-11.2,7.75-18.42,0-3.65.28-7.31.65-10.95A2.89,2.89,0,0,0,29.27,260c-4.63-2.81-4.87-3.48-4.05-8.74a17.23,17.23,0,0,0,.1-2.49c0-12.16,0-24.32.06-36.49,0-2.14.48-4.28.64-6.43.38-4.9,3.28-8.14,6.87-11.09,6.91-5.65,15.16-7.3,23.68-8.25,2.81-.32,5.62-.7,8.43-.81a6.72,6.72,0,0,0,4.83-2.19c7.91-8.18,17.23-14.62,26.39-21.26a50.16,50.16,0,0,0,9.35-8.41,28.4,28.4,0,0,0-3,.62c-11.13,3.43-22.22,7-33.41,10.29-3.79,1.1-7.83,1.42-11.77,2a26.34,26.34,0,0,0-11.67,4,92.83,92.83,0,0,0-20.86,19.92,83.27,83.27,0,0,0-6.25,9,16.16,16.16,0,0,0-2,6c-.49,3.82-.26,3.91,3.54,5,3.64,1,4.31,1.72,4.26,5.62-.17,12.14-.48,24.27-.7,36.41-.12,6.33-.28,12.66-.21,19,.09,6.81-2.88,11.72-8.52,15.36C12.17,288.77,8.74,289.67,7,292.93Z"/><path class="fa7c5020-d0fb-4f5c-88ce-5eb49ddebfb7" d="M84.56,188.58c5.16,0,10.32.13,15.48,0,12.75-.41,21.8,6.92,30.74,14.5a3.31,3.31,0,0,1,.56,4.54,50.72,50.72,0,0,1-3.12,5.1,254.12,254.12,0,0,1-30.74,34c-5.2,4.78-11,8.65-18.29,9.54a134.91,134.91,0,0,1-13.9,1.13c-9.65.17-19.31,0-29,.1a19.6,19.6,0,0,1-6.73-1.32c-1.65-.58-2.13-1.09-1.69-2.79a14.92,14.92,0,0,0,.41-4.37c-.16-3-.8-5.94-.75-8.9.18-10.3.74-20.6.81-30.9,0-5.56,2.46-9.32,6.79-12.51,6.29-4.66,13.47-6.42,21-7,9.44-.73,18.91-1.09,28.37-1.6C84.54,188.23,84.55,188.4,84.56,188.58Zm-23.07,3.55c-2.49.21-5,.21-7.49.29a15.89,15.89,0,0,0-15.62,14.93c-.13,1.66,0,3.34-.12,5-.23,5.14-.73,10.29-.7,15.43a115.54,115.54,0,0,0,1.07,14.39,14.76,14.76,0,0,0,2.45,5.4,6.15,6.15,0,0,0,5.38,3.06q11.73.33,23.43.84a82.11,82.11,0,0,1,9.4.88c3.94.64,7.36-.83,10.34-2.84a36.34,36.34,0,0,0,8.86-7.93c6.55-8.8,12.91-17.77,18.78-27,6-9.46,3.94-12.21-3.48-17.34a35.5,35.5,0,0,0-20-6.79c-2.5,0-5,0-7.49,0l0-.45C78,190.69,69.75,191.45,61.49,192.13Z"/><path class="fa7c5020-d0fb-4f5c-88ce-5eb49ddebfb7" d="M906.86,158.29a7.85,7.85,0,0,0-.31,1.27c-.19,4.62-.17,4.5,4.51,4.86,11.76.91,23.52,1.91,35.28,2.91,7.95.68,15.89,1.42,23.83,2.15a11.8,11.8,0,0,1,2.45.38c1.65.51,2,1.76.89,3-2.07,2.36-4.59,3.88-7.87,3.58-5.13-.47-10.25-1-15.38-1.48q-6.21-.58-12.41-1.09-14.18-1.18-28.33-2.32a22.43,22.43,0,0,0-3,.24c.91,3.86,1.44,7.46,2.62,10.83,2,5.71,6.88,8,12.4,8.68,7.41.9,14.89,1.34,22.34,1.94a14.25,14.25,0,0,0,6.76-1.32c5.84-2.41,11.77-4.62,17.74-6.67,4.26-1.47,7.28-3.79,8-8.51.53-3.26,1.41-6.47,2-9.73.26-1.58-.71-2.4-2.34-2.52-3.65-.27-7.29-.61-10.93-.92l-20.86-1.77c-5-.41-10-.82-14.93-1.18-5.64-.4-11.29-.69-16.92-1.17A43.05,43.05,0,0,1,906.86,158.29Z"/><path class="fa7c5020-d0fb-4f5c-88ce-5eb49ddebfb7" d="M913.06,191.33c-1.59-1.1-3.06-1.61-3.66-2.62-1.87-3.14-4.72-3-7.78-3.11-10.81-.29-21.62-.75-32.43-1.18-7.31-.28-14.63-.57-21.93-.95-10.3-.53-20.58-1.15-30.87-1.73l-1.5-.08c-12.48-.39-25-.67-37.43-1.21-9-.39-17.91-1.12-26.87-1.7l-1.5-.07c-12.81-.4-25.62-.71-38.43-1.23-10.46-.44-20.91-1.13-31.37-1.71l-1.5-.06c-12.47-.4-24.95-.76-37.42-1.22-2.66-.09-5.29-.54-7.94-.73-1.1-.08-2.71-.33-2.67,1.35s.15,3.49,2.12,4.11a11.31,11.31,0,0,0,3,.19c14,.41,27.95.73,41.92,1.25s28.24,1.28,42.36,1.91c8.31.37,16.62.66,24.93,1,15.12.65,30.24,1.34,45.36,2,8.48.37,17,.63,25.44,1,11.12.55,22.24,1.2,33.36,1.79q18.18,1,36.36,1.87c1.67.09,3.34.05,5,.13,5.64.3,11.28.65,16.93.92C908.49,191.41,910.47,191.33,913.06,191.33Z"/><path class="fa7c5020-d0fb-4f5c-88ce-5eb49ddebfb7" d="M1498.84,465.32c-5.25.6-10.51,1.17-15.76,1.83-4.46.56-6.77-1.19-6.7-5.65a17.34,17.34,0,0,1,1.38-5.73c1.79-4.63,3.76-9.2,5.88-14.33-1.83,0-3.22-.07-4.6,0-5.64.31-11.28.73-16.92,1a10.59,10.59,0,0,0-7.86,3.84c-4.9,5.86-9.6,11.9-14.16,18-2.47,3.32-1.95,7.32-1.33,11.11.44,2.7,1.94,3.94,4.94,4,4.32.09,8.66-.12,13-.31,2.31-.09,4.62-.43,6.94-.62,8.28-.65,16.56-1.25,24.83-2a5.89,5.89,0,0,0,3.61-1.33c2.67-2.86,5-6,7.54-9Z"/><path class="fa7c5020-d0fb-4f5c-88ce-5eb49ddebfb7" d="M147.31,292.59c-3.17-2.64-5.8-4.93-8.58-7a2.79,2.79,0,0,0-2.59,0,151.67,151.67,0,0,0-12.35,9.31,127.16,127.16,0,0,0-31.53,42.61c-7.05,15.23-11.52,31.2-15.44,47.39-.69,2.84-.33,3.24,2.44,3.5,7.43.71,7.33.68,9.25-6.56,4.24-16,9.23-31.62,17.24-46.19a117.9,117.9,0,0,1,31.77-36.66C140.47,296.81,143.63,295,147.31,292.59Z"/><path class="fa7c5020-d0fb-4f5c-88ce-5eb49ddebfb7" d="M1330.46,316.79c2.2,2.89,4.17,5.5,6.17,8.08,7.52,9.69,12.84,20.56,17.08,32,5.7,15.33,8.84,31.3,11.71,47.34.55,3.08.51,3.11,3.75,3.19,1.66.05,3.33.06,5,0,3-.13,3.54-.62,3-3.65-1-5.91-2-11.8-3.24-17.64-3.32-15.3-7.61-30.31-13.9-44.68a134.14,134.14,0,0,0-14.86-25.34c-.79-1.06-1.79-2-2.68-3a2.32,2.32,0,0,0-3.12-.48C1336.6,314,1333.74,315.28,1330.46,316.79Z"/><path class="fa7c5020-d0fb-4f5c-88ce-5eb49ddebfb7" d="M907.67,156.22l69.26,5.28c-.67-2.28-2.29-3.19-3.44-4.42a49,49,0,0,0-4-3.8,64.81,64.81,0,0,0-21.79-12.69,45.59,45.59,0,0,0-19.2-1.81c-6.84.73-11.92,4.87-16.3,9.76C910.44,150.56,908.27,152.58,907.67,156.22Z"/><path class="fa7c5020-d0fb-4f5c-88ce-5eb49ddebfb7" d="M388,54c.52,7.79.93,15.26,1.52,22.72.82,10.43,1.79,20.86,2.68,31.29.37,4.3.78,8.6,1.06,12.91q1.17,17.92,2.23,35.85c.25,4.2.4,4.43,4.67,4.58a20.65,20.65,0,0,0,2.49-.06,5.33,5.33,0,0,0,1.23-.59c-.76-9.26-1.54-18.66-2.29-28.06q-.6-7.45-1.13-14.92c-.42-6.14-.73-12.28-1.19-18.42-.5-6.62-1.16-13.24-1.68-19.86-.51-6.47-1-12.94-1.37-19.41C395.89,53.19,395.62,52.9,388,54Z"/><path class="fa7c5020-d0fb-4f5c-88ce-5eb49ddebfb7" d="M349.55,16.44a99.69,99.69,0,0,0-27-14.53C316-.36,309.05.44,302.24.87c-1.82.12-3.61.59-5.43.74a2.24,2.24,0,0,0-2.33,2.59c0,1.17,0,2.34,0,3.5.07,4.33.28,8.68-2.39,13.34,10.25-.87,19.72-2,29.22-2.41S340.08,17.12,349.55,16.44Z"/><path class="fa7c5020-d0fb-4f5c-88ce-5eb49ddebfb7" d="M667.09,242.2a10.48,10.48,0,0,1-8.38-7.69c-.75-2.54-.06-3.63,2.72-4,8.11-1.21,16.25-1.69,24.28.43A94.79,94.79,0,0,0,706,233.55c9.64.42,19.29.72,28.93,1.16,2.49.12,5,.59,7.43.86,1.43.15,2.86.58,2.86,2.18a8.6,8.6,0,0,1-1.14,4.08,3.81,3.81,0,0,1-2.58,1.34c-3.29.45-6.63,1.11-9.91.92-6.13-.36-12.22-1.29-18.34-1.91-10.45-1.07-20.9-1.7-31.26.89a9.06,9.06,0,0,1-1.47.27c-2.74.23-3.76-.49-3.84-3.23-.06-2.13.39-4.28.47-6.43,0-.59-.45-1.19-1.13-2.88-.69,4.8-1.21,8.37-1.78,12.33C671.36,242.77,669.19,242.64,667.09,242.2Zm1.81-2.78a3.87,3.87,0,0,0,3.33-3.69,3.77,3.77,0,0,0-3.76-3.23c-1.88,0-3.76,1.72-3.69,3.3A4.42,4.42,0,0,0,668.9,239.42Z"/><path class="fa7c5020-d0fb-4f5c-88ce-5eb49ddebfb7" d="M19.28,317.3c0-5.33,0-10.65,0-16,0-3.45-.11-3.37-3.67-3.78-3-.34-5.92-.86-8.86-1.34-1.28-.21-2,.37-2,1.53C5,311,3,324.37,7.17,337.38c1,3.26,1,3.26,4.38,1.94a14.44,14.44,0,0,1,2.33-.84c6.26-1.22,5.36-.89,5.37-7.19v-14Z"/><path class="fa7c5020-d0fb-4f5c-88ce-5eb49ddebfb7" d="M319.37,108.55c0-.5.05-1,.06-1.5.07-5.12-1.74-6.51-6.75-5.33a3.68,3.68,0,0,0-3,2.94c-2.65,11-5.35,21.94-8,32.92a20,20,0,0,0-.3,3.47,2.24,2.24,0,0,0,1.88,2.54,78.14,78.14,0,0,0,8.76,1.78c2.95.3,3.72-.58,4.18-3.63.32-2.14.65-4.27.85-6.42C317.86,126.4,318.6,117.47,319.37,108.55Z"/><path class="fa7c5020-d0fb-4f5c-88ce-5eb49ddebfb7" d="M182.6,203.42h5.71c16,0,31.95,0,47.92.16,7.31.07,14.61.55,21.91.8,1.59.05,3.19-.08,5.15-.14-.77-2.58-2.37-3.45-4-4.25a30.62,30.62,0,0,0-12.43-3.37c-12.13-.39-24.26-.88-36.39-.81a136.07,136.07,0,0,0-19.28,1.89C187.07,198.32,185.66,199.63,182.6,203.42Z"/><path class="fa7c5020-d0fb-4f5c-88ce-5eb49ddebfb7" d="M1401.22,248.61c-2,0-4-.14-6,0a3.59,3.59,0,0,0-3.57,3.45c0,1.9,1.16,3.19,3.42,3.42,3.63.38,7.28.6,10.91.9,7.27.59,14.54,1.22,21.81,1.79,5.46.42,10.93.78,16.39,1.17l11.41.82c2.47.18,4.25-.68,4.5-2.17.38-2.31-1.75-5.95-3.73-6.32a12.17,12.17,0,0,0-1.49-.09c-5.8-.31-11.59-.65-17.39-.94-8.46-.42-16.91-.76-25.37-1.24-3.63-.2-7.25-.67-10.88-1Z"/><path class="fa7c5020-d0fb-4f5c-88ce-5eb49ddebfb7" d="M1046.41,343.74a127.38,127.38,0,0,0-12.21,33.76c-2.06,9.73-4.22,19.45-6.27,29.19-.7,3.35-.39,3.63,3.15,3.79.66,0,1.33,0,2,0,4.38,0,4.56-.26,5.25-4.72,1.53-10,3.22-20,4.68-30,.67-4.59.92-9.24,1.4-13.86.45-4.45.94-8.9,1.42-13.35C1046,347,1046.21,345.36,1046.41,343.74Z"/><path class="fa7c5020-d0fb-4f5c-88ce-5eb49ddebfb7" d="M298.07,146.29c.42-3.66.48-6.82,1.18-9.83,2.35-10.2,5-20.34,7.42-30.51.74-3,.1-3.6-2.85-3a10.11,10.11,0,0,0-7.07,5.07,121.45,121.45,0,0,0-10.91,26.18c-1.27,4.44.68,8.35,4.84,10.35C293,145.69,295.53,146.74,298.07,146.29Z"/><path class="fa7c5020-d0fb-4f5c-88ce-5eb49ddebfb7" d="M47.9,465.61c-1.31-1.24-2.54-2.59-3.94-3.72-11.84-9.54-20.52-21.6-27.87-34.75a38,38,0,0,0-4.49-5.9,4.35,4.35,0,0,0-2.5-1.46,4.62,4.62,0,0,0-3.17.62c-.47.37-.39,1.91-.08,2.75,1.05,2.8,2.27,5.53,3.5,8.25,1.59,3.53,3,7,1.31,11-.88,2.06.46,3.52,2.1,4.55,6,3.79,12.08,7.62,18.23,11.24,4,2.36,8.17,4.43,12.31,6.55,1.3.66,2.72,1.09,4.08,1.62C47.56,466.11,47.73,465.86,47.9,465.61Z"/><path class="fa7c5020-d0fb-4f5c-88ce-5eb49ddebfb7" d="M1471.89,249.64c-.38-1.85-.59-2.82-.77-3.79a2.53,2.53,0,0,0-2.87-2.18c-.66,0-1.33,0-2,0-14.44-.73-28.88-1.39-43.32-2.23-7.62-.44-15.23-1.2-22.85-1.76-1.62-.13-3.27,0-5,0,1.46,5.3,1.88,5.52,6.55,5.8,8.95.53,17.89,1.24,26.84,1.83,4.81.32,9.62.54,14.43.8Z"/><path class="fa7c5020-d0fb-4f5c-88ce-5eb49ddebfb7" d="M1050,184.91c-5.69-4.14-10.88-8-16.18-11.69a7.85,7.85,0,0,0-4-1.5c-8.79-.14-17.58-.07-27.23-.07,6.23,4.94,11.85,9.43,17.53,13.84a3.83,3.83,0,0,0,2.31.65c8.79-.21,17.58-.49,26.37-.76A9.83,9.83,0,0,0,1050,184.91Z"/><path class="fa7c5020-d0fb-4f5c-88ce-5eb49ddebfb7" d="M683.73,226.91c6.47,2.89,35.92,5.35,42.29,3.69-2.58-6.95-8.44-9.13-14.89-9.83a128.65,128.65,0,0,0-15.47-.21C690.83,220.62,687.22,223.15,683.73,226.91Z"/><path class="fa7c5020-d0fb-4f5c-88ce-5eb49ddebfb7" d="M187.41,61.26c-4.56-1.31-8.64-2.39-12.67-3.67-15-4.77-30.29-8.84-44.78-15.19-2.53-1.1-3.26-.67-3.92,1.78-.49,1.81.57,2.43,1.91,2.88q11.33,3.81,22.66,7.57c7.71,2.57,15.56,4.81,23.09,7.82C178.46,64.36,182.56,63.89,187.41,61.26Z"/><path class="fa7c5020-d0fb-4f5c-88ce-5eb49ddebfb7" d="M981.61,161a25.51,25.51,0,0,1,0,3.52c-.43,3.05,1,5,3.39,6.65,5.52,4,10.93,8.13,16.38,12.22,1.06.8,2,1.78,3.13,2.47a8.35,8.35,0,0,0,3.53,1.53c3.26.22,6.54.08,9.66.08C1015.18,184.76,985.53,162.86,981.61,161Z"/><path class="fa7c5020-d0fb-4f5c-88ce-5eb49ddebfb7" d="M684.67,245.61c2.52,4.13,5.75,6,9.41,6.42,8.24.84,16.55,1.37,24.72-.7a11.48,11.48,0,0,0,3.94-2,3.45,3.45,0,0,0,1.08-2.46c0-.39-1.23-1-2-1.13-3.62-.44-7.25-.92-10.88-1-6.47-.18-12.94-.18-19.41-.08A57.13,57.13,0,0,0,684.67,245.61Z"/><path class="fa7c5020-d0fb-4f5c-88ce-5eb49ddebfb7" d="M1497.55,404.56c-.62,2.22-1.19,4.47-1.87,6.67-2.27,7.29-4.35,14.64-7,21.8-1.72,4.75-2.22,9.82-4.41,14.44-1.69,3.59-3,7.36-4.39,11.11-.73,2.05-.06,2.88,2,2.74a31.1,31.1,0,0,0,3.91-.69c3.86-.76,3.58-.76,3.67-4.95a63.74,63.74,0,0,1,1.42-10.31c2.5-13.51,5.07-27,7.62-40.5Z"/><path class="fa7c5020-d0fb-4f5c-88ce-5eb49ddebfb7" d="M57.66,387c-4.49-5.39-6-11.3-7.81-17.12-2-6.35-4.3-12.58-6.51-18.84a12.9,12.9,0,0,0-9.1-8.44,40.42,40.42,0,0,0-16.17-1.73c3.81.6,7.15,1,10.43,1.68,4.3.93,7.68,3.22,9.23,7.53,2,5.46,3.86,10.94,5.71,16.44,1.47,4.41,2.74,8.89,4.26,13.28S52.43,386.26,57.66,387Z"/><path class="fa7c5020-d0fb-4f5c-88ce-5eb49ddebfb7" d="M994.19,181.57c3.28,8.06-2.75,9.47-7.39,12.43,2.16.95,4.08.45,5.87.67a56,56,0,0,0,5.92.61c6,.13,11.94.16,17.91.2,3.09,0,6.18,0,9.41,0a34.63,34.63,0,0,0-3.61-3.77,5.89,5.89,0,0,0-3.13-1.08c-2.64-.18-5.3-.13-8-.18-3.89-.09-7.48-.79-10.4-3.81C999.15,184.94,997,183.69,994.19,181.57Z"/><path class="fa7c5020-d0fb-4f5c-88ce-5eb49ddebfb7" d="M990.89,187a28,28,0,0,0-2.87-.44c-1.82-.09-3.75.27-5.47-.17-5.35-1.37-10.12.13-14.92,2.26-3.63,1.6-7.44,2.82-11.84,4.45a72.93,72.93,0,0,0,22.56.93c4.78-.51,8.89-3.23,12.87-5.82Z"/><path class="fa7c5020-d0fb-4f5c-88ce-5eb49ddebfb7" d="M167.1,80.31l11.13-13.59-15.92-5.33C162.26,65.18,165,75.78,167.1,80.31Z"/><path class="fa7c5020-d0fb-4f5c-88ce-5eb49ddebfb7" d="M1386.33,249.73c-.13,4.09,1.33,7.66,2.93,11.1,2.58,5.56,5.41,11,8.19,16.47a5.94,5.94,0,0,0,1.56,1.86c.26.22.91.07,1.34-.07.15,0,.29-.62.19-.84-.94-1.93-2-3.82-2.92-5.76-2.67-5.52-5.48-11-7.92-16.61-2.08-4.81-1.25-7,3-10.12,1.51-1.11,1.59-2,.33-3.63s-2.45-1.94-3.78-.86C1386.49,243.52,1386.17,246.63,1386.33,249.73Z"/><path class="fa7c5020-d0fb-4f5c-88ce-5eb49ddebfb7" d="M968.79,172.19l-61.74-5.45-.3.75a6.61,6.61,0,0,0,1.66,1.19,14.75,14.75,0,0,0,3.42.64c6.47.4,13,.67,19.42,1.13,5,.36,9.92,1,14.89,1.42,6.29.58,12.58,1.14,18.87,1.62a22.37,22.37,0,0,0,3.81-.33Z"/><path class="fa7c5020-d0fb-4f5c-88ce-5eb49ddebfb7" d="M977.71,183.07l13.79.77c.47-2.63-.6-4.6-3-6.28s-4.54-3.77-7.15-6C979.37,175.25,978.88,179.07,977.71,183.07Z"/><path class="fa7c5020-d0fb-4f5c-88ce-5eb49ddebfb7" d="M1037.67,427.7q-1.79,15-3.58,30a5.45,5.45,0,0,0-.22,1.46c.08.39.56,1.07.74,1,.56-.11,1.44-.44,1.51-.82a53,53,0,0,0,1-6.86c.45-7.26.8-14.53,1.17-21.8,0-1,0-2,0-2.94Z"/><path class="fa7c5020-d0fb-4f5c-88ce-5eb49ddebfb7" d="M1471.75,257.4c1.59,2.27,3.13,4.57,4.77,6.8a14.47,14.47,0,0,1,3.08,9.24q-.21,10.71,0,21.43a30.82,30.82,0,0,0,1.79,9.89,13.45,13.45,0,0,0,.73-3c.13-9.47.25-18.94.2-28.41a14.12,14.12,0,0,0-1.21-5.25C1479.22,263.6,1475.8,259.34,1471.75,257.4Z"/><path class="fa7c5020-d0fb-4f5c-88ce-5eb49ddebfb7" d="M1485.51,305.24c.32-10.46.56-20.92,1-31.37a15.31,15.31,0,0,0-3.26-9.79c-.21.46-.48.81-.4.94,2.39,3.84,2.89,8,2.66,12.46-.41,8.14-.64,16.28-.94,24.42,0,1.14,0,2.29,0,3.44Z"/><path class="fa7c5020-d0fb-4f5c-88ce-5eb49ddebfb7" d="M1173.39,534.27c-2.73-1-4-2.42-4-5.45.16-5.83-.06-11.66,0-17.49a10.26,10.26,0,0,1,1-4.27c1.24-2.54,2.85-4.89,4.21-7.37,3.28-6,6.51-12,9.76-18a3.29,3.29,0,0,0-.69-4.47c-1.46-1.34-3-2.23-4.93-1.3a9.33,9.33,0,0,0-2.82,2c-4.31,4.61-8.53,9.3-12.81,13.93-2.47,2.68-4.56,6.21-7.63,7.75-6,3.05-12.66,5-19.08,7.31a3.51,3.51,0,0,1-2.67-.59,11.53,11.53,0,0,1-2.39-2.53A91.88,91.88,0,0,1,1118,480.54c-4.88-12.12-6.46-24.7-5.68-37.67.12-1.92.74-2.94,2.72-3.5,5.11-1.45,10.16-3.14,15.23-4.77a20.52,20.52,0,0,1,11.29-.31c7.62,1.77,15.31,3.16,23,4.8,1.9.41,3.22,0,4.13-1.76,1.16-2.26,1.24-4.08-.46-5.44a35,35,0,0,0-6.7-4.29c-6-2.83-12.23-5.28-18.24-8.14a16.57,16.57,0,0,1-5.45-4.1c-3.85-4.58-7.36-9.45-11.08-14.14a2.72,2.72,0,0,1-.3-3.6c1.37-2.08,2.65-4.23,4.13-6.24a89.94,89.94,0,0,1,49.12-34c1.72-.49,2.72-.25,3.76,1.27,3.1,4.52,6.43,8.9,9.54,13.42,2.17,3.15,4,6.46,4.29,10.45.28,4.48.55,9,1.16,13.4a79.12,79.12,0,0,0,2.53,12.63c.94,3,2.72,3.25,5.53,1.82,1.56-.78,1.94-2.11,2.13-3.67,1-7.92,1.89-15.83,3-23.72.36-2.6.6-5.47,1.89-7.62,3-5,6.78-9.47,9.89-14.38,1.94-3.05,4-3.72,7.49-2.83a81.54,81.54,0,0,1,28.07,13.77,90.65,90.65,0,0,1,23.13,24.6c1.31,2.07,1.15,3.45-.35,5.29-2.84,3.47-5.45,7.14-8.1,10.76-2.91,4-6.3,7.1-11.2,8.66a95.27,95.27,0,0,0-11.92,5.12,83.82,83.82,0,0,0-9.19,5,4.22,4.22,0,0,0-1.5,5.7c.91,2,2.31,2.68,4.94,2.24,2.79-.47,5.56-1,8.33-1.59,6-1.24,12-2.62,18.06-3.73a12.82,12.82,0,0,1,5.41.21c5.61,1.52,11.15,3.28,16.72,5,1.9.58,2.84,1.79,3.36,3.85,1.55,6.21.21,12.36-.62,18.35-2.37,17.05-9.52,32.11-20.65,45.28-.86,1-1.51,1.52-2.91,1-5.11-2-10.29-3.85-15.42-5.8-4.31-1.64-7.58-4.52-10.53-8.09-4.65-5.64-9.65-11-14.7-16.29-2.3-2.41-4.79-2.3-7.07-.32-1.63,1.42-1.73,2.92,0,5.85q5.8,10.2,11.77,20.3c1.64,2.77,3,5.59,2.93,8.88,0,5.33,0,10.67-.19,16-.17,4.62-1.11,5.72-5.53,7.1-9.25,2.9-18.6,5.23-27.68,4.35A83.07,83.07,0,0,1,1173.39,534.27ZM1242.82,442c-5.29,1-9.67,3.43-11,9.4-.78,3.39-2.21,6.62-3.12,10a12,12,0,0,0,3.06,12c5.35,5.45,10.89,10.74,16.65,15.75a23,23,0,0,0,7.84,4.11c5.68,1.84,11.51,3.24,17.28,4.8,4.27,1.15,5.14.86,7.52-2.66a82.1,82.1,0,0,0,13.5-37.62c0-.17,0-.33,0-.5.74-7.55.44-8-6.81-10.87-5.42-2.12-10.78-4.39-16.3-6.23-2.45-.82-5.21-.74-7.84-1.07C1256.61,440,1249.66,440.71,1242.82,442Zm-17.5,93.65c4-1.1,4.84-2,5.12-6.22.41-6.29.61-12.59,1.06-18.88a26.08,26.08,0,0,0-2.7-13c-2.45-5.27-5.14-10.44-7.67-15.67-2.24-4.63-5.84-7.1-11-7.17-4-.06-8-.12-12-.08a10.47,10.47,0,0,0-9.47,5.51c-2.83,5.06-5.1,10.43-7.85,15.54-4.34,8.05-3.81,16.67-3.31,25.31.17,3,.56,5.94.78,8.91.27,3.72.48,4,4.14,5.18a60.42,60.42,0,0,0,21.93,2.65A67.82,67.82,0,0,0,1225.32,535.61ZM1196,399.74c-.44-2.28-1.17-4.52-1.57-6.8a35.82,35.82,0,0,0-10.07-19.11c-2.9-3-5.56-6.16-8.3-9.28-1.77-2-3.75-2.35-6.27-1.4a69.51,69.51,0,0,0-18.69,10.39,167.61,167.61,0,0,0-14.32,13.13c-4.47,4.46-4.44,5.8-1.1,11.29,1.55,2.56,3.26,5,4.64,7.69a38.64,38.64,0,0,0,17.14,16.86c5.19,2.65,10.43,5.2,15.59,7.89a6.39,6.39,0,0,0,7.07-.25c4.9-3.42,9.84-6.8,14.55-10.47,2.65-2.07,2.93-3.87,3.22-9.18C1197.27,406.91,1196.69,403.32,1196,399.74Zm19.49,20.53c3.83,2.92,7.71,5.77,11.54,8.69,3.59,2.75,7.38,2.81,11.17.69,7.11-4,14.15-8.07,21.17-12.2a7.78,7.78,0,0,0,2.37-2.47c4.32-6.51,8.43-13.16,12.91-19.55,1.71-2.44,1.44-4.23-.36-6.11-3.91-4.08-7.73-8.26-11.88-12.09a76.8,76.8,0,0,0-21-13.29c-5.13-2.32-6.13-2.33-10,1.93-4.54,5.07-8.93,10.3-13.07,15.7a21.9,21.9,0,0,0-3.26,7.18,98.49,98.49,0,0,0-3.87,22C1210.61,414.85,1212.36,417.88,1215.49,420.27ZM1135.73,441c-6,2-11.83,4.41-17.73,6.69-3,1.16-4.09,3.33-4,6.63.18,10.39,3.41,19.94,7.48,29.29,1.46,3.35,3.19,6.58,4.87,9.83s4.51,5.06,8.21,4.15c7.09-1.74,14.14-3.68,21.14-5.76a12.09,12.09,0,0,0,4.08-2.79c5.24-4.61,10.46-9.23,15.59-14a29.8,29.8,0,0,0,3.35-4.32,9.06,9.06,0,0,0,1.55-8.06c-1.26-4.65-2.76-9.24-4.23-13.83a8.07,8.07,0,0,0-5.56-5.34,89.88,89.88,0,0,0-10.64-2.39c-4.74-.81-9.52-1.36-15-2.13A76.65,76.65,0,0,0,1135.73,441Zm69.5-7.44c-8.12-.2-14,5.42-14,13.53a13.43,13.43,0,0,0,13.08,13.47c7.12.11,13.22-6,13.31-13.37S1212.21,433.7,1205.23,433.53ZM1198.38,464c-.08-3.34-3-5.73-6.86-5.61a6,6,0,0,0-5.92,6c.16,3.84,2.91,6.33,6.89,6.24A6.24,6.24,0,0,0,1198.38,464Zm6.32-31.6a6.06,6.06,0,0,0,5.84-6.16c-.06-3.62-2.76-6.61-6-6.67a6.33,6.33,0,0,0-6.29,6.8A6.17,6.17,0,0,0,1204.7,432.37Zm18.59,32.37a6.44,6.44,0,0,0-12.86-.57c-.19,3.49,2.85,6.38,6.75,6.42A6,6,0,0,0,1223.29,464.74Zm-4.83-23.92c.16,3.19,3.44,6.48,6.43,6.49s6.09-3.31,6.12-6.66a6.28,6.28,0,1,0-12.55.17Zm-28-.53a5.91,5.91,0,0,0-6.06-5.92c-3.36,0-6.54,3.27-6.62,6.83-.08,3,2.87,5.53,6.45,5.48A6.24,6.24,0,0,0,1190.43,440.29Z"/><path class="fa7c5020-d0fb-4f5c-88ce-5eb49ddebfb7" d="M1137,510.21c8.39,9.38,18.07,15.57,29.08,21.08,1.07-6.92-.59-13.51,1.43-19.88l-1-.22-4.92,10.68c-1.35,2.91-1.8,3-4.24,1-2.85-2.29-5.73-4.55-8.61-6.8s-3-3.16-.39-5.94c.46-.49.94-1,1.44-1.39,4.1-3.62,4.21-3.6,8.57-.13,1,.83,2.15,1.58,3.26,2.31a22.33,22.33,0,0,0,2.2,1.15c1.16-2,2.32-3.91,3.46-5.86,4.69-8,9.41-16.08,14-24.17.4-.7.2-1.76.28-2.65a10.06,10.06,0,0,0-2.75.05,4.77,4.77,0,0,0-2,1.47c-5.15,5.88-10.34,11.72-15.34,17.73a15.22,15.22,0,0,1-7.64,5.16C1148.3,505.49,1143,507.87,1137,510.21Z"/><path class="fa7c5020-d0fb-4f5c-88ce-5eb49ddebfb7" d="M1261.77,519.5c-5.51,4-11.25,7.65-17,11.22-2.17,1.34-3.16.55-3-1.8.27-6,.41-11.94.8-17.9a11.31,11.31,0,0,0-2-7c-4-6.5-7.92-13.08-11.81-19.65a16.74,16.74,0,0,1-1.59-3.63,2,2,0,0,1,.65-1.6,1.44,1.44,0,0,1,1.37,0,15.41,15.41,0,0,1,2.65,2.24c4.47,4.92,9,9.76,13.27,14.87,2.92,3.52,5.9,6.55,10.51,7.95,5.22,1.59,10.24,3.82,15.94,6C1268.78,514.49,1265.21,517,1261.77,519.5Zm-8.48-13c-1.31,1-2.55,2.11-3.92,3s-2.47,2.35-4.45,1.46c-.17-.07-1.32,1.13-1.21,1.47,1.24,3.58,2.56,7.15,4,10.64.52,1.23,1.67,1.52,2.88.61,3.71-2.78,7.46-5.5,11.08-8.38a2.68,2.68,0,0,0,.78-2.43c-1.62-3.21-4.49-5.2-7.49-7a2.1,2.1,0,0,0-.63-.12C1254.07,505.93,1253.66,506.18,1253.29,506.46Z"/><path class="fa7c5020-d0fb-4f5c-88ce-5eb49ddebfb7" d="M1199.5,379c.83,7,2,16.53,3.1,26.07a5.4,5.4,0,0,0,.58,1.89,1.51,1.51,0,0,0,1,.8,1.49,1.49,0,0,0,1.16-.76,15.12,15.12,0,0,0,.92-3.3c.6-3.93,1.27-7.85,1.65-11.81.6-6.27,1.08-12.55,1.4-18.84.16-3.14-.22-3.32-3.41-3.45C1199.18,369.27,1199.18,369.27,1199.5,379Z"/><path class="fa7c5020-d0fb-4f5c-88ce-5eb49ddebfb7" d="M1129.66,428.11a41.17,41.17,0,0,0,5,1.85c7.75,1.78,15.52,3.46,23.29,5.14,2.11.46,4.23.86,6.36,1.13.54.07,1.61-.37,1.65-.68a2.7,2.7,0,0,0-.54-2.16,36.62,36.62,0,0,0-6.33-3.89c-7.75-3.41-15.56-6.63-23.37-9.87-3.22-1.34-3.36-1.18-4.23,2.33C1131,423.88,1130.37,425.75,1129.66,428.11Z"/><path class="fa7c5020-d0fb-4f5c-88ce-5eb49ddebfb7" d="M1244.7,436.38c5-1.08,9.55-2,14.09-3.05,5-1.14,10-2.33,15.06-3.5,1.13-.26,2.29-.46,3.39-.83s2.09-1.11,1.47-2.6c-.07-.15-.12-.31-.18-.47-2.83-8.92-1.44-7.91-9.17-4.47-7.14,3.18-14.39,6.1-21.58,9.18a17.25,17.25,0,0,0-3.92,2.13,3.08,3.08,0,0,0-1.1,2.44C1242.88,435.78,1244.19,436.1,1244.7,436.38Z"/><path class="fa7c5020-d0fb-4f5c-88ce-5eb49ddebfb7" d="M1196.69,355.68c.81,2.05,2.16,3,4.26,2.68,3.54-.47,7.28.94,10.68-1.31,1.16-.78,2,.38,1.95,1.4,0,2.47-.23,4.95-.48,7.41a18.48,18.48,0,0,0-.13,5.64c3-4.39,5.94-8.75,8.83-13.18.78-1.19.51-2.34-1.08-2.57a112.17,112.17,0,0,0-35.26.17c2.58,6.43,7.66,10.56,10.91,16.56,1.83-3.72-1.29-5.89-1.09-8.61s.33-5.18.5-7.77Z"/><path class="fa7c5020-d0fb-4f5c-88ce-5eb49ddebfb7" d="M1273.11,417.27c5.76-2.1,9.83-5,14.81-6.65-1.2,3.34-1.18,3.34-.23,6.3s1.86,6,2.85,9c.87,2.63.1,3.53-2.67,4.22-2.21.55-4.54.6-7,1.64,4.47,1.46,8.93,3,13.43,4.34,1.2.37,2-.43,1.86-1.63-.2-2-.55-3.95-.93-5.9a87,87,0,0,0-8.39-23.94c-1.23-2.32-2-2.38-3.58-.4C1280.1,408.31,1277,412.36,1273.11,417.27Z"/><path class="fa7c5020-d0fb-4f5c-88ce-5eb49ddebfb7" d="M1134.18,415.36l-9.94-12.43c-2,.65-2.46,2.42-3.16,3.77-4.49,8.65-6.94,17.94-8.32,27.53-.26,1.81.42,2.36,2.39,1.77,4.13-1.23,8.23-2.58,13.11-4.13a19.89,19.89,0,0,0-2.92-1.14c-1.14-.21-2.33-.12-3.48-.32-4.29-.73-4.69-1.43-3.28-5.51,1.19-3.46,2.31-6.94,3.62-10.35.83-2.17,1.71-2.55,3.86-1.69,2.55,1,5,2.3,7.51,3.46Z"/><path class="fa7c5020-d0fb-4f5c-88ce-5eb49ddebfb7" d="M1158.76,520.39c1.22-2.17,2.17-3.84,3.25-5.77l-6.72-4.4a2.49,2.49,0,0,0-3.15.3c-2.55,1.91-2.6,2.84-.09,4.76Z"/><path class="fa7c5020-d0fb-4f5c-88ce-5eb49ddebfb7" d="M1283.52,416c-2-.13-4.33,2-3.87,3.75a33.57,33.57,0,0,0,2.56,6.36c.82,1.64,2.44,1.53,3.9,1,.49-.17,1.16-1,1.06-1.4-.81-3-1.75-6-2.73-8.94C1284.31,416.38,1283.74,416.16,1283.52,416Z"/><path class="fa7c5020-d0fb-4f5c-88ce-5eb49ddebfb7" d="M1121.36,425.36c.37.54.76,1.65,1.22,1.67,1.21.08,3.14.09,3.55-.6a33.4,33.4,0,0,0,3-7.26c.41-1.36-1.32-2.92-3.11-3.21-1.62-.27-1.9,1-2.26,2.08C1122.91,420.37,1122.2,422.74,1121.36,425.36Z"/><path class="fa7c5020-d0fb-4f5c-88ce-5eb49ddebfb7" d="M1197.94,361.66c1.18,4.65,1.21,4.73,4.69,4.8a43,43,0,0,0,5.45-.2c1.61-.17,2.13-1.37,2.09-2.86s-1.1-1.9-2.35-1.89C1204.56,361.53,1201.31,361.6,1197.94,361.66Z"/><path class="fa7c5020-d0fb-4f5c-88ce-5eb49ddebfb7" d="M312,416.24a14.75,14.75,0,0,1-5.12,3.8c-3.61,1.7-7.45,2.89-11.1,4.51-4.25,1.9-8.48,3.9-12.57,6.13-2.79,1.51-3.29,3.3-2.31,5.79s2.08,3.19,5.56,2.5c7.83-1.54,15.66-3.11,23.45-4.83a19.7,19.7,0,0,1,10.82.37c4.88,1.66,9.77,3.37,14.74,4.74,2.23.62,3,1.71,2.87,3.86-.33,5.64-.35,11.3-.93,16.91-1.78,17.26-9.07,32.19-19.86,45.56-1.32,1.65-2.7,2.05-4.78,1.16-4.28-1.83-8.63-3.53-13-5a24.27,24.27,0,0,1-11.49-8.36c-4.06-5.05-8.58-9.73-13-14.49a18.6,18.6,0,0,0-3.54-2.72c-1.86-1.22-3.51-.36-5,.81a3.25,3.25,0,0,0-1,4.05,49.7,49.7,0,0,0,2.64,5.91C272,493.5,275.67,500,279.4,506.5a13,13,0,0,1,1.86,7.64c-.29,4.14-.67,8.28-.79,12.43-.2,6.59-.13,6.59-6.22,8.75-.63.22-1.26.45-1.9.63-19.48,5.49-38.77,5.25-57.85-1.89-2.18-.81-3.21-1.9-3.16-4.32.12-5.83.1-11.67,0-17.49a14.18,14.18,0,0,1,2.07-7.58c4-6.93,7.89-13.9,11.79-20.87a27.7,27.7,0,0,0,1.38-3.21,2.89,2.89,0,0,0-1-3.55c-2.46-2.23-5-2.39-7.43.27-5.72,6.25-11.18,12.75-16.84,19.06a13.52,13.52,0,0,1-4.52,3.7c-5.83,2.42-11.8,4.54-17.76,6.67-2.86,1-3.33.9-5.06-1.52A155.52,155.52,0,0,1,165,492c-8.51-15-12.67-31-11.58-48.34.17-2.62,1.19-3.84,3.59-4.56,4.47-1.33,8.88-2.86,13.29-4.38a21.32,21.32,0,0,1,12.26-.43c7.76,1.83,15.62,3.29,23.45,4.83,2.68.53,3.75-.1,4.76-2.39s.79-3.66-1.27-5.23a34.68,34.68,0,0,0-6.26-4c-6-2.78-12.24-5.23-18.3-8a15,15,0,0,1-5.29-3.53c-3.76-4.44-7.17-9.18-10.74-13.77a4.56,4.56,0,0,1-.31-5.92A95.32,95.32,0,0,1,182.8,378.9a92.38,92.38,0,0,1,37.93-21.38c2-.6,3.26-.58,4.58,1.39,3.78,5.68,7.85,11.16,11.71,16.79a8.5,8.5,0,0,1,1.32,3.67c.75,6.26,1.27,12.55,2,18.81a95.44,95.44,0,0,0,1.77,9.78c.41,1.74,1.85,3.17,3.59,2.9a7.48,7.48,0,0,0,4-2.52c.79-.9,1-2.45,1.14-3.75.91-6.75,2-13.49,2.48-20.28.3-4.46,1.1-8.45,3.89-12.08,2.94-3.82,5.51-7.92,8.27-11.88,2.05-2.94,3-3.36,6.27-2.49a70.09,70.09,0,0,1,7.64,2.33A87.49,87.49,0,0,1,325,399.28C320.7,404.91,316.49,410.68,312,416.24Zm-27.18,25.65c-5.85,1.06-10,4.23-11.6,10.29-.84,3.21-1.93,6.37-3,9.53a10.06,10.06,0,0,0,2.45,10.65c6,6,12.27,11.72,18.48,17.51a6.52,6.52,0,0,0,2.48,1.61q11.49,3.39,23,6.59a4.72,4.72,0,0,0,5.57-2.32c5.48-8.82,10-18.1,12.09-28.34.91-4.38,1.41-8.84,2-13.28a5.17,5.17,0,0,0-3.52-5.93c-7.09-2.88-14.16-5.83-21.37-8.39-2.26-.8-4.93-.44-7.42-.61,0-.09-.05-.19-.08-.28C297.63,439.89,291.2,440.73,284.83,441.89ZM266.6,535.54c3.16-.74,4.86-2.34,5.3-5.64,1-7.75,1.93-15.52,1.37-23.34-.16-2.24-1.29-4.46-2.18-6.59-2.24-5.38-4.49-10.75-7-16a24.57,24.57,0,0,0-4-5.71,10.49,10.49,0,0,0-8.38-3.75c-4,.12-8,0-12,0s-7.15,1.56-9.16,5.06c-1.66,2.87-3.34,5.75-4.72,8.77-2.27,5-4.37,10.07-6.43,15.16a16.92,16.92,0,0,0-.72,8.83c.49,3.61.38,7.3.62,10.95.15,2.32.53,4.61.68,6.93.22,3.18,2.16,4.57,5,5.42,6.48,1.94,13.11,2.16,19.67,2A82.83,82.83,0,0,0,266.6,535.54ZM162.4,482.46a76.43,76.43,0,0,0,4.47,8.91,42.77,42.77,0,0,0,4.62,5.82,3.79,3.79,0,0,0,4.11,1.1c7-2,14.11-3.82,21.08-6a16.85,16.85,0,0,0,5.9-3.63c5-4.56,9.91-9.33,14.8-14.07a22,22,0,0,0,2.85-3.45c1.85-2.73,2.67-5.64,1.57-9s-2.2-6.64-3-10c-1.24-5.61-4.92-8.44-10.21-9.6-3.24-.71-6.49-1.37-9.77-1.91a111.65,111.65,0,0,0-12.3-1.74,19.61,19.61,0,0,0-7.27,1.22c-6.29,2.13-12.52,4.45-18.71,6.88-5.24,2-5.37,2.42-5.23,9.81C156.06,464.64,158.64,473.72,162.4,482.46Zm94.32-62.09c3.83,2.92,7.72,5.78,11.67,8.53s7.9,2.81,12.11.29c4.85-2.9,9.87-5.5,14.86-8.16a28.7,28.7,0,0,0,12.39-11.88c2.49-4.69,5.42-9.14,8.25-13.65,1.82-2.91,1.76-3.35-.23-6.16-3.89-5.52-9-9.8-14.16-14s-10.33-7.85-16.35-10.45c-.76-.33-1.48-.77-2.24-1.09-5-2.09-7.39-1.59-10.91,2.63s-7.26,8.67-10.55,13.24a29.05,29.05,0,0,0-4.58,8.72c-1.85,6.54-3.07,13.26-4.51,19.91a25,25,0,0,0-.16,3.3C251.94,414.87,253.63,418,256.72,420.37Zm-18.86-19.9c-.83-3.89-2-7.73-2.76-11.63a20.37,20.37,0,0,0-4.57-9.25c-4-4.68-7.83-9.47-11.67-14.26-2.18-2.72-4.61-3.16-7.9-2-7.92,2.89-14.86,7.38-21.38,12.56a74.36,74.36,0,0,0-13.49,13.22c-1.56,2.06-1.8,3.73-.47,5.82,3.92,6.17,7.77,12.39,11.73,18.54a9.25,9.25,0,0,0,2.75,2.82c7.23,4.39,14.53,8.68,21.82,13,4.74,2.8,9.12,2.15,13.32-1.29,3.08-2.52,6.33-4.85,9.5-7.26,3.47-2.63,4.85-6.2,4.63-11.72C239,407,238.55,403.72,237.86,400.47Zm8.59,60c6.49-.07,13.41-7.05,12.88-13.44-.69-8.54-5-13.46-13-13.37-9.27.1-13.5,6.85-13.9,14C232.32,454.48,239.76,460.55,246.45,460.47Zm11.81,10.11c3.75.08,6.43-2.72,6.32-6.62a6.17,6.17,0,1,0-12.33.18C252.28,467.92,254.7,470.51,258.26,470.58Zm-24.12.08a6,6,0,0,0,6-6c-.15-3.57-3.46-6.72-6.87-6.53a5.87,5.87,0,0,0-5.9,6.13A6.29,6.29,0,0,0,234.14,470.66Zm12-51.21c-3-.08-6.64,3.27-6.67,6.16,0,3.22,3.36,6.67,6.69,6.77,2.88.09,6.27-3.46,6.24-6.53A6.5,6.5,0,0,0,246.16,419.45Zm-26.73,21.26c.12,3.27,3.64,6.7,6.86,6.68,2.77,0,6.07-3.79,6-6.88s-3.15-6.07-6.62-6.11A6.25,6.25,0,0,0,219.43,440.71Zm47.23,5.91a6.25,6.25,0,0,0,5.74-6.26c-.1-3.16-3.49-6.63-6.35-6.49-3.41.17-5.91,3.05-5.83,6.74A6,6,0,0,0,266.66,446.62Z"/><path class="fa7c5020-d0fb-4f5c-88ce-5eb49ddebfb7" d="M294,504.68c4.79,1.21,7.07,5,9.84,8.22a1.83,1.83,0,0,1-.28,1.74c-4.05,3.18-8.12,6.32-12.3,9.31-1.09.79-1.71-.29-2.12-1.29-1.44-3.53-2.91-7-4.41-10.64-1.43,2.78-1.76,12.11-.72,18.77,6.9-1.21,20.91-11.18,28.88-20.7l-9.17-3.55a51.76,51.76,0,0,0-5.62-2.05c-5.5-1.42-9-5.31-12.46-9.45-3.71-4.46-7.51-8.87-11.47-13.11-1.31-1.4-2.75-4.44-5-2.59-1.71,1.39.47,3.63,1.37,5.28,2.71,4.94,5.62,9.79,8.41,14.7,1.64,2.88,3.14,5.85,4.86,8.69a15.71,15.71,0,0,0,2.88,3.28c.37.35,1.47.55,1.73.3C290.52,509.55,294.31,508.92,294,504.68Z"/><path class="fa7c5020-d0fb-4f5c-88ce-5eb49ddebfb7" d="M180.67,509c5.78-2.12,11.58-4.18,17.34-6.32a7.51,7.51,0,0,0,3-1.64c2.35-2.58,4.46-5.36,6.76-8,3.62-4.13,7.3-8.2,11-12.25A6.63,6.63,0,0,1,221,479a3,3,0,0,1,2.24.35c.31.18.38,1.26.15,1.75a56.89,56.89,0,0,1-3,5.75c-3.77,6.27-7.66,12.47-11.4,18.75-.74,1.24-1.7,2.9-1.41,4.1,1.3,5.45.28,10.94.67,16.39.11,1.61,0,3.23,0,5.62-11.91-5.13-20.9-12.81-30.09-21.34A22.87,22.87,0,0,1,180.67,509Zm15-2.9c-2.46,1.94-5,3.77-7.28,5.93-1.4,1.34-1.06,2.53.5,3.73,3.28,2.51,6.58,5,9.85,7.5,1.69,1.31,2.64,1.35,3.65-.3,1.37-2.25,2.57-4.62,3.75-7a2.62,2.62,0,0,0-.88-3.51c-2.6-2-5.16-4.13-7.76-6.18a3.55,3.55,0,0,0-.88-.41C196.28,505.94,195.88,505.91,195.65,506.09Z"/><path class="fa7c5020-d0fb-4f5c-88ce-5eb49ddebfb7" d="M246.61,369.53c-6.14.08-6.49.53-5.94,5.57,1,8.92,1.86,17.84,2.85,26.76a26.26,26.26,0,0,0,1.13,4.85c.16.5.91,1.16,1.35,1.13a2.28,2.28,0,0,0,1.47-1.16,5.93,5.93,0,0,0,.73-2.34c.75-7.11,1.43-14.22,2.14-21.33.32-3.14.8-6.28.92-9.42.14-3.87,0-3.94-3.82-4.06C246.77,369.51,246.1,369.53,246.61,369.53Z"/><path class="fa7c5020-d0fb-4f5c-88ce-5eb49ddebfb7" d="M174.28,418.46c-1.32,3.76-2.41,6.84-3.66,10.41,3.51.64,6.87,1.18,10.2,1.89,7.76,1.66,15.5,3.42,23.26,5.11,1.37.3,3.17,1.27,3.89-.61s-1.15-2.52-2.44-3.16q-4.68-2.31-9.44-4.45c-4.53-2-9.07-4.06-13.64-6C179.89,420.54,177.26,419.61,174.28,418.46Z"/><path class="fa7c5020-d0fb-4f5c-88ce-5eb49ddebfb7" d="M317.84,418.73c-3.83,1.57-7.46,3-11.08,4.55-6.41,2.69-12.83,5.35-19.19,8.17-1.55.68-4.22,1.15-3.71,3.33.63,2.72,3.11,1,4.63.72,10.23-2,20.43-4.14,30.63-6.24,1.09-.22,1.91-.69,1.49-2C319.77,424.6,318.89,422,317.84,418.73Z"/><path class="fa7c5020-d0fb-4f5c-88ce-5eb49ddebfb7" d="M254.47,354.75a119.46,119.46,0,0,0-24.87.88c-2.13.33-2.58,1.18-1.3,3,3,4.36,6.17,8.62,9.72,13.53.67-3.8-.75-6.66-1.21-9.6-.6-3.83.18-4.72,4-4.56,2.63.11,5.28-.09,7.93-.15a16.22,16.22,0,0,1,2.95-.05c3.24.52,4,1.53,3.42,4.76a21.5,21.5,0,0,0-.32,9c3.27-4.84,6.17-9,8.95-13.32,1-1.52.43-2.43-1.52-2.6-2.28-.2-4.65-.65-6.58,1.3-.25.25-1.14-.14-1.73-.23C254.11,356.15,254.26,355.55,254.47,354.75Z"/><path class="fa7c5020-d0fb-4f5c-88ce-5eb49ddebfb7" d="M337.68,436.2c-1.61-14.74-6-27.56-11.24-33.23-.29.15-.66.22-.84.45-3.53,4.38-7,8.79-11.08,13.88,3.12-.59,5-2.1,7.13-3.08a25.23,25.23,0,0,1,3.57-1.69,2.24,2.24,0,0,1,3.11,1.58c1.22,4,2.57,7.89,3.72,11.88.77,2.64.12,3.74-2.55,4.27-2.09.42-4.25.47-6.54.71C325.24,433.21,332,435.6,337.68,436.2Z"/><path class="fa7c5020-d0fb-4f5c-88ce-5eb49ddebfb7" d="M165.63,402.36c-3.74,3.82-5.13,8.2-6.52,12.36-2,6.11-3.35,12.46-4.8,18.75-.67,2.91-.08,3.46,2.55,2.63A76.16,76.16,0,0,0,169.59,431c-1.81-.25-3.62-.44-5.41-.76-5-.92-5.32-1.41-3.89-6.17.91-3,1.73-6.07,2.88-9,1.06-2.7,2.44-3.23,5.11-2.14,2.42,1,4.73,2.23,7.33,3.08C173.07,411,169.15,407.12,165.63,402.36Z"/><path class="fa7c5020-d0fb-4f5c-88ce-5eb49ddebfb7" d="M291.31,520.6c2.8-2.15,5-3.87,7.27-5.6.9-.71,2.19-1.37,1-2.74-1-1.18-2-3.19-4-2.16a42.46,42.46,0,0,0-6.13,4.25c-.32.26-.34,1.24-.15,1.77C289.8,517.49,290.49,518.79,291.31,520.6Z"/><path class="fa7c5020-d0fb-4f5c-88ce-5eb49ddebfb7" d="M166,415.57c-1,3-2,5.81-2.92,8.59-.36,1.07-1.05,2.44.51,2.95s3.52,1.09,4.47-.73a22.69,22.69,0,0,0,2.22-6.51C170.78,417,168.42,416.48,166,415.57Z"/><path class="fa7c5020-d0fb-4f5c-88ce-5eb49ddebfb7" d="M239.63,360.83a16.72,16.72,0,0,0,.91,3.88,3.28,3.28,0,0,0,2.06,1.65,60.72,60.72,0,0,0,6.88.06c1.8,0,2.66-1.07,2.7-2.83s-1.24-2-2.65-2.12C246.46,361.3,243.39,361.08,239.63,360.83Z"/><path class="fa7c5020-d0fb-4f5c-88ce-5eb49ddebfb7" d="M321.05,418c.8,2.62,1.58,5,2.21,7.38.51,1.92,1.35,3,3.5,2.11a18.61,18.61,0,0,1,2.33-.55c-.62-2.3-1.21-4.47-1.78-6.64C326.23,416.2,326.38,414.29,321.05,418Z"/><path class="fa7c5020-d0fb-4f5c-88ce-5eb49ddebfb7" d="M1451.89,377.56c2.16,0,4.32-.11,6.46,0,2.86.19,4.86-.88,5.79-3.6q1.53-4.46,2.83-9c.49-1.71-.41-2.48-2.07-2.48-4.64,0-9.28-.08-13.91,0a6.18,6.18,0,0,0-5.94,3.77c-1,2.27-2.14,4.5-2.94,6.84-1.19,3.49-.72,4.14,2.83,4.28,2.31.1,4.64,0,7,0Z"/><path class="fa7c5020-d0fb-4f5c-88ce-5eb49ddebfb7" d="M17,355a58.73,58.73,0,0,1,1.27,6.69c.24,2.93,2,4,4.52,4.32a62.5,62.5,0,0,0,6.43.36c1.88,0,2.11-1,1.72-2.65C29.2,356.67,25.55,354.28,17,355Z"/><path class="fa7c5020-d0fb-4f5c-88ce-5eb49ddebfb7" d="M83,239c1.62-10.31,2.71-19.4,2.26-29.73A49.12,49.12,0,0,0,81.81,213c-1.73,2.44-3.31,5-5,7.47A6.35,6.35,0,0,1,71,223.56c-3.49-.14-7,.06-10.48-.05-3.31-.1-4.42-1.21-4.49-4a4.69,4.69,0,0,1,4.11-4.85,35.29,35.29,0,0,1,4.49-.13c6.51-.05,7.09-.48,9.5-7.45a21.58,21.58,0,0,0-3.27-.53c-5.49-.06-11,.05-16.48-.07-3.15-.07-6.28-.52-9.43-.71-2.84-.17-3.31.18-3.42,2.88-.35,8.13-.81,16.28-.79,24.41A51.17,51.17,0,0,0,42.4,243.8a4.56,4.56,0,0,0,4.68,3.74q13.45.38,26.91.82a11,11,0,0,0,7.36-2.6,1.46,1.46,0,0,0,.39-1.31c-.11-.33-.83-.79-1.12-.69-4.31,1.42-6.64-1.48-8.54-4.34a7.84,7.84,0,0,0-8-3.8,29.71,29.71,0,0,1-5,0c-3.88-.3-5.83-3.38-4.52-7a3,3,0,0,1,3-2.15c4.82,0,9.65,0,14.48,0,2,0,3.26,1.4,4.32,3C78.36,232.28,80.34,235.11,83,239Z"/><path class="fa7c5020-d0fb-4f5c-88ce-5eb49ddebfb7" d="M77.25,192.7c3.44,3.5,6.7,6.52,9.57,9.86a5,5,0,0,0,4.32,1.84q10.23,0,20.46,0a20.8,20.8,0,0,1,3.93.41c.32.06.73.76.71,1.15a1.42,1.42,0,0,1-.8,1.11,22.76,22.76,0,0,1-3.94.38c-6.32.05-12.65,0-19,.07-3.84,0-3.77.1-4,3.92-.58,9.43-1.24,18.85-1.89,28.68.67.14,1.91.37,3.13.68,1.42.36,3.11,1.47,4.16,1a10.14,10.14,0,0,0,3.91-3.69c6.14-8.88,12.28-17.76,18.19-26.8,3.21-4.92,2.49-6.88-2.09-10.48a37.11,37.11,0,0,0-25-8.18C85.09,192.8,81.27,192.7,77.25,192.7Z"/><path class="fa7c5020-d0fb-4f5c-88ce-5eb49ddebfb7" d="M83.75,203.51c-3.86-5.87-9.08-9-16.22-8.89-4.81.11-9.63.1-14.45.14-4.31,0-7.11,2.41-9.12,5.93-.79,1.37-.36,2.28,1.16,2.48a28.84,28.84,0,0,0,3.48.12l26.92.21C78.15,203.52,80.78,203.51,83.75,203.51Z"/><path class="fa7c5020-d0fb-4f5c-88ce-5eb49ddebfb7" d="M81,240.35c-2.47-3.12-4.69-6-7-8.81-.61-.73-1.42-1.71-2.23-1.8-4-.47-7.92-.69-11.88-.94a1.94,1.94,0,0,0-1.38.43,2.53,2.53,0,0,0-.8,1.67,1.82,1.82,0,0,0,1.11,1.34,39.55,39.55,0,0,0,6,.21c4-.2,7.12,1.07,9.13,4.74a13.47,13.47,0,0,0,2.61,3C77.7,241.33,79.09,241.6,81,240.35Z"/><path class="fa7c5020-d0fb-4f5c-88ce-5eb49ddebfb7" d="M82.47,207.39c-2.51-.86-4-.72-5,1.06-.32.58-.62,1.18-1,1.75-4.29,7.26-4.3,7.22-12.91,7.49-1.41.05-3.95-1-3.8,1.62.12,1.86,2.43.95,3.78,1.15,6.69,1,11.94-.76,14.86-7.47C79.29,211.09,80.9,209.54,82.47,207.39Z"/><path class="fa7c5020-d0fb-4f5c-88ce-5eb49ddebfb7" d="M91.3,244.52C87,243.16,87,243.19,85,245.89a10.67,10.67,0,0,1-2.14,2,29.73,29.73,0,0,1-2.62,1.58C83.71,250.22,86.49,249,91.3,244.52Z"/><path class="fa7c5020-d0fb-4f5c-88ce-5eb49ddebfb7" d="M1271.13,443.06c5,1.83,10,3.73,14.85,5.81,6.18,2.62,6.14,2.71,5.45,9.22,0,.33,0,.66-.07,1a78.57,78.57,0,0,1-12,33.46c-2,3-2.6,3.32-6.22,2.32-6.08-1.68-12.16-3.41-18.13-5.42a18.45,18.45,0,0,1-6.42-3.69c-5.14-4.72-10.09-9.65-14.93-14.67a8.3,8.3,0,0,1-2.09-9.16,86.94,86.94,0,0,0,2.9-9c1.12-4.44,4.07-6.83,8.29-7.63,7.47-1.43,15-2.61,22-3.81A61.06,61.06,0,0,1,1271.13,443.06Zm-25,4.32a8.55,8.55,0,0,0-6.83,6.51c-.72,2.56-1.59,5.08-2.41,7.6-1.34,4.12-.89,7.92,2.21,11.1,4.29,4.4,8.59,8.81,13.12,13a13.17,13.17,0,0,0,5.36,2.45c3.51,1,7.1,1.69,10.68,2.41,2.54.52,4.24-.34,5.71-2.75a75.42,75.42,0,0,0,10.83-32.81c.09-1-.21-2.6-.87-3-6.42-3.76-12.71-8-20.79-8C1257.46,445,1251.77,446.13,1246.12,447.38Z"/><path class="fa7c5020-d0fb-4f5c-88ce-5eb49ddebfb7" d="M1228.69,515.13c-.41,4.47-.73,8.94-1.25,13.4-.43,3.67-.64,3.89-4,4.62-10.83,2.37-21.72,3-32.67.93-2.29-.44-4.53-1.08-6.8-1.61a3.08,3.08,0,0,1-2.54-3.22c-.37-7.3-.79-14.6-1.12-21.91a9.77,9.77,0,0,1,.46-3.44,119,119,0,0,1,9.67-21.88,8.33,8.33,0,0,1,8.22-4.51,94.14,94.14,0,0,0,10.49,0c4.68-.36,7.6,1.83,9.56,5.73,2.69,5.35,5.53,10.65,7.86,16.15,1.14,2.68,1.44,5.77,1.79,8.71a58.16,58.16,0,0,1,0,7Zm-39.85-24.22c-2.51,4.68-4.52,9.64-6.61,14.53a8.2,8.2,0,0,0-.57,3.89c.43,4.13,1.18,8.22,1.6,12.35.23,2.3,1.14,3.67,3.46,4.2,8,1.84,16,3.2,24.16,2,3.46-.48,6.93-.83,10.36-1.43,2.94-.51,3.8-1.39,4.09-4.18.48-4.45.81-8.93,1.12-13.4a9.38,9.38,0,0,0-.28-3.47,75,75,0,0,0-9.15-18.76,9.34,9.34,0,0,0-8.53-4.29c-1.49.05-3,0-5.44,0C1196.19,480.31,1192,485,1188.84,490.91Z"/><path class="fa7c5020-d0fb-4f5c-88ce-5eb49ddebfb7" d="M1191.21,419c-4.1,2.85-8.25,5.61-12.36,8.44a4.51,4.51,0,0,1-4.73.37c-3.45-1.64-6.85-3.36-10.25-5.09-9.3-4.76-17.81-10.34-22.31-20.41-1-2.25-2.73-4.17-4-6.31-1.71-2.87-1.65-4.25.64-6.69,3.06-3.29,6.19-6.53,9.51-9.55a85.66,85.66,0,0,1,20-13.07c4-2,5.21-1.67,8.25,1.74,3.43,3.84,6.49,8,10,11.75a20.05,20.05,0,0,1,4.93,10.14c1,4.54,2.15,9.05,3.11,13.6.51,2.43.76,4.92,1.14,7.44A9.14,9.14,0,0,1,1191.21,419Zm-3-31.34A6.1,6.1,0,0,0,1187,385c-3.36-3.89-6.75-7.76-10.26-11.51-1.63-1.75-3.52-1.95-5.85-.78a89.1,89.1,0,0,0-26.11,19.67c-3.11,3.41-3.17,3.54-.75,7.71a45.64,45.64,0,0,1,3.24,5.6c2.14,5.23,6,8.67,10.89,11.13,3.86,1.94,7.73,3.86,11.63,5.7a8.25,8.25,0,0,0,9.33-1c2.34-1.85,4.89-3.44,7.39-5.08,3.5-2.28,5.42-5.33,5.28-9.7C1190.62,400.4,1189.47,394,1188.23,387.7Z"/><path class="fa7c5020-d0fb-4f5c-88ce-5eb49ddebfb7" d="M1218.35,387.41a11.27,11.27,0,0,1,1.63-3.61c4.41-5.63,8.87-11.21,13.44-16.7,2.13-2.56,2.54-2.66,5.53-1.29a91.59,91.59,0,0,1,10.61,5.47c7.78,4.86,15.13,10.29,20.8,17.65,2.53,3.29,2.58,3.89.29,7.53-3,4.78-6,9.57-9.24,14.22a17.38,17.38,0,0,1-4.69,5c-6.2,3.88-12.65,7.33-18.92,11.1-3.66,2.2-6.91,1.7-10.16-.73a97.25,97.25,0,0,0-8.08-5.83c-3.8-2.29-6.11-5.13-5.47-7.74C1215,402.65,1216.05,394.91,1218.35,387.41Zm3.79,28.71a73.86,73.86,0,0,1,7.6,5.63,8.29,8.29,0,0,0,9.36.9c5.09-2.45,10.1-5.07,15.11-7.69a12.16,12.16,0,0,0,5.4-5.64c1.7-3.48,4.45-6.37,5.8-10.11.78-2.19.95-3.82-.83-5.8a87.33,87.33,0,0,0-17.15-15.07,57.07,57.07,0,0,0-10-5.5c-2.38-1-4.17-.88-5.81,1-3.28,3.74-6.57,7.47-9.7,11.34a9.22,9.22,0,0,0-1.86,4c-1.11,5.86-2,11.75-2.69,15.83C1217.44,410.74,1218.54,414,1222.14,416.12Z"/><path class="fa7c5020-d0fb-4f5c-88ce-5eb49ddebfb7" d="M1152.77,442.65q7.1,1.34,14.15,2.94c3.74.85,6,3.35,7.17,7,.61,1.9,1.24,3.79,2,5.63,2.43,5.89,1.6,11-3.25,15.39-5.18,4.69-10.21,9.54-15.38,14.23a8.94,8.94,0,0,1-3.44,1.89c-6.08,1.73-12.17,3.42-18.31,4.9-4.23,1-5.15.62-7.22-3.15-2.23-4.08-4.35-8.25-6.22-12.52-3.17-7.22-4.54-14.94-5.61-22.68-.57-4.1-.06-5,3.66-6.61q6.63-2.91,13.47-5.29c3.58-1.26,7.29-2.14,9.94-2.9C1147.51,441.93,1150.16,442.16,1152.77,442.65Zm-24.29,32c1.65,4.16,3.68,8.17,5.63,12.21,1.66,3.43,3,4.06,6.78,3.37,1.31-.24,2.61-.51,3.91-.73a29.35,29.35,0,0,0,17.65-9.43c2.53-2.86,5.4-5.42,8-8.22s3.55-5.79,1.87-9.54a68.93,68.93,0,0,1-2.88-8.49,9,9,0,0,0-6-6.22,81,81,0,0,0-19.5-3.79,10.87,10.87,0,0,0-4.85,1c-3.69,1.5-7.29,3.23-10.91,4.89-3,1.41-4.7,3.61-4.11,6.17A63.21,63.21,0,0,0,1128.48,474.65Z"/><path class="fa7c5020-d0fb-4f5c-88ce-5eb49ddebfb7" d="M1204.65,457.43c5.21,0,10.52-4.57,10.33-9.46-.25-6.61-3.32-10.88-10.66-11.25-5.56-.27-10.67,4.92-10.71,10.28C1193.57,452.71,1198.54,457.41,1204.65,457.43Z"/><path class="fa7c5020-d0fb-4f5c-88ce-5eb49ddebfb7" d="M1188.65,464.24a3.21,3.21,0,0,0,3.55,3.18c2-.08,3.11-1.23,3-3s-1.51-3-3.77-2.84C1189.66,461.67,1188.6,462.69,1188.65,464.24Z"/><path class="fa7c5020-d0fb-4f5c-88ce-5eb49ddebfb7" d="M1204.35,429.09a3.07,3.07,0,0,0,3-3.14,3,3,0,0,0-2.76-3.38c-1.88-.13-3.78,1.4-3.79,3A4,4,0,0,0,1204.35,429.09Z"/><path class="fa7c5020-d0fb-4f5c-88ce-5eb49ddebfb7" d="M1217.29,467.41a2.84,2.84,0,0,0,3-3.14,3.88,3.88,0,0,0-3.65-3.32,3.37,3.37,0,0,0-2.94,3.33A3.24,3.24,0,0,0,1217.29,467.41Z"/><path class="fa7c5020-d0fb-4f5c-88ce-5eb49ddebfb7" d="M1221.45,440.64a3.52,3.52,0,0,0,3.58,3.3,3.59,3.59,0,0,0,3.18-3.24,3.38,3.38,0,1,0-6.76-.06Z"/><path class="fa7c5020-d0fb-4f5c-88ce-5eb49ddebfb7" d="M1184.53,437.65A3.5,3.5,0,0,0,1181,441c.06,1.4,1.75,3,3.41,3.15s3-1.13,3-3.13S1186.32,437.74,1184.53,437.65Z"/><path class="fa7c5020-d0fb-4f5c-88ce-5eb49ddebfb7" d="M1259,513.28c-3.21-4.72-4-3.66-7.47-1.71a14.26,14.26,0,0,0-3.11,2.48c-1,1-.17,5.24,1.17,5.7a2.85,2.85,0,0,0,2.19-.62C1254.16,517.33,1256.43,515.39,1259,513.28Z"/><path class="fa7c5020-d0fb-4f5c-88ce-5eb49ddebfb7" d="M303,442.31c2.82.16,5.83-.27,8.43.58,6.48,2.1,12.77,4.77,19.14,7.22a4.1,4.1,0,0,1,2.74,4.76c-.3,2.63-.61,5.27-1,7.9-1.57,10.9-5.95,20.72-11.51,30.11-1.22,2.05-2.57,2.69-4.93,2-4.62-1.38-9.28-2.65-14-3.69a27.68,27.68,0,0,1-14.18-7.89c-2.44-2.5-5.06-4.83-7.53-7.3-2-2-4-4-5.81-6.13a7,7,0,0,1-1.49-7c1.05-3.33,2.38-6.58,3.24-9.95,1.17-4.63,4.21-7.1,8.64-7.95,6-1.14,12.09-2,18.14-3.05C302.92,442,303,442.17,303,442.31Zm-13.27,4.35c-4.85,1-8.41,3.73-9.57,9a80.38,80.38,0,0,1-2.42,8.12,7,7,0,0,0,1.46,7A77.89,77.89,0,0,0,294,485.4c3.05,2.24,7.29,3.08,11.12,4,8.38,2,8.53,1.91,12.51-5.81a90,90,0,0,0,8.59-25.41c.64-3.58.1-6.59-3.65-8.27s-7.48-3.6-11.29-5.23a23.7,23.7,0,0,0-4.66-1C301.16,444.64,295.39,445.44,289.72,446.66Z"/><path class="fa7c5020-d0fb-4f5c-88ce-5eb49ddebfb7" d="M269.25,529.12a3.27,3.27,0,0,1-2.85,3.42c-4.85,1.27-9.81,1.57-14.72,2.32-8.63,1.32-16.83-.7-25.17-1.94a3.76,3.76,0,0,1-3.41-3.64,127.92,127.92,0,0,1-1.56-22.8,5.27,5.27,0,0,1,.25-1.47c2.94-8.3,6.25-16.42,11.18-23.8a7.51,7.51,0,0,1,6.65-3.62l12.47-.1a7.47,7.47,0,0,1,7.32,4.26c3.08,6.25,6.12,12.52,9.07,18.82a21.69,21.69,0,0,1,2,11.67C270.06,517.87,269.6,523.49,269.25,529.12Zm-25.83-46.74c-5.88-1-9.53,2-11.91,6.87-2.62,5.37-5.08,10.82-7.53,16.27a5.85,5.85,0,0,0-.57,2.89c.53,4.61,1.22,9.21,1.81,13.81a4,4,0,0,0,3.48,3.65c7,1.68,13.86,3.29,21.13,2,3.91-.71,7.92-.81,11.87-1.32s4.81-1.11,5.37-4.71c.68-4.42.94-8.9,1.28-13.37a6.3,6.3,0,0,0-.45-2.92c-2.67-5.9-5.32-11.81-8.21-17.6-2.06-4.13-5.63-5.93-10.29-5.54-1.32.11-2.66,0-4,0A11,11,0,0,1,243.42,482.38Z"/><path class="fa7c5020-d0fb-4f5c-88ce-5eb49ddebfb7" d="M162.45,449.38c5.26-2.07,10.51-4.18,15.82-6.13,3-1.09,6-1.95,9.26-1.44,2.13.33,4.29.46,6.43.74,5.27.68,10.56,1.25,15.57,3.22,2.44,1,4.43,2.32,5.31,4.9,1.39,4.1,2.77,8.2,4.1,12.31a6.77,6.77,0,0,1-1,6.19,23.29,23.29,0,0,1-2.65,3.61c-5.27,5.07-10.58,10.1-16,15a11.29,11.29,0,0,1-4.42,2.24c-6.23,1.78-12.5,3.43-18.79,5-2.8.7-3.49.4-4.91-2.09a122.15,122.15,0,0,1-6.57-12.31,78.7,78.7,0,0,1-6.18-23.69C158.37,451,158.36,451,162.45,449.38Zm9.1,29.47c1.44,3,3.11,5.88,4.56,8.87,1.34,2.75,3.47,3.28,6.23,2.66,3.24-.72,6.5-1.37,9.76-2,3.76-.74,6.71-2.91,9.29-5.52,3.5-3.54,6.74-7.34,10.22-10.9,2.88-3,3.62-6.18,2.13-10-1.25-3.26-2.3-6.59-3.49-9.87a6.9,6.9,0,0,0-4.49-4.36,65.56,65.56,0,0,0-21-3.7c-3.9,0-7.84,2.4-11.7,3.9a49.14,49.14,0,0,0-4.8,2.65,5.32,5.32,0,0,0-2.93,5.83C166.55,464.09,168.13,471.73,171.55,478.85Z"/><path class="fa7c5020-d0fb-4f5c-88ce-5eb49ddebfb7" d="M258.41,393.58c1-6.14,4-11.24,7.78-16,2.38-3,4.92-5.86,7.46-8.72,3.58-4,4.7-4.29,9.48-1.91a96.34,96.34,0,0,1,21.49,14.44c2.95,2.66,5.45,5.82,8.15,8.76,1.29,1.41,1.32,2.71.23,4.43-3.32,5.18-6.33,10.57-9.67,15.74a22.66,22.66,0,0,1-4.39,4.69c-6,5.17-13.36,8.07-20.21,11.82a7.64,7.64,0,0,1-8.84-.47c-3.41-2.38-6.84-4.74-10.2-7.2-3-2.19-5-4.94-4.66-9C256.17,404.64,257.48,399.14,258.41,393.58Zm6.4,23.37c2.52,1.58,4.72,3.66,7.18,5.36a6.94,6.94,0,0,0,7.13.76c5.83-2.78,11.64-5.64,17.35-8.67a10.29,10.29,0,0,0,4-3.66c2.51-4.29,4.67-8.78,7-13.18a2.54,2.54,0,0,0-.46-3.18c-1.23-1.35-2.22-2.94-3.55-4.17-6.85-6.31-13.88-12.4-22.39-16.45-1.05-.5-2.12-1-3.2-1.39a3,3,0,0,0-3.63.68c-3.5,4-7.1,7.9-10.5,12a9.31,9.31,0,0,0-1.89,4c-1.12,5.51-2,11.07-3,16.61C258.23,410.92,260.58,414.31,264.81,417Z"/><path class="fa7c5020-d0fb-4f5c-88ce-5eb49ddebfb7" d="M231.63,419.85a77,77,0,0,0-7.64,5.59c-3.81,3.07-7.7,3.42-11.94.9-6.28-3.74-12.66-7.3-18.9-11.1a13,13,0,0,1-4-3.73c-3.52-5.25-6.8-10.65-10.22-16-1.36-2.09-1.31-4,.41-5.81,2.61-2.79,5-5.79,7.82-8.37a88,88,0,0,1,21.08-14.08c5.6-2.74,6.7-2.33,10.64,2.35,2.14,2.54,4.11,5.24,6.32,7.71A33.81,33.81,0,0,1,233.72,395c.78,4.9,2,9.74,3,14.6C237,414.13,235.53,417.44,231.63,419.85Zm-.07-24.08c-.49-10.37-7.7-16.49-14.26-23.06-1.33-1.33-2.67-.81-4.1-.15a73.17,73.17,0,0,0-15.66,9.61c-4.47,3.65-8.4,8-12.69,11.85a2.4,2.4,0,0,0-.53,3.46c2.63,4.62,5.22,9.25,7.94,13.81a6.82,6.82,0,0,0,2.5,2.33q8.09,4.41,16.29,8.63c3.57,1.84,6.95,1.68,10.2-1a79.67,79.67,0,0,1,7.3-5.19c3.48-2.26,4.69-5.43,4.19-9.42-.08-.66-.11-1.32-.17-2l.26,0A89.36,89.36,0,0,1,231.56,395.77Z"/><path class="fa7c5020-d0fb-4f5c-88ce-5eb49ddebfb7" d="M256.43,446.94a10.28,10.28,0,0,0-11-10.26c-6.6.31-9.45,4-9.77,10.31a10.24,10.24,0,0,0,9.87,10.43C251.74,457.46,256.39,453,256.43,446.94Z"/><path class="fa7c5020-d0fb-4f5c-88ce-5eb49ddebfb7" d="M255.46,464.31a3.25,3.25,0,0,0,6.5-.06,4,4,0,0,0-3.71-3.28A3,3,0,0,0,255.46,464.31Z"/><path class="fa7c5020-d0fb-4f5c-88ce-5eb49ddebfb7" d="M230.43,464.13a2.86,2.86,0,0,0,2.92,3.23c1.93,0,3.72-1.55,3.62-3.22a3.89,3.89,0,0,0-3.1-3.37A3.32,3.32,0,0,0,230.43,464.13Z"/><path class="fa7c5020-d0fb-4f5c-88ce-5eb49ddebfb7" d="M246,429.22a3.59,3.59,0,0,0,3.21-3.19,3.63,3.63,0,0,0-3.57-3.38,2.83,2.83,0,0,0-3.08,3.05A3.63,3.63,0,0,0,246,429.22Z"/><path class="fa7c5020-d0fb-4f5c-88ce-5eb49ddebfb7" d="M222.52,440.62a3.82,3.82,0,0,0,3.38,3.59,3.72,3.72,0,0,0,3.34-3.6c0-1.94-1.42-3.14-3.63-3C223.64,437.66,222.47,438.81,222.52,440.62Z"/><path class="fa7c5020-d0fb-4f5c-88ce-5eb49ddebfb7" d="M262.78,440.7a3.69,3.69,0,0,0,3.27,3.19,3.49,3.49,0,0,0,3.27-3.66,3,3,0,0,0-3.48-2.74A3.13,3.13,0,0,0,262.78,440.7Z"/><path class="fa7c5020-d0fb-4f5c-88ce-5eb49ddebfb7" d="M199.89,520.16c3.56-5.11,3.56-5.11-1-8.47-3.54-2.61-3.74-2.57-7.18,1.71Z"/><path class="fa7c5020-d0fb-4f5c-88ce-5eb49ddebfb7" d="M1265,446.39l-18.77,4.07a5.6,5.6,0,0,0-4.18,3.91c-1,2.81-1.64,5.75-2.73,8.52a6.06,6.06,0,0,0,1.27,6.9c4.48,4.67,8.86,9.5,13.77,13.7,2,1.69,5.16,2,7.85,2.77,1.26.36,2.7.09,4,.45,5.26,1.52,4.93-.12,6.77-3.48a69.1,69.1,0,0,0,7.82-21.46c.14-.81.35-1.62.44-2.45.58-5.35.38-5.72-4.4-8.1-2.24-1.12-4.45-2.28-6.75-3.25A49.22,49.22,0,0,0,1265,446.39Z"/><path class="fa7c5020-d0fb-4f5c-88ce-5eb49ddebfb7" d="M1223.56,512.35c-.09-9.9-3.85-17.37-9.15-24.19a6,6,0,0,0-3.61-2.39c-3.93-.31-7.85-1.29-11.88-.39a8.07,8.07,0,0,0-5,2.89c-4.43,5.59-6.74,12.19-9.13,18.76a5.79,5.79,0,0,0-.18,2.46c.26,3,.56,6,.93,8.93.47,3.72,1.11,4.41,4.86,5.1a80.5,80.5,0,0,0,29.2,0c1.74-.31,2.64-.94,2.82-2.77C1222.74,517.64,1223.26,514.53,1223.56,512.35Z"/><path class="fa7c5020-d0fb-4f5c-88ce-5eb49ddebfb7" d="M1188.24,402.81c-.64-3.18-1.52-9.11-3.13-14.84-.68-2.39-2.67-4.59-4.5-6.44-6.65-6.75-5.22-7.88-14.76-2.41a81.57,81.57,0,0,0-18.24,14.59c-2.31,2.39-2.38,2.44-.75,5.57s3.46,6.44,5.38,9.55a7.74,7.74,0,0,0,2.84,2.7c5.3,2.76,10.69,5.33,16,8a5.8,5.8,0,0,0,6.13-.48c2-1.25,4-2.46,5.89-3.76C1188.35,411.77,1188.37,411.7,1188.24,402.81Z"/><path class="fa7c5020-d0fb-4f5c-88ce-5eb49ddebfb7" d="M1220.09,405.53c-.28,4.26,1.6,7.06,5.06,9.17a67.71,67.71,0,0,1,6.07,4.34,5.79,5.79,0,0,0,6.54.65c4.92-2.41,9.85-4.79,14.69-7.34a9.18,9.18,0,0,0,3.33-2.91c2.27-3.47,4.26-7.12,6.42-10.66,1-1.66.83-2.93-.5-4.42a79,79,0,0,0-23.26-17.69c-3.54-1.79-4.12-1.65-6.92,1.3-2.39,2.53-4.67,5.17-6.87,7.87a7.44,7.44,0,0,0-1.45,3.1C1222.09,394.46,1221.11,400,1220.09,405.53Z"/><path class="fa7c5020-d0fb-4f5c-88ce-5eb49ddebfb7" d="M1126.85,457.12c1.29,4.95,2.27,10,4,14.83,1.58,4.51,4,8.74,5.94,13.12.77,1.72,1.93,2.71,3.87,2.32,6.66-1.34,13.43-2.3,18.31-7.93,2.72-3.13,5.85-5.9,8.79-8.83,2.33-2.33,3.15-4.95,1.78-8.15a47.77,47.77,0,0,1-2.35-6.55,7.77,7.77,0,0,0-6.14-5.87c-5.65-1.3-11.36-2.37-17.07-3.36a7.55,7.55,0,0,0-3.87.59c-3.23,1.29-6.35,2.87-9.57,4.2C1128,452.54,1126.91,454.27,1126.85,457.12Z"/><path class="fa7c5020-d0fb-4f5c-88ce-5eb49ddebfb7" d="M280.05,465.68c.56,1.2.86,2.58,1.68,3.49,3.65,4.06,7.35,8.09,11.23,11.93,4.67,4.61,11,5,17,6.28,1.69.37,2.74-.62,3.54-2.1a77.19,77.19,0,0,0,8.86-24.7,14,14,0,0,1,.26-2c1.71-5.56-.49-5.45-4-7.46-6.61-3.79-13.39-5.25-20.88-2.85-3,1-6.19,1.05-9.24,1.8a6.63,6.63,0,0,0-5.08,4.95C282.44,458.55,281.23,462,280.05,465.68Z"/><path class="fa7c5020-d0fb-4f5c-88ce-5eb49ddebfb7" d="M246.17,525c4.72-.52,9.68-1,14.6-1.65,2.88-.41,3.15-1,3.55-3.89.23-1.65.58-3.28.75-4.92.48-4.67.6-9.25-1.89-13.58-2.24-3.88-4-8-6.2-11.92a6.68,6.68,0,0,0-6.65-3.56,89.66,89.66,0,0,1-9,0,6.57,6.57,0,0,0-6.31,3.24,67.58,67.58,0,0,0-8.28,18.62c-.5,1.85-.18,4,0,5.95s.51,4.28.75,6.42c.35,3.07.51,3.38,3.56,3.75C236,524,240.91,524.44,246.17,525Z"/><path class="fa7c5020-d0fb-4f5c-88ce-5eb49ddebfb7" d="M168.06,457.39c1.72,5.82,3.3,11.93,5.37,17.86,1.2,3.43,3.23,6.56,4.85,9.84.82,1.68,2,2.66,4,2.24,3.89-.85,7.82-1.59,11.62-2.73a11.3,11.3,0,0,0,4.58-2.89c4.19-4.27,8.17-8.74,12.27-13.1a3.57,3.57,0,0,0,.87-4.07c-1.31-3.59-2.28-7.32-3.8-10.8a6.11,6.11,0,0,0-3.56-3.12c-6.27-1.55-12.59-3.48-19-3.81-5.88-.31-11.15,3-15.85,6.53C168.58,454,168.59,455.7,168.06,457.39Z"/><path class="fa7c5020-d0fb-4f5c-88ce-5eb49ddebfb7" d="M262.08,405.73c-.88,4.52,1.35,7.33,4.93,9.51a33.32,33.32,0,0,1,4.14,2.79,8.07,8.07,0,0,0,9.7,1.1c4.7-2.47,9.5-4.78,14.08-7.47a13.43,13.43,0,0,0,4-4.3c1.71-2.63,3.11-5.48,4.66-8.23,1.26-2.21.83-4-.95-5.81a80.51,80.51,0,0,0-23.34-16.89c-2.11-1-3.73-.92-5.31.91-1.41,1.64-3,3.12-4.49,4.69a20.75,20.75,0,0,0-6.07,13.33C263.17,398.83,262.53,402.27,262.08,405.73Z"/><path class="fa7c5020-d0fb-4f5c-88ce-5eb49ddebfb7" d="M230.42,407.35c-1.09-6.21-2.11-12.44-3.31-18.63a7.91,7.91,0,0,0-1.81-3.49c-2.43-2.74-5.07-5.29-7.55-8a3.8,3.8,0,0,0-5.34-.76c-4.4,2.67-9,5.06-13.18,8.06-3.62,2.61-6.76,5.89-10.09,8.89-1.9,1.7-2.11,3.65-.82,5.82,2.05,3.43,4,6.91,6.16,10.28a6.75,6.75,0,0,0,2.54,2.29c5.48,2.8,11,5.5,16.53,8.19a4.64,4.64,0,0,0,4.76-.51c3.34-2.17,6.68-4.36,9.9-6.7C230,411.52,230.29,409.47,230.42,407.35Z"/></g></g></svg>