<svg width="1920" height="980" viewBox="0 0 1920 980" fill="none" xmlns="http://www.w3.org/2000/svg">
  <rect width="1920" height="980" fill="#07111F"/>
  <defs>
    <radialGradient id="g1" cx="0" cy="0" r="1" gradientUnits="userSpaceOnUse" gradientTransform="translate(960 350) rotate(90) scale(520 960)"><stop stop-color="#12CFF4" stop-opacity="0.18"/><stop offset="1" stop-color="#12CFF4" stop-opacity="0"/></radialGradient>
    <radialGradient id="g2" cx="0" cy="0" r="1" gradientUnits="userSpaceOnUse" gradientTransform="translate(1550 420) rotate(90) scale(360 520)"><stop stop-color="#FFB547" stop-opacity="0.08"/><stop offset="1" stop-color="#FFB547" stop-opacity="0"/></radialGradient>
    <linearGradient id="road" x1="0" y1="560" x2="1920" y2="980" gradientUnits="userSpaceOnUse"><stop stop-color="#0A1B33" stop-opacity="0.05"/><stop offset="0.5" stop-color="#121B27" stop-opacity="0.62"/><stop offset="1" stop-color="#03070D"/></linearGradient>
  </defs>
  <rect width="1920" height="980" fill="url(#g1)"/>
  <rect width="1920" height="980" fill="url(#g2)"/>
  <g opacity="0.16"><rect x="112" y="176" width="280" height="280" rx="18" fill="#E6EEF6" fill-opacity="0.05"/><rect x="1450" y="128" width="300" height="340" rx="20" fill="#E6EEF6" fill-opacity="0.05"/><rect x="1340" y="238" width="190" height="240" rx="16" fill="#E6EEF6" fill-opacity="0.04"/><rect x="420" y="230" width="210" height="250" rx="16" fill="#E6EEF6" fill-opacity="0.035"/></g>
  <g opacity="0.10" stroke="#DDF8FF"><path d="M0 625H1920"/><path d="M0 698H1920"/><path d="M0 770H1920"/><path d="M0 842H1920"/><path d="M145 635L20 980"/><path d="M450 635L330 980"/><path d="M760 635L690 980"/><path d="M1070 635L1120 980"/><path d="M1380 635L1510 980"/><path d="M1680 635L1880 980"/></g>
  <path d="M0 600C310 570 560 590 820 610C1160 636 1470 605 1920 570V980H0V600Z" fill="url(#road)"/>
  <rect y="0" width="1920" height="980" fill="url(#g1)" opacity="0.6"/>
  <rect y="0" width="1920" height="980" fill="#03101D" opacity="0.28"/>
</svg>
